<?xml version="1.0" encoding="utf-8"?>
<!-- Generator: Adobe Illustrator 15.0.0, SVG Export Plug-In . SVG Version: 6.00 Build 0)  -->
<!DOCTYPE svg PUBLIC "-//W3C//DTD SVG 1.1//EN" "http://www.w3.org/Graphics/SVG/1.1/DTD/svg11.dtd">
<svg version="1.1" id="Layer_1" xmlns="http://www.w3.org/2000/svg" xmlns:xlink="http://www.w3.org/1999/xlink" x="0px" y="0px"
	 width="595.28px" height="595.28px" viewBox="0 0 595.28 595.28" enable-background="new 0 0 595.28 595.28" xml:space="preserve">
<g>
	<g>
		<path fill="#FFFFFF" d="M235.521,92.283c0,0,74.783,167.857,0,410.714"/>
		<g>
			<g>
				<g>
					<path d="M225.728,104.395c1.133,6.556,2.059,13.235,3.156,19.818c1.098,6.592,1.997,13.236,3.027,19.824
						c1.033,6.564,5.731,12.364,6.646,19.036c0.914,6.659-0.134,13.643,0.553,20.282c0.687,6.638,2.809,13.083,3.181,19.783
						c0.359,6.459,0.684,12.914,0.825,19.375c0.141,6.47-1.991,13.08-2.012,19.495c-0.016,6.415,2.125,12.738,2.016,19.181
						c-0.114,6.433-0.011,12.846-0.164,19.27c-0.149,6.436-2.985,12.823-3.11,19.207c-0.134,6.502,0.397,13.031,0.304,19.557
						c-0.091,6.516,1.106,13.12,0.964,19.678c-0.144,6.563-3.172,12.878-3.457,19.402c-0.284,6.538-0.674,13.076-1.189,19.611
						c-0.517,6.532-0.219,13.197-1.06,19.72c-0.838,6.512,0.626,13.498-0.989,19.934c-1.611,6.414-3.848,12.701-5.854,19.008
						c-2.011,6.31-4.758,12.411-6.794,18.673c-2.035,6.274-3.713,12.611-5.427,18.953c-1.718,6.368-6.286,11.913-7.32,18.433
						c-0.449,2.794,10.844,6.313,11.637,3.506c1.808-6.431,3.241-12.981,5.721-19.223c2.474-6.225,6.757-11.969,9.571-18.188
						c2.81-6.21,3.001-13.146,5.778-19.389c2.78-6.24,8.195-11.899,10.601-18.334c2.408-6.436,4.838-12.91,6.492-19.53
						c1.652-6.618,0.554-13.673,1.826-20.328c1.274-6.667,2.372-13.362,3.357-20.083c0.984-6.711,3.782-13.27,4.567-20.051
						c0.781-6.771,1.815-13.534,2.484-20.335c0.667-6.811-1.049-13.717-0.413-20.508c0.621-6.691,2.664-13.389,3.299-20.14
						c0.637-6.734,4.036-13.523,4.632-20.355c0.596-6.841-3.639-13.507-3.129-20.308c0.507-6.806,4.61-13.898,4.979-20.834
						c0.365-6.93-1.999-13.62-1.821-20.551c0.182-7.187,0.373-14.416,0.295-21.65c-0.075-7.232,1.413-14.786,0.847-22.063
						c-0.561-7.266,0.139-14.888-1.144-22.13c-1.284-7.255-6.39-13.484-8.599-20.486c-2.217-7.018-5.22-13.764-8.707-20.556
						c-1.343-2.615-4.436-3.82-8.222-3.887c-1.897-0.043-3.954,0.229-6.084,0.676c-0.558,0.052-1.077,0.22-1.604,0.383
						c-0.527,0.163-1.056,0.337-1.584,0.523c-1.057,0.372-2.114,0.788-3.155,1.243c-4.161,1.829-8.069,4.262-10.88,6.745
						C226.968,99.287,225.296,101.906,225.728,104.395z"/>
				</g>
			</g>
		</g>
	</g>
	<g>
		<path fill="#FFFFFF" d="M326.521,92.283c0,0,74.783,167.857,0,410.714"/>
		<g>
			<g>
				<g>
					<path d="M316.729,104.395c1.133,6.556,2.059,13.235,3.155,19.818c1.098,6.592,1.997,13.236,3.027,19.824
						c1.032,6.564,5.731,12.364,6.646,19.036c0.913,6.659-0.135,13.643,0.552,20.282c0.687,6.638,2.81,13.083,3.182,19.783
						c0.359,6.459,0.685,12.914,0.824,19.375c0.141,6.47-1.99,13.08-2.011,19.495c-0.017,6.415,2.124,12.738,2.015,19.181
						c-0.113,6.433-0.01,12.846-0.164,19.27c-0.148,6.436-2.984,12.823-3.109,19.207c-0.134,6.502,0.397,13.031,0.304,19.557
						c-0.091,6.516,1.106,13.12,0.964,19.678c-0.144,6.563-3.172,12.878-3.457,19.402c-0.283,6.538-0.673,13.076-1.188,19.611
						c-0.517,6.532-0.22,13.197-1.06,19.72c-0.838,6.512,0.626,13.498-0.989,19.934c-1.611,6.414-3.848,12.701-5.854,19.008
						c-2.011,6.31-4.759,12.411-6.794,18.673c-2.035,6.274-3.713,12.611-5.428,18.953c-1.718,6.368-6.285,11.913-7.32,18.433
						c-0.448,2.794,10.845,6.313,11.638,3.506c1.808-6.431,3.24-12.981,5.721-19.223c2.474-6.225,6.757-11.969,9.57-18.188
						c2.811-6.21,3.002-13.146,5.778-19.389c2.779-6.24,8.195-11.899,10.602-18.334c2.408-6.436,4.838-12.91,6.491-19.53
						c1.652-6.618,0.554-13.673,1.826-20.328c1.274-6.667,2.372-13.362,3.356-20.083c0.984-6.711,3.782-13.27,4.567-20.051
						c0.781-6.771,1.815-13.534,2.484-20.335c0.667-6.811-1.049-13.717-0.413-20.508c0.621-6.691,2.664-13.389,3.299-20.14
						c0.638-6.734,4.036-13.523,4.632-20.355c0.597-6.841-3.639-13.507-3.129-20.308c0.507-6.806,4.609-13.898,4.979-20.834
						c0.365-6.93-1.999-13.62-1.821-20.551c0.182-7.187,0.373-14.416,0.296-21.65c-0.075-7.232,1.412-14.786,0.846-22.063
						c-0.561-7.266,0.14-14.888-1.143-22.13c-1.284-7.255-6.391-13.484-8.599-20.486c-2.218-7.018-5.221-13.764-8.707-20.556
						c-1.343-2.615-4.436-3.82-8.222-3.887c-1.896-0.043-3.953,0.229-6.084,0.676c-0.559,0.052-1.077,0.22-1.604,0.383
						c-0.527,0.163-1.057,0.337-1.585,0.523c-1.058,0.372-2.113,0.788-3.154,1.243c-4.161,1.829-8.069,4.262-10.881,6.745
						C317.968,99.287,316.297,101.906,316.729,104.395z"/>
				</g>
			</g>
		</g>
	</g>
</g>
</svg>
