<?xml version="1.0" encoding="utf-8"?>
<!-- Generator: Adobe Illustrator 15.0.0, SVG Export Plug-In . SVG Version: 6.00 Build 0)  -->
<!DOCTYPE svg PUBLIC "-//W3C//DTD SVG 1.1//EN" "http://www.w3.org/Graphics/SVG/1.1/DTD/svg11.dtd">
<svg version="1.1" id="Layer_1" xmlns="http://www.w3.org/2000/svg" xmlns:xlink="http://www.w3.org/1999/xlink" x="0px" y="0px"
	 width="595.28px" height="595.28px" viewBox="0 0 595.28 595.28" enable-background="new 0 0 595.28 595.28" xml:space="preserve">
<g>
	<g>
		<g>
			<g>
				<path d="M326.358,395.682c-5.46,1.731-11.472,1.263-16.511-1.141c-2.525-1.19-4.81-2.853-6.7-4.852
					c-1.916-2.027-3.326-4.264-4.445-6.626c-2.233-4.75-2.983-10.084-2.262-15.131c0.706-5.054,2.867-9.833,6.121-13.647
					c0.813-0.958,1.696-1.85,2.636-2.671c0.464-0.41,0.957-0.803,1.468-1.192l0.732-0.528c0.249-0.176,0.5-0.349,0.757-0.514
					c2.034-1.345,4.223-2.44,6.498-3.265c4.551-1.649,9.444-2.188,14.151-1.609c4.71,0.569,9.234,2.237,13.119,4.804
					c3.89,2.555,7.108,6.045,9.428,9.958c4.762,7.774,6.508,17.258,4.819,26.069c-1.619,8.819-6.724,16.852-13.815,21.827
					c-7.089,5.049-15.585,8.011-24.162,8.302c-8.563,0.33-17.138-2.003-24.07-6.543c-3.567-2.325-6.669-5.214-9.215-8.457
					c-0.641-0.813-1.24-1.654-1.775-2.453l-0.477-0.716l-0.119-0.18l-0.015-0.022c-0.011-0.015,0.071,0.09,0.033,0.041l-0.007-0.011
					l-0.025-0.042L282.471,397l-0.206-0.335c-0.278-0.442-0.547-0.89-0.806-1.343c-1.045-1.805-1.978-3.656-2.784-5.551
					c-3.253-7.575-4.609-15.694-4.356-23.764c0.248-8.107,2.513-16.063,6.438-22.962c1.958-3.453,4.328-6.645,7.032-9.5
					c1.355-1.425,2.786-2.774,4.297-4.029c0.373-0.296,0.781-0.649,1.121-0.9l1.197-0.91c0.783-0.585,1.646-1.184,2.484-1.743
					c6.771-4.513,14.274-7.931,22.229-9.788c7.936-1.865,16.31-2.142,24.297-0.578c7.985,1.552,15.6,4.711,22.272,9.181
					c3.338,2.233,6.444,4.791,9.272,7.62c1.415,1.414,2.76,2.897,4.033,4.44c0.638,0.773,1.258,1.564,1.828,2.327
					c0.646,0.86,1.229,1.68,1.822,2.538c4.606,6.671,8.297,13.947,10.798,21.639c2.498,7.684,3.805,15.777,3.71,23.849
					c-0.085,8.083-1.859,16.029-4.718,23.396c-2.871,7.383-6.797,14.196-11.331,20.533c-4.555,6.361-9.835,12.121-16.081,17.114
					c-6.277,5.016-13.344,9.388-20.808,12.532c-14.94,6.336-31.426,9.128-47.64,7.663c-8.103-0.727-16.058-2.716-23.592-5.609
					c-7.544-2.895-14.669-6.682-21.384-11.049c-6.717-4.366-12.965-9.473-18.536-15.293c-1.395-1.453-2.744-2.953-4.048-4.494
					l-0.934-1.117l-1.027-1.274l-0.919-1.174l-0.945-1.238c-2.499-3.319-4.826-6.766-6.957-10.329
					c-4.255-7.119-8.069-14.494-11.153-22.229c-3.082-7.728-5.425-15.815-6.677-24.134c-1.254-8.309-1.269-16.835-0.462-25.222
					c0.806-8.398,2.424-16.655,4.385-24.759c2.236-9.257,5.141-18.331,9.029-27.064c3.891-8.719,8.787-17.086,14.89-24.637
					c5.816-7.192,12.36-13.799,19.544-19.697l0.511-0.42l0.012-0.012c4.146-3.951,7.995-7.817,11.893-11.8
					c3.874-3.966,7.694-7.98,11.472-12.043c14.375-15.503,29.114-31.266,41.227-48.926c5.99-8.806,11.474-17.988,15.909-27.838
					c2.204-4.928,4.142-10.032,5.523-15.394c1.36-5.349,2.217-11.018,1.639-16.849c-0.085-0.896-0.394-1.788-0.722-2.14
					c-0.336-0.406-0.722-0.598-1.072-0.575c-0.716,0.047-1.215,0.933-1.08,2.809c0.304,4.743-0.459,9.457-1.685,13.973
					c-1.235,4.525-2.95,8.89-4.906,13.123c-3.938,8.463-8.817,16.423-14.085,24.073c-10.594,15.265-22.228,29.732-34.806,43.373
					c-10.742,11.581-21.765,22.805-33.418,33.579l-0.049,0.045l-0.128,0.101c-2.123,1.667-4.198,3.393-6.223,5.173
					c-13.572,11.921-24.486,26.631-32.325,42.762c-3.926,8.061-7.332,16.415-9.9,25.065c-2.566,8.643-4.284,17.584-4.821,26.595
					c-0.539,9.013,0.269,18.039,1.934,26.813c1.666,8.787,4.182,17.322,7.086,25.704c2.904,8.38,6.255,16.649,10.424,24.577
					c4.178,7.898,9.115,15.548,15.134,22.104c12.058,13.147,27.401,23.146,44.249,28.978c8.424,2.93,17.262,4.638,26.139,5.249
					c8.883,0.612,17.805,0.132,26.569-1.243c17.559-2.726,34.255-10.222,48.375-20.963c7.012-5.319,13.104-11.839,18.028-19.125
					c4.933-7.288,8.708-15.32,11.331-23.696c2.625-8.37,4.176-17.106,4.37-25.949c0.201-8.834-0.975-17.773-3.702-26.29
					c-2.725-8.518-6.959-16.572-12.305-23.787c-5.287-7.211-11.904-13.345-19.391-18.148c-7.471-4.802-15.692-8.489-24.467-10.553
					c-8.751-2.063-18.067-2.462-27.135-0.672c-9.059,1.775-17.781,5.398-25.521,10.544c-7.786,5.077-14.45,12.005-19.104,20.17
					c-4.684,8.144-7.347,17.488-7.697,26.971c-0.368,9.482,1.592,19.098,5.709,27.759c1.172,2.492,2.543,4.894,4.064,7.198
					c0.387,0.572,0.77,1.147,1.177,1.705c0.209,0.287,0.384,0.548,0.622,0.857l0.601,0.795c0.893,1.144,1.783,2.186,2.74,3.219
					c3.81,4.11,8.369,7.552,13.388,10.109c10.037,5.148,21.861,6.706,33.011,4.407c5.562-1.129,10.953-3.23,15.866-6.179
					c2.435-1.469,4.828-3.159,7.025-5.144c2.193-1.969,4.189-4.184,5.928-6.598c7.017-9.637,9.732-22.497,6.932-34.584
					c-1.308-5.774-3.866-11.317-7.431-16.115c-3.813-5.076-8.898-9.082-14.763-11.617c-5.843-2.526-12.377-3.542-18.813-2.846
					c-6.433,0.674-12.756,3.099-18.041,6.934c-5.629,4.017-9.996,10.084-12,16.827c-2.054,6.734-1.846,14.158,0.653,20.815
					c1.226,3.305,3.074,6.488,5.225,9.124l0.525,0.628l0.471,0.531c0.319,0.351,0.647,0.692,0.983,1.028
					c0.673,0.669,1.382,1.305,2.123,1.902c1.479,1.196,3.083,2.24,4.773,3.108c6.759,3.501,14.887,4.052,22.021,1.491
					c2.912-1.043,4.79-2.491,5.815-3.636c1.03-1.162,1.251-2.041,0.932-2.448c-0.33-0.422-1.192-0.385-2.542,0.009
					C330.714,394.135,328.868,394.888,326.358,395.682z"/>
			</g>
			<g>
				<path d="M309.67,394.733c-2.576-1.211-4.903-2.913-6.808-4.964c-1.945-2.095-3.32-4.35-4.428-6.767
					c-2.187-4.842-2.81-10.239-1.947-15.269c0.847-5.038,3.162-9.719,6.508-13.369c1.656-1.824,3.612-3.411,5.644-4.681
					c2.037-1.291,4.214-2.351,6.475-3.17c4.53-1.64,9.418-2.172,14.14-1.59c4.723,0.575,9.28,2.263,13.189,4.883
					c3.93,2.61,7.131,6.172,9.475,10.177c2.374,3.985,3.984,8.401,4.71,12.94c1.487,9.062-0.323,18.663-5.273,26.465
					c-2.455,3.9-5.681,7.316-9.415,10.022c-3.723,2.723-7.87,4.861-12.237,6.268c-8.721,2.829-18.24,2.883-26.937,0.295
					c-8.712-2.558-16.558-7.798-22.265-14.783c-5.69-7.011-9.566-15.456-11.238-24.282c-1.694-8.831-1.237-18.018,1.189-26.648
					c2.414-8.64,6.744-16.783,12.82-23.51c3.02-3.372,6.493-6.34,10.25-8.954c3.748-2.611,7.775-4.839,12-6.604
					c8.455-3.54,17.682-5.104,26.768-4.872c9.103,0.225,18.061,2.204,26.436,5.525c8.376,3.313,16.284,7.945,23.114,14.004
					c3.418,3.021,6.531,6.402,9.314,10.067c2.792,3.654,5.275,7.562,7.358,11.679c4.176,8.239,6.73,17.259,7.833,26.367
					c1.108,9.123,0.79,18.327-0.581,27.325c-1.37,8.998-3.892,17.85-7.742,26.17c-3.838,8.314-9.025,16.081-15.456,22.708
					c-6.469,6.692-14.156,12.125-22.26,16.639c-8.131,4.496-16.797,7.949-25.71,10.441c-17.786,5.004-36.904,6.027-55.124,1.856
					c-9.094-2.078-17.856-5.553-26.002-10.034c-8.157-4.482-15.698-9.963-22.62-16.091c-6.945-6.119-13.105-13.113-18.463-20.692
					c-5.383-7.561-10.029-15.666-13.767-24.184c-7.475-16.993-12.207-35.4-12.517-54.19c-0.32-18.618,3.421-37.19,10.097-54.454
					c6.679-17.342,16.585-33.506,29.471-47.104c4.481-4.741,9.359-9.134,14.513-13.182l-0.176,0.145
					c8.725-8.055,17.291-16.492,25.371-25.195c12.382-13.396,22.739-27.979,33.293-42.492c5.252-7.253,10.635-14.52,15.37-22.088
					c2.358-3.782,4.551-7.64,6.392-11.573c1.841-3.926,3.333-7.944,4.185-11.9c0.45-2.132,0.436-3.974,0.138-5.302
					c-0.287-1.337-0.835-2.164-1.383-2.461c-0.561-0.293-1.122-0.081-1.613,0.689c-0.503,0.78-0.938,2.12-1.504,4.346
					c-1.071,4.19-2.987,8.63-5.3,12.991c-2.319,4.374-5.045,8.709-7.969,12.986c-5.862,8.562-12.475,16.908-19.182,25.358
					c-13.465,16.882-28.616,33.007-44.248,48.493l-4.832,4.721c-1.598,1.543-3.274,3.145-4.798,4.569l0.688-0.567
					c-15.006,11.924-27.692,26.638-37.461,43.132c-6.17,10.396-10.776,21.664-13.975,33.235
					c-3.204,11.581-5.017,23.462-5.755,35.375c-0.627,10.122-0.641,20.313,0.375,30.48c1.012,10.156,3.083,20.286,6.539,29.964
					c3.452,9.675,8.014,18.944,13.447,27.633c2.716,4.346,5.648,8.549,8.765,12.602c3.153,4.112,6.577,8.073,10.207,11.809
					c7.262,7.488,15.622,13.917,24.625,19.16c9.009,5.246,18.65,9.315,28.587,12.3c19.88,5.982,41.285,6.847,61.631,2.403
					c10.165-2.211,20.116-5.52,29.532-10.057c4.705-2.267,9.272-4.838,13.646-7.708c2.178-1.423,4.351-2.968,6.382-4.506
					c1.118-0.855,2.166-1.691,3.193-2.546c1.028-0.861,2.041-1.743,3.034-2.647c7.749-7.059,14.445-15.325,19.707-24.435
					c5.265-9.106,9.1-19.043,11.286-29.335c2.193-10.292,2.674-20.938,1.517-31.386c-1.146-10.453-3.934-20.707-8.123-30.334
					c-2.093-4.814-4.607-9.444-7.473-13.828c-1.434-2.192-2.953-4.325-4.553-6.391l-1.192-1.511l-1.325-1.601
					c-0.87-1.023-1.766-2.027-2.684-3.009c-7.349-7.866-16.221-14.262-25.889-18.887c-9.665-4.636-20.16-7.56-30.895-8.413
					c-10.722-0.862-21.692,0.372-31.972,3.846c-5.137,1.732-10.098,3.988-14.782,6.702c-2.342,1.356-4.616,2.827-6.81,4.401
					l-1.631,1.199l-0.925,0.707l-0.678,0.539c-0.394,0.306-1.045,0.849-1.617,1.326c-0.592,0.492-1.071,0.931-1.609,1.401
					c-8.34,7.485-14.824,17.047-18.748,27.527c-3.987,10.589-5.682,22.043-4.594,33.426c1.059,11.36,5.025,22.637,11.665,32.135
					c0.406,0.598,0.839,1.175,1.264,1.759l0.675,0.891l0.621,0.792l0.801,0.982l0.742,0.865c0.498,0.573,1.009,1.137,1.53,1.69
					c2.086,2.214,4.349,4.273,6.765,6.141c4.828,3.741,10.25,6.715,15.979,8.8c11.463,4.178,24.143,4.771,35.985,1.725
					c5.924-1.51,11.622-3.997,16.773-7.294c1.286-0.825,2.546-1.691,3.759-2.614l0.591-0.447l0.345-0.272l0.86-0.694
					c0.749-0.615,1.297-1.099,1.91-1.655c2.392-2.181,4.582-4.6,6.515-7.21c7.786-10.453,11.202-23.811,9.668-36.629
					c-0.743-6.421-2.745-12.724-5.857-18.407c-0.776-1.421-1.619-2.804-2.524-4.141c-0.456-0.666-0.922-1.324-1.405-1.969
					l-0.679-0.885l-0.922-1.129c-2.229-2.638-4.786-5.031-7.601-7.077c-5.626-4.105-12.246-6.803-19.104-7.822
					c-6.856-1.032-13.977-0.392-20.563,1.899c-3.29,1.141-6.439,2.684-9.342,4.569c-0.727,0.47-1.435,0.964-2.131,1.473
					l-1.112,0.848l-0.97,0.793c-1.506,1.272-2.787,2.537-4.039,3.964c-4.96,5.643-8.108,12.794-8.967,20.159
					c-0.892,7.361,0.49,15,3.938,21.562c0.856,1.639,1.833,3.209,2.916,4.688c0.268,0.372,0.549,0.732,0.829,1.095l0.388,0.479
					l0.539,0.645c0.702,0.813,1.357,1.5,2.091,2.208c2.892,2.787,6.327,5.022,10.022,6.534c4.919,2.013,9.613,2.419,13.465,2.06
					c3.874-0.364,6.936-1.477,9.154-2.653c2.225-1.193,3.633-2.446,4.411-3.43c0.779-0.991,0.944-1.72,0.646-2.123
					c-0.303-0.411-1.069-0.501-2.264-0.387c-1.195,0.108-2.824,0.427-4.902,0.686c-2.073,0.26-4.606,0.453-7.529,0.213
					C316.42,397.032,313.096,396.341,309.67,394.733z"/>
			</g>
		</g>
	</g>
</g>
</svg>
