<?xml version="1.0" encoding="utf-8"?>
<!-- Generator: Adobe Illustrator 15.0.0, SVG Export Plug-In . SVG Version: 6.00 Build 0)  -->
<!DOCTYPE svg PUBLIC "-//W3C//DTD SVG 1.1//EN" "http://www.w3.org/Graphics/SVG/1.1/DTD/svg11.dtd">
<svg version="1.1" id="Layer_1" xmlns="http://www.w3.org/2000/svg" xmlns:xlink="http://www.w3.org/1999/xlink" x="0px" y="0px"
	 width="595.28px" height="595.28px" viewBox="0 0 595.28 595.28" enable-background="new 0 0 595.28 595.28" xml:space="preserve">
<g>
	<g>
		<circle fill="#FFFFFF" cx="212.493" cy="199.929" r="106.299"/>
		<g>
			<g>
				<g>
					<path d="M309.213,162.909c-3.536-8.758-8.959-16.508-14.373-23.999c-5.454-7.55-12.203-14.066-19.33-20.024
						c-3.566-2.985-6.993-6.227-10.689-9.278c-3.686-3.047-7.639-5.905-11.994-7.982c-4.348-2.075-8.642-4.406-13.155-6.481
						c-4.502-2.071-9.227-3.875-14.154-4.798c-9.873-1.854-20.031-1.681-30.118-0.87c-5.059,0.41-10.095,1.276-15.056,2.489
						c-1.241,0.3-2.477,0.624-3.709,0.966c-1.209,0.33-2.551,0.739-3.651,1.066c-2.514,0.783-4.9,1.584-7.337,2.469
						c-4.852,1.756-9.29,4.538-13.465,7.575c-4.185,3.049-8.105,6.349-12.268,9.333c-4.16,2.983-8.754,5.558-13.244,8.538
						c-4.477,2.966-8.832,6.353-12.178,10.598c-3.344,4.24-6.009,8.994-8.307,13.883c-2.304,4.896-4.249,9.922-6.278,14.918
						c-4.611,11.332-7.242,23.59-7.748,35.994c-0.258,6.191,0.505,12.399,1.768,18.438c1.261,6.051,3.006,11.935,4.719,17.789
						c3.417,11.673,8.036,23.185,14.902,33.438c3.422,5.116,6.983,10.167,10.923,14.964c3.936,4.793,8.251,9.332,13.06,13.299
						c4.734,3.909,10.021,7.102,15.482,9.831c5.468,2.735,11.109,5.01,16.757,7.208c5.653,2.2,11.334,4.429,17.223,6.204
						c5.878,1.773,11.966,3.08,18.14,3.394c6.165,0.312,12.357,0.415,18.549,0.016c6.185-0.397,12.368-1.305,18.341-2.975
						c2.979-0.834,5.866-1.975,8.648-3.314l2.104-1.055c0.347-0.183,0.761-0.387,1.05-0.556l0.881-0.512l0.11-0.064l0.055-0.032
						c-0.077,0.027,0.111-0.043,0.095-0.037l0.008-0.005l0.016-0.009l0.031-0.018l0.25-0.145l0.5-0.289l0.994-0.586l1.964-1.205
						c5.205-3.272,10.054-6.911,15.005-10.246c4.454-3.004,9.212-5.599,13.807-8.598c4.582-2.986,8.997-6.379,12.421-10.64
						c3.423-4.262,5.777-9.312,7.688-14.383c1.92-5.086,3.401-10.194,5.342-14.976c1.94-4.78,4.431-9.313,6.624-14.075
						c2.186-4.745,4.06-9.725,4.63-14.913c0.57-5.183,0.368-10.412-0.186-15.519c-0.553-5.115-1.438-10.108-2.235-15.04
						c-0.797-4.942-2.365-9.726-4.217-14.302c-1.851-4.584-3.966-8.971-5.895-13.352c-0.579-1.313-1.717-1.667-2.535-1.337
						c-0.839,0.305-1.328,1.372-0.82,2.621c1.933,4.749,3.052,9.834,3.71,14.913c0.663,5.092,0.881,10.193,1.102,15.272
						c0.22,5.077,0.794,10.2,0.924,15.434c0.133,5.217-0.191,10.543-1.7,15.571c-1.507,5.028-4.139,9.667-7.076,13.965
						c-2.945,4.313-6.185,8.292-9.095,12.396c-5.807,8.192-12.29,16.045-20.373,22.002c-4.029,2.968-8.431,5.376-12.94,7.402
						c-4.514,2.029-9.133,3.679-13.737,5.226c-9.257,3.112-18.942,4.108-28.337,4.319c-4.712,0.109-9.405,0.214-14.108-0.025
						c-4.695-0.237-9.399-0.824-13.932-2.079c-4.53-1.253-9.037-2.544-13.455-4.15c-4.412-1.603-8.731-3.532-12.734-5.988
						c-4.059-2.488-7.653-5.682-10.938-9.067c-3.294-3.391-6.288-6.96-9.388-10.378c-6.208-6.852-11.156-14.723-15.343-22.952
						c-4.213-8.271-7.089-17.228-9.21-26.357c-1.063-4.577-2.181-9.23-3.027-14.04c-0.846-4.803-1.418-9.763-1.382-14.763
						c0.073-10.07,2.98-19.908,7.021-29.19c2.032-4.679,3.977-9.489,6.404-14.142c2.417-4.643,5.32-9.125,9.043-12.863
						c7.447-7.478,16.398-13.335,25.868-17.792c9.475-4.46,19.814-6.621,29.983-7.898c9.122-1.147,18.334-1.293,27.361-0.041
						c9.043,1.242,17.791,3.905,26.144,7.327c8.384,3.437,16.084,8.272,23.348,13.59c7.244,5.306,14.484,10.982,20.428,18.053
						c5.927,7.051,10.389,15.219,14.596,23.569C307.938,164.47,309.568,163.791,309.213,162.909z"/>
				</g>
			</g>
		</g>
	</g>
	<g>
		<circle fill="#FFFFFF" cx="382.792" cy="395.359" r="106.299"/>
		<g>
			<g>
				<g>
					<path d="M405.764,496.342c9.17-2.263,17.608-6.535,25.789-10.836c8.246-4.332,15.65-10.091,22.557-16.304
						c3.46-3.108,7.152-6.043,10.696-9.271c3.537-3.217,6.926-6.727,9.598-10.744c2.669-4.011,5.583-7.933,8.276-12.106
						c2.688-4.164,5.141-8.586,6.751-13.333c3.232-9.512,4.497-19.592,5.12-29.692c0.31-5.066,0.164-10.175-0.335-15.257
						c-0.122-1.271-0.269-2.54-0.433-3.809c-0.155-1.243-0.371-2.629-0.539-3.765c-0.42-2.6-0.875-5.074-1.406-7.612
						c-1.052-5.051-3.179-9.838-5.595-14.4c-2.427-4.573-5.14-8.922-7.505-13.465c-2.365-4.54-4.265-9.452-6.579-14.318
						c-2.304-4.852-5.041-9.642-8.77-13.555c-3.726-3.909-8.055-7.22-12.569-10.186c-4.521-2.973-9.222-5.609-13.881-8.324
						c-10.565-6.167-22.329-10.505-34.536-12.759c-6.093-1.131-12.346-1.253-18.503-0.857c-6.168,0.393-12.239,1.288-18.277,2.157
						c-12.038,1.732-24.088,4.677-35.209,10.024c-5.549,2.665-11.052,5.476-16.357,8.698c-5.302,3.218-10.405,6.849-15.013,11.048
						c-4.539,4.134-8.447,8.915-11.921,13.936c-3.48,5.027-6.53,10.29-9.504,15.57c-2.979,5.285-5.988,10.594-8.578,16.173
						c-2.586,5.567-4.741,11.409-5.924,17.478c-1.18,6.058-2.159,12.174-2.639,18.359c-0.48,6.18-0.457,12.429,0.351,18.577
						c0.405,3.067,1.126,6.087,2.058,9.03l0.747,2.231c0.132,0.37,0.275,0.809,0.401,1.119l0.383,0.944l0.048,0.118l0.024,0.059
						c-0.003-0.018,0.04,0.18,0.023,0.1l0.003,0.009l0.007,0.017l0.013,0.034l0.107,0.268l0.215,0.536l0.44,1.066l0.915,2.115
						c2.504,5.615,5.42,10.931,8.022,16.304c2.344,4.833,4.239,9.91,6.559,14.883c2.308,4.958,5.042,9.809,8.777,13.801
						c3.735,3.991,8.4,7.036,13.151,9.644c4.764,2.621,9.61,4.809,14.07,7.407c4.457,2.596,8.592,5.702,12.997,8.547
						c4.389,2.835,9.053,5.395,14.108,6.692c5.051,1.297,10.256,1.836,15.39,2.011c5.142,0.176,10.209,0.006,15.205-0.086
						c5.005-0.091,9.963-0.967,14.755-2.153c4.8-1.184,9.441-2.657,14.051-3.947c1.383-0.388,1.894-1.463,1.683-2.32
						c-0.184-0.873-1.17-1.509-2.479-1.183c-4.975,1.242-10.167,1.63-15.287,1.564c-5.135-0.063-10.216-0.569-15.275-1.069
						c-5.057-0.5-10.209-0.656-15.409-1.268c-5.184-0.606-10.41-1.68-15.175-3.885c-4.765-2.203-8.984-5.465-12.824-8.979
						c-3.854-3.525-7.334-7.295-10.985-10.758c-7.288-6.906-14.146-14.434-18.9-23.279c-2.368-4.408-4.13-9.106-5.498-13.856
						c-1.371-4.755-2.351-9.561-3.231-14.338c-1.772-9.603-1.388-19.332-0.269-28.662c0.559-4.681,1.119-9.341,2.02-13.963
						c0.898-4.615,2.145-9.188,4.027-13.498c1.882-4.308,3.796-8.587,6.011-12.733c2.211-4.141,4.731-8.144,7.729-11.76
						c3.037-3.666,6.707-6.772,10.522-9.545c3.823-2.782,7.779-5.24,11.602-7.827c7.661-5.176,16.153-8.961,24.892-11.943
						c8.783-3.001,18.057-4.582,27.395-5.391c4.681-0.405,9.445-0.854,14.326-1.013c4.874-0.158,9.866-0.022,14.811,0.72
						c9.958,1.497,19.286,5.766,27.904,11.078c4.344,2.674,8.831,5.279,13.094,8.339c4.255,3.05,8.281,6.557,11.455,10.771
						c6.35,8.43,10.883,18.119,13.954,28.124c3.076,10.011,3.753,20.551,3.579,30.798c-0.154,9.193-1.313,18.334-3.828,27.092
						c-2.509,8.776-6.382,17.061-10.95,24.845c-4.588,7.814-10.464,14.754-16.755,21.192c-6.277,6.42-12.919,12.786-20.76,17.67
						c-7.819,4.87-16.535,8.132-25.396,11.116C404.397,494.858,404.84,496.568,405.764,496.342z"/>
				</g>
			</g>
		</g>
	</g>
</g>
</svg>
