<?xml version="1.0" encoding="utf-8"?>
<!-- Generator: Adobe Illustrator 15.0.0, SVG Export Plug-In . SVG Version: 6.00 Build 0)  -->
<!DOCTYPE svg PUBLIC "-//W3C//DTD SVG 1.1//EN" "http://www.w3.org/Graphics/SVG/1.1/DTD/svg11.dtd">
<svg version="1.1" id="Layer_1" xmlns="http://www.w3.org/2000/svg" xmlns:xlink="http://www.w3.org/1999/xlink" x="0px" y="0px"
	 width="595.28px" height="595.28px" viewBox="0 0 595.28 595.28" enable-background="new 0 0 595.28 595.28" xml:space="preserve">
<g>
	<g>
		<g>
			<path d="M152.498,287.038c0.966,3.068,2.927,5.787,5.499,7.641c2.555,1.881,5.73,2.791,8.9,2.972
				c3.172,0.172,6.369-0.499,9.202-1.894c2.835-1.392,5.303-3.506,7.095-6.091c1.813-2.574,2.857-5.631,3.312-8.785
				c0.45-3.145,0.254-6.38-0.588-9.447c-1.651-6.149-5.93-11.553-11.592-14.519c-2.817-1.496-5.972-2.379-9.163-2.803
				c-3.194-0.411-6.453-0.298-9.611,0.339c-6.322,1.255-12.217,4.622-16.505,9.474c-2.154,2.415-3.898,5.196-5.168,8.186
				c-1.26,3.006-2.069,6.192-2.493,9.442c-0.846,6.496,0.071,13.235,2.617,19.341c2.531,6.1,6.714,11.565,12.046,15.615
				c2.663,2.025,5.601,3.706,8.716,4.972c3.112,1.262,6.386,2.147,9.704,2.71c6.646,1.117,13.545,0.825,20.104-0.868
				c6.563-1.678,12.78-4.727,18.158-8.891c5.365-4.13,9.884-9.476,13.124-15.566c1.633-3.058,2.906-6.25,3.896-9.579
				c0.985-3.299,1.706-6.689,2.131-10.125c1.757-13.76-1.347-28.138-8.497-40.18c-7.293-12.419-18.724-22.389-32.453-27.757
				c-13.367-5.27-28.577-6.945-43.352-3.977c-14.812,2.922-28.88,10.069-40.121,20.529c-5.615,5.23-10.52,11.276-14.494,17.909
				c-1.989,3.314-3.748,6.774-5.249,10.344c-1.513,3.577-2.731,7.231-3.755,10.859c-4.137,14.619-4.623,30.393-1.622,45.397
				c2.995,15.027,9.39,29.268,18.309,41.567c8.902,12.32,20.591,22.672,33.998,29.951c3.348,1.822,6.797,3.46,10.324,4.9
				c1.773,0.724,3.527,1.383,5.37,2.015c1.796,0.616,3.563,1.167,5.357,1.692c7.167,2.086,14.532,3.546,21.977,4.331
				c14.604,1.554,29.509,0.36,43.704-3.344c14.209-3.688,27.704-9.872,39.814-18.029c11.698-7.878,22.233-17.429,30.933-28.552
				c8.722-11.088,15.538-23.772,19.841-37.328l0.169-0.533l0.142-0.688l0.509-2.482c2.56-12.038,6.929-23.722,13.158-34.416
				c6.21-10.694,14.284-20.374,23.809-28.327c9.517-7.959,20.339-14.388,31.932-18.903c11.589-4.519,23.94-7.129,36.407-7.611
				c6.233-0.241,12.492,0.072,18.681,0.921c1.534,0.206,3.121,0.46,4.598,0.726l2.33,0.441l2.243,0.481
				c2.982,0.68,5.925,1.513,8.814,2.493c11.567,3.914,22.246,10.219,31.4,18.298c9.158,8.076,16.723,18.042,21.999,29.163
				c5.29,11.11,8.263,23.365,8.552,35.746c0.151,6.182-0.293,12.395-1.34,18.507c-1.026,5.995-2.796,11.864-5.305,17.431
				c-4.993,11.137-13.023,21.03-23.152,28.229c-10.099,7.222-22.283,11.613-34.728,12.671c-6.216,0.541-12.539,0.258-18.662-0.777
				c-6.146-1.013-11.944-2.92-17.4-5.699c-12.433-6.296-22.489-17.247-27.671-30.375c-2.605-6.547-4.003-13.605-4.052-20.728
				c-0.025-3.558,0.276-7.144,0.915-10.66c0.63-3.47,1.649-6.878,3.075-10.123c2.827-6.507,7.207-12.342,12.665-16.938
				c5.45-4.609,11.989-7.945,18.95-9.685c6.949-1.748,14.375-1.852,21.401-0.309c6.964,1.562,13.477,5.181,18.51,10.352
				c5.043,5.144,8.599,11.82,10.016,18.979c0.716,3.576,0.905,7.264,0.564,10.913c-0.332,3.65-1.183,7.229-2.704,10.522
				c-2.997,6.616-8.506,12.072-15.172,15.058c-6.624,3.024-14.443,3.56-21.356,1.384c-6.872-2.203-12.606-7.685-15.185-14.49
				c-1.306-3.39-1.845-7.076-1.559-10.715c0.258-3.653,1.401-7.189,3.492-10.188c2.065-2.994,4.989-5.403,8.344-6.875
				c3.351-1.477,7.132-2.001,10.777-1.471c3.652,0.474,7.102,2.243,9.607,4.967c2.515,2.705,4.061,6.315,4.246,10.035
				c0.102,2.418-0.197,3.726-0.114,3.813c0.014,0.077,0.483-1.087,0.418-3.737c-0.131-3.372-1.348-6.686-3.415-9.347
				c-2.055-2.673-4.959-4.674-8.183-5.641c-3.232-0.941-6.706-1.022-9.988-0.286c-3.284,0.734-6.374,2.301-8.914,4.502
				c-2.545,2.196-4.527,5.033-5.711,8.174c-1.183,3.143-1.565,6.563-1.361,9.908c0.422,6.715,3.662,13.174,8.744,17.555
				c2.529,2.198,5.5,3.882,8.68,4.92c3.181,1.033,6.561,1.442,9.901,1.374c6.697-0.145,13.301-2.51,18.575-6.597
				c5.297-4.061,9.232-9.834,11.06-16.228c1.787-6.409,1.848-13.304,0.254-19.763c-1.59-6.467-4.849-12.506-9.365-17.378
				c-4.506-4.882-10.262-8.583-16.561-10.635c-3.139-1.036-6.432-1.637-9.738-1.94c-3.31-0.3-6.646-0.264-9.943,0.11
				c-6.598,0.739-13.022,2.857-18.777,6.135c-5.761,3.272-10.841,7.72-14.825,12.987c-3.994,5.261-6.884,11.335-8.455,17.731
				c-3.102,12.859-1.81,26.72,3.553,38.776c5.3,12.078,14.515,22.442,26.023,28.98c5.736,3.278,12.035,5.606,18.518,6.868
				c6.548,1.278,13.23,1.694,19.854,1.205c13.255-0.957,26.095-5.695,36.838-13.228c10.777-7.516,19.457-17.775,25.243-29.44
				c2.898-5.832,5.084-12.02,6.487-18.397c1.395-6.41,2.166-13.002,2.249-19.593c0.188-13.185-2.436-26.477-7.856-38.549
				c-5.401-12.068-13.317-22.981-23.087-31.843c-9.759-8.874-21.365-15.683-33.876-19.856c-3.127-1.047-6.312-1.924-9.533-2.63
				c-1.617-0.356-3.216-0.657-4.882-0.941c-1.61-0.276-3.27-0.518-4.909-0.725c-6.58-0.835-13.226-1.109-19.84-0.834
				c-13.233,0.544-26.327,3.31-38.666,8.004c-12.34,4.684-23.878,11.486-33.985,19.972c-10.114,8.481-18.793,18.643-25.611,29.92
				c-7.183,11.857-12.107,25.084-14.639,38.731l-0.034,0.183l-0.07,0.228c-3.92,12.692-9.961,24.78-17.939,35.41
				c-8.392,11.227-18.905,20.767-30.681,28.158c-11.779,7.406-24.796,12.7-38.315,15.783c-13.516,3.097-27.597,3.947-41.42,2.325
				c-6.91-0.807-13.749-2.222-20.402-4.226c-6.679-1.988-13.168-4.73-19.226-8.169c-12.145-6.878-22.334-16.721-29.87-28.084
				c-7.563-11.378-12.542-24.234-14.982-37.55c-2.459-13.325-1.96-27.146,1.44-40.188c1.682-6.527,4.083-12.853,7.37-18.702
				c3.27-5.852,7.346-11.236,12.073-15.945c9.441-9.437,21.448-16.198,34.308-19.372c12.853-3.215,26.522-2.777,39.046,1.193
				c7.172,2.218,13.873,5.78,19.652,10.503c5.781,4.712,10.621,10.561,14.166,17.104c3.551,6.538,5.806,13.766,6.572,21.13
				c0.778,7.363,0.057,14.852-2.074,21.89c-2.06,6.988-5.763,13.357-10.777,18.493c-4.994,5.141-11.243,9.006-18,11.21
				c-6.756,2.214-14.011,2.744-20.958,1.551c-1.736-0.301-3.454-0.704-5.143-1.205c-0.843-0.252-1.682-0.523-2.511-0.834
				c-0.747-0.273-1.583-0.623-2.349-0.975c-3.119-1.43-6.005-3.33-8.54-5.617c-4.861-4.367-8.392-10.143-10.101-16.39
				c-1.731-6.247-1.609-12.939,0.324-19.114c1.834-5.99,5.839-11.225,11.17-14.556c5.309-3.351,11.835-4.75,18.107-3.792
				c1.556,0.233,3.177,0.62,4.615,1.117c1.457,0.509,2.858,1.177,4.17,1.997c2.62,1.644,4.895,3.888,6.576,6.551
				c1.686,2.658,2.784,5.719,3.147,8.892c0.372,3.149,0.008,6.499-1.051,9.49c-1.068,2.962-3.013,5.63-5.579,7.591
				c-2.554,1.971-5.714,3.229-9.01,3.513c-3.277,0.267-6.772-0.326-9.603-2.007c-2.857-1.681-5.125-4.467-6.205-7.732
				c-0.878-2.671-0.837-4.87-0.709-6.289c0.143-1.432,0.345-2.144,0.279-2.156c-0.037-0.009-0.345,0.678-0.602,2.143
				C151.78,281.888,151.616,284.191,152.498,287.038z"/>
		</g>
		<g>
			<path d="M166.998,297.602c6.407,0.33,12.76-2.906,16.264-8.147c0.884-1.295,1.602-2.721,2.124-4.186
				c0.531-1.502,0.901-3.055,1.116-4.629c0.433-3.148,0.209-6.382-0.645-9.449c-1.683-6.146-5.982-11.562-11.7-14.54
				c-5.725-2.94-12.622-3.751-19.031-2.369c-6.442,1.372-12.411,4.95-16.661,10.026c-2.134,2.528-3.831,5.426-5.025,8.521
				c-1.173,3.104-1.924,6.39-2.237,9.708c-0.635,6.643,0.555,13.461,3.398,19.532c2.824,6.078,7.292,11.406,12.838,15.23
				c5.532,3.882,12.174,6.019,18.89,6.811c6.737,0.792,13.651,0.063,20.102-2.057c6.454-2.117,12.439-5.625,17.443-10.197
				c5.008-4.57,9.028-10.198,11.736-16.398c5.315-12.427,6.119-26.745,2.277-39.811c-3.779-13.08-12.177-24.859-23.52-32.636
				c-22.832-15.387-54.65-15.348-78.271-0.743c-11.861,7.208-21.504,17.916-27.561,30.293c-3.067,6.179-5.165,12.781-6.595,19.461
				c-1.437,6.692-2.16,13.524-2.192,20.356c-0.069,13.659,2.618,27.378,8.133,39.993c5.491,12.604,13.84,24.079,24.436,32.979
				c10.575,8.934,23.344,15.075,36.618,18.292c13.261,3.325,26.984,4.347,40.518,3.313c13.535-1.02,26.963-4.139,39.527-9.518
				c12.556-5.358,24.224-13.003,33.989-22.619c13.648-13.392,23.477-30.386,28.891-48.523l0.007-0.024l0.002-0.014
				c1.437-8.062,3.705-15.993,6.819-23.59c5.173-12.638,12.644-24.325,21.82-34.416c9.173-10.103,20.03-18.622,31.915-25.25
				c11.881-6.634,24.836-11.371,38.252-13.838c13.408-2.476,27.269-2.674,40.773-0.502c13.526,2.063,26.597,7.101,38.004,14.608
				c11.428,7.489,21.202,17.364,28.72,28.689c7.532,11.326,12.726,24.222,15.047,37.653c2.331,13.421,1.828,27.367-1.604,40.579
				c-3.515,13.189-10.48,25.446-20.108,35.178c-9.596,9.751-21.814,16.967-35.093,20.564c-13.157,3.589-27.259,3.64-40.428,0.118
				c-13.173-3.597-25.027-11.62-33.332-22.383c-8.384-10.763-13.192-24.259-13.391-37.914c-0.058-3.41,0.162-6.825,0.65-10.201
				c0.479-3.363,1.255-6.739,2.377-9.97c2.231-6.481,5.796-12.509,10.421-17.586c4.623-5.09,10.299-9.239,16.572-12.111
				c6.271-2.878,13.14-4.46,20.042-4.615c3.451-0.08,6.907,0.192,10.303,0.803c3.403,0.598,6.75,1.624,9.904,3.051
				c6.319,2.848,11.873,7.33,16.017,12.854c8.346,11.014,10.82,26.155,5.783,39.096c-2.592,6.42-7.261,11.992-13.168,15.684
				c-5.885,3.721-13.003,5.544-20.026,5.023c-3.49-0.251-7.008-1.026-10.25-2.548c-3.236-1.498-6.169-3.657-8.569-6.301
				c-4.832-5.267-7.424-12.524-6.978-19.647c0.199-3.544,1.094-7.114,2.892-10.232c1.769-3.118,4.322-5.768,7.343-7.649
				c6.023-3.779,13.94-4.456,20.299-1.211c3.403,1.782,5.6,4.358,6.875,6.436c1.284,2.103,1.757,3.721,1.978,4.276
				c0.188,0.572,0.212,0.091-0.333-1.624c-0.286-0.851-0.751-2.003-1.589-3.374c-0.84-1.36-2.066-2.949-3.926-4.45
				c-1.74-1.402-3.754-2.471-5.896-3.135c-2.161-0.659-4.34-0.927-6.563-0.902c-4.43,0.06-8.835,1.506-12.472,4.077
				c-3.646,2.556-6.521,6.24-8.094,10.453c-0.799,2.115-1.242,4.318-1.45,6.506c-0.211,2.203-0.148,4.438,0.173,6.637
				c0.642,4.4,2.367,8.647,4.98,12.281c2.606,3.638,6.108,6.661,10.143,8.701c2.014,1.026,4.159,1.799,6.361,2.319l0.852,0.185
				l0.762,0.148c0.575,0.103,1.136,0.189,1.681,0.263c1.104,0.145,2.216,0.237,3.331,0.276c4.462,0.162,8.973-0.565,13.188-2.122
				c8.442-3.08,15.644-9.54,19.581-17.737c0.991-2.041,1.779-4.183,2.359-6.377c0.289-1.071,0.533-2.268,0.71-3.267
				c0.203-1.16,0.34-2.23,0.453-3.352c0.429-4.446,0.165-8.972-0.787-13.354c-1.883-8.776-6.569-16.932-13.22-23.03
				c-3.322-3.051-7.125-5.592-11.232-7.492c-4.081-1.908-8.566-3.146-12.936-3.744c-8.726-1.263-17.783-0.329-26.088,2.702
				c-8.309,3.02-15.858,8.095-21.808,14.667c-5.963,6.558-10.287,14.628-12.462,23.254c-2.114,8.574-2.514,17.449-1.201,26.181
				c1.309,8.707,4.393,17.146,8.979,24.666c4.579,7.526,10.652,14.141,17.771,19.343c7.112,5.211,15.271,8.986,23.821,11.081
				c8.526,2.044,17.225,2.711,25.92,2.085c14.746-1.062,29.24-5.984,41.629-14.286c12.395-8.265,22.664-19.971,29.017-33.662
				c3.184-6.811,5.432-14.149,6.688-21.482c1.29-7.323,1.797-14.771,1.498-22.208c-0.582-14.874-4.414-29.601-11.053-42.938
				c-6.621-13.353-16.219-25.241-27.862-34.609c-11.634-9.39-25.315-16.209-39.757-20.018c-1.806-0.479-3.623-0.909-5.449-1.292
				l-2.682-0.531c-0.938-0.176-1.856-0.337-2.757-0.486c-3.634-0.599-7.294-1.055-10.971-1.347
				c-7.354-0.596-14.767-0.562-22.13,0.096c-14.729,1.31-29.249,5.172-42.721,11.365c-13.471,6.18-25.979,14.521-36.798,24.771
				c-10.819,10.236-19.933,22.402-26.57,35.867c-5.048,10.227-8.779,21.116-11.071,32.294l0.283-1.113
				c-4.769,14.399-12.615,27.659-22.885,38.637c-8.391,9.003-18.307,16.573-29.228,22.224c-10.918,5.645-22.829,9.368-34.989,10.822
				c-12.152,1.46-24.52,0.965-36.491-1.643c-2.991-0.651-5.958-1.426-8.888-2.336l-1.081-0.341l-1.095-0.362
				c-0.644-0.216-1.391-0.48-2.076-0.733c-1.398-0.514-2.782-1.063-4.148-1.652c-5.464-2.358-10.653-5.329-15.42-8.864
				c-9.555-7.053-17.355-16.364-22.823-26.802c-5.494-10.443-8.644-21.986-9.451-33.635c-0.406-5.829-0.171-11.695,0.661-17.484
				c0.416-2.895,0.986-5.771,1.715-8.614c0.362-1.417,0.769-2.844,1.202-4.227c0.425-1.356,0.889-2.662,1.403-3.986
				c4.052-10.526,11.069-19.861,20.104-26.716c9.134-6.956,20.347-11.009,31.643-11.823c5.655-0.406,11.342-0.051,16.89,1.058
				c2.771,0.549,5.524,1.29,8.203,2.193c2.471,0.835,4.997,1.922,7.349,3.17c9.47,4.986,17.255,13.326,21.556,23.382
				c2.163,5.01,3.447,10.41,3.773,15.88c0.164,2.735,0.085,5.489-0.238,8.222c-0.162,1.366-0.382,2.728-0.666,4.08
				c-0.141,0.676-0.296,1.35-0.467,2.021l-0.266,1.004l-0.254,0.894l-0.363,1.143c-0.098,0.273-0.155,0.49-0.278,0.814
				c-0.22,0.613-0.451,1.223-0.704,1.823c-0.5,1.202-1.063,2.378-1.686,3.522c-1.243,2.291-2.743,4.446-4.455,6.438
				c-3.417,3.988-7.754,7.266-12.612,9.516c-4.854,2.266-10.233,3.456-15.649,3.46c-2.709,0-5.429-0.297-8.105-0.893l-1.001-0.236
				l-0.498-0.133l-0.249-0.065l-0.125-0.033l-0.063-0.017l-0.031-0.008l-0.016-0.005c-0.03-0.009,0.209,0.068,0.099,0.033
				l-1.12-0.34l-0.385-0.12l-0.454-0.157c-1.219-0.419-2.399-0.938-3.549-1.518c-4.586-2.35-8.556-5.99-11.348-10.469
				c-2.789-4.473-4.417-9.733-4.526-15.095c-0.066-2.681,0.241-5.383,0.904-8.03c0.629-2.558,1.623-4.884,3.014-7.066
				c2.757-4.341,7.118-7.789,12.183-9.508c2.527-0.862,5.211-1.314,7.922-1.301c2.703,0.019,5.498,0.485,7.939,1.395
				c4.871,1.799,9.019,5.832,10.998,10.954c0.991,2.549,1.454,5.332,1.306,8.126c-0.068,1.398-0.285,2.797-0.652,4.18
				c-0.334,1.277-0.861,2.562-1.539,3.74c-1.358,2.371-3.396,4.399-5.852,5.817c-2.454,1.417-5.326,2.197-8.248,2.171
				c-1.922-0.014-3.81-0.357-5.354-0.906c-1.57-0.561-2.926-1.385-4.043-2.32c-2.247-1.883-3.516-4.144-4.188-6.024
				c-0.673-1.901-0.81-3.448-0.861-4.458c-0.041-1.017-0.008-1.52-0.072-1.499c-0.054,0.021-0.202,0.567-0.278,1.654
				c-0.066,1.081-0.044,2.729,0.55,4.794c0.596,2.042,1.819,4.537,4.174,6.7c1.171,1.073,2.621,2.043,4.333,2.737
				C162.889,297.053,164.888,297.501,166.998,297.602z"/>
		</g>
	</g>
</g>
</svg>
