<?xml version="1.0" encoding="utf-8"?>
<!-- Generator: Adobe Illustrator 15.0.0, SVG Export Plug-In . SVG Version: 6.00 Build 0)  -->
<!DOCTYPE svg PUBLIC "-//W3C//DTD SVG 1.1//EN" "http://www.w3.org/Graphics/SVG/1.1/DTD/svg11.dtd">
<svg version="1.1" id="Layer_1" xmlns="http://www.w3.org/2000/svg" xmlns:xlink="http://www.w3.org/1999/xlink" x="0px" y="0px"
	 width="595.28px" height="595.28px" viewBox="0 0 595.28 595.28" enable-background="new 0 0 595.28 595.28" xml:space="preserve">
<g>
	<circle fill="#FFFFFF" cx="297.64" cy="297.64" r="181"/>
	<g>
		<g>
			<g>
				<path d="M475.898,296.349c-0.284-16.221-3.612-32.158-7.92-47.578c-4.326-15.5-11.131-30.24-19.272-44.079
					c-4.072-6.928-8.111-13.923-12.649-20.686c-4.528-6.755-9.549-13.283-15.38-19.057c-5.825-5.771-11.658-11.583-17.913-17.05
					c-6.247-5.458-12.926-10.559-20.221-14.703c-14.604-8.312-30.626-13.996-46.98-18.141c-8.193-2.072-16.574-3.49-25.021-4.32
					c-2.111-0.213-4.229-0.385-6.348-0.525c-2.094-0.147-4.339-0.245-6.33-0.328c-4.321-0.148-8.528-0.182-12.807-0.096
					c-8.533,0.164-17.043,1.669-25.35,3.729c-8.319,2.072-16.433,4.701-24.566,7.16c-8.13,2.462-16.424,4.599-24.661,7.351
					c-8.22,2.743-16.366,6.13-23.76,10.87c-7.39,4.737-14.202,10.388-20.559,16.466c-6.366,6.082-12.287,12.58-18.091,19.158
					c-13.169,14.914-23.91,32.156-31.588,50.746c-3.839,9.272-6.451,19.032-8.243,28.878c-1.797,9.856-2.792,19.794-3.51,29.714
					c-1.433,19.797-0.518,39.952,4.118,59.433c2.311,9.732,5.068,19.378,8.545,28.804c3.474,9.42,7.667,18.62,12.774,27.3
					c5.028,8.548,11.069,16.47,17.653,23.833c6.588,7.372,13.717,14.188,21.067,20.719c7.357,6.539,14.917,12.9,22.984,18.668
					c8.058,5.762,16.631,10.918,25.751,14.913c9.111,3.989,18.442,7.532,28.025,10.323c9.577,2.792,19.406,4.826,29.338,5.786
					c4.955,0.476,9.937,0.563,14.892,0.358c1.252-0.059,2.445-0.116,3.75-0.209c0.625-0.046,1.318-0.085,1.884-0.14l1.71-0.167
					l0.214-0.021l0.107-0.01l0.108-0.002l0.014-0.001l0.029-0.003l0.058-0.006l0.461-0.049l0.922-0.098l1.842-0.208
					c1.227-0.144,2.45-0.306,3.672-0.477c9.782-1.372,19.352-3.493,28.871-5.579c8.566-1.883,17.25-3.503,25.845-5.792
					c8.578-2.279,17.066-5.223,24.808-9.525c7.741-4.306,14.628-9.919,20.98-15.895c6.367-5.984,12.201-12.332,18.219-18.401
					c6.016-6.066,12.329-11.9,18.264-18.207c5.922-6.294,11.453-13.069,15.624-20.594c4.168-7.521,7.428-15.466,10.104-23.517
					c2.68-8.058,4.801-16.212,6.758-24.362c1.962-8.159,2.926-16.495,3.315-24.774c0.396-8.286,0.251-16.515,0.046-24.691
					c-0.062-2.457-1.009-3.684-1.889-3.646c-0.896,0.007-1.721,1.363-1.705,3.737c0.067,8.9-1.028,17.826-2.838,26.534
					c-1.809,8.723-4.322,17.249-7.1,25.663c-2.777,8.413-5.516,16.901-8.964,25.205c-3.44,8.289-7.602,16.388-12.998,23.623
					c-5.394,7.236-11.935,13.536-18.84,19.213c-6.919,5.687-14.196,10.76-21.388,15.839c-14.363,10.15-29.932,18.831-46.718,24.067
					c-8.375,2.614-16.993,4.299-25.63,5.306c-8.644,1.009-17.303,1.343-25.928,1.304c-17.303-0.076-34.294-3.412-50.441-8.511
					c-8.091-2.551-16.092-5.379-23.864-8.797c-7.766-3.413-15.297-7.421-22.271-12.231c-6.975-4.81-13.763-9.889-20.168-15.445
					c-6.402-5.551-12.409-11.591-17.716-18.19c-5.379-6.688-9.854-14.062-13.718-21.662c-3.872-7.608-7.149-15.433-10.307-23.27
					c-6.311-15.678-9.979-32.351-11.615-49.16c-1.651-16.858-0.644-34.025,2.294-50.766c1.471-8.385,3.204-16.789,5.519-25.131
					c2.313-8.335,5.207-16.608,8.936-24.552c7.5-15.98,18.557-30.113,31.26-42.465c6.391-6.223,12.931-12.374,20.026-17.962
					c7.082-5.583,14.721-10.601,22.997-14.373c16.555-7.542,34.444-11.955,52.477-13.692c18.007-1.735,36.158,0.128,53.66,3.93
					c15.681,3.406,30.909,8.72,45.039,16.129c14.159,7.404,27.108,16.892,38.789,27.639c11.708,10.774,21.65,23.319,30.212,36.66
					c8.541,13.318,16.151,27.477,21.135,42.768c4.977,15.248,7.272,31.319,8.323,47.462
					C474.161,298.102,475.926,297.983,475.898,296.349z"/>
			</g>
		</g>
	</g>
</g>
</svg>
