<?xml version="1.0" encoding="utf-8"?>
<!-- Generator: Adobe Illustrator 15.0.0, SVG Export Plug-In . SVG Version: 6.00 Build 0)  -->
<!DOCTYPE svg PUBLIC "-//W3C//DTD SVG 1.1//EN" "http://www.w3.org/Graphics/SVG/1.1/DTD/svg11.dtd">
<svg version="1.1" id="Layer_1" xmlns="http://www.w3.org/2000/svg" xmlns:xlink="http://www.w3.org/1999/xlink" x="0px" y="0px"
	 width="595.28px" height="595.28px" viewBox="0 0 595.28 595.28" enable-background="new 0 0 595.28 595.28" xml:space="preserve">
<g>
	<g>
		<circle fill="#FFFFFF" cx="297.64" cy="293.323" r="181"/>
		<g>
			<g>
				<g>
					<path d="M469.129,341.995c4.27-15.651,5.537-31.883,5.719-47.893c0.188-16.091-2.219-32.146-6.159-47.712
						c-1.969-7.792-3.889-15.637-6.352-23.4c-2.456-7.753-5.448-15.425-9.429-22.601c-3.976-7.171-7.948-14.385-12.423-21.383
						c-4.469-6.989-9.452-13.756-15.295-19.777c-11.693-12.068-25.481-22.011-40.021-30.569
						c-7.286-4.283-14.935-7.991-22.812-11.153c-1.968-0.795-3.951-1.553-5.946-2.282c-1.969-0.727-4.098-1.45-5.985-2.086
						c-4.106-1.352-8.135-2.563-12.268-3.678c-8.237-2.232-16.829-3.169-25.38-3.518c-8.566-0.34-17.091-0.089-25.588-0.005
						c-8.495,0.087-17.056-0.184-25.733,0.152c-8.659,0.333-17.428,1.302-25.854,3.783c-8.42,2.479-16.542,5.997-24.347,10.051
						c-7.814,4.056-15.317,8.637-22.731,13.326c-16.818,10.63-31.958,24.176-44.533,39.872
						c-6.282,7.827-11.522,16.464-15.999,25.415c-4.485,8.958-8.223,18.22-11.69,27.542c-6.919,18.604-11.684,38.208-12.688,58.208
						c-0.507,9.989-0.561,20.022,0.138,30.044c0.697,10.016,2.146,20.021,4.619,29.784c2.434,9.614,6.015,18.909,10.274,27.822
						c4.26,8.922,9.196,17.462,14.423,25.789c5.231,8.337,10.708,16.56,16.837,24.356c6.123,7.787,12.909,15.138,20.546,21.526
						c7.629,6.38,15.595,12.394,24.014,17.757c8.412,5.361,17.279,10.066,26.544,13.769c4.624,1.845,9.381,3.323,14.196,4.515
						c1.219,0.294,2.38,0.572,3.659,0.849c0.612,0.132,1.289,0.288,1.848,0.394l1.688,0.319l0.211,0.039l0.105,0.02l0.104,0.029
						l0.015,0.003l0.028,0.005l0.057,0.011l0.457,0.082l0.912,0.165l1.827,0.315c1.218,0.205,2.438,0.393,3.659,0.571
						c9.775,1.421,19.556,2.065,29.278,2.728c8.75,0.592,17.541,1.468,26.432,1.677c8.874,0.213,17.847-0.235,26.483-2.199
						c8.637-1.965,16.819-5.426,24.591-9.383c7.788-3.963,15.166-8.424,22.643-12.564c7.474-4.14,15.168-7.973,22.632-12.365
						c7.447-4.384,14.653-9.34,20.765-15.396c6.106-6.053,11.461-12.768,16.284-19.747c4.828-6.985,9.148-14.219,13.31-21.495
						c4.167-7.284,7.427-15.017,10.119-22.855c2.7-7.843,4.865-15.784,6.957-23.69c0.629-2.375,0.063-3.818-0.792-4.029
						c-0.861-0.244-2.033,0.827-2.683,3.109c-2.428,8.563-5.979,16.825-10.153,24.679c-4.18,7.868-8.98,15.35-14.003,22.648
						c-5.021,7.299-10.026,14.682-15.662,21.688c-5.623,6.994-11.885,13.604-19.092,19.039c-7.204,5.437-15.247,9.652-23.466,13.169
						c-8.234,3.521-16.641,6.354-24.967,9.217c-16.631,5.723-34.008,9.697-51.588,10.024c-8.772,0.163-17.518-0.632-26.091-2.084
						c-8.579-1.452-16.986-3.556-25.255-6.009c-16.59-4.918-31.967-12.877-46.041-22.293c-7.053-4.714-13.943-9.67-20.447-15.126
						c-6.499-5.451-12.607-11.407-17.955-17.979c-5.349-6.57-10.444-13.347-15.038-20.474c-4.591-7.122-8.667-14.603-11.914-22.424
						c-3.292-7.926-5.523-16.258-7.104-24.636c-1.587-8.389-2.542-16.817-3.379-25.225c-1.669-16.818-0.521-33.851,2.614-50.446
						c3.136-16.646,8.91-32.844,16.417-48.093c3.76-7.638,7.777-15.22,12.334-22.581c4.554-7.354,9.649-14.486,15.453-21.068
						c11.674-13.241,26.246-23.712,41.899-32.013c7.877-4.185,15.878-8.259,24.254-11.637c8.362-3.377,17.1-6.056,26.101-7.358
						c18.004-2.604,36.413-1.833,54.212,1.549c17.772,3.376,34.676,10.247,50.413,18.797c14.1,7.66,27.231,17.025,38.721,28.095
						c11.521,11.072,21.295,23.806,29.499,37.394c8.224,13.621,14.255,28.449,18.739,43.653c4.47,15.177,7.812,30.9,8.314,46.976
						c0.508,16.03-1.788,32.102-5.299,47.894C466.971,343.191,468.697,343.571,469.129,341.995z"/>
				</g>
			</g>
		</g>
	</g>
	<g>
		<g>
			<g>
				<g>
					<path d="M319.605,312.053c-3.137-0.352-6.411,0.252-9.281,1.762c-2.869,1.486-5.321,3.932-6.835,6.873
						c-1.595,3.152-2.405,6.715-2.27,10.333c0.127,3.611,1.215,7.249,3.172,10.402c1.952,3.162,4.702,5.854,7.978,7.745
						c3.275,1.867,7.104,3.078,10.969,3.514c7.772,0.903,16.051-1.448,22.354-6.632c3.15-2.568,5.788-5.838,7.677-9.531
						c1.873-3.702,3.101-7.742,3.689-11.892c1.189-8.311-0.389-17.02-4.303-24.594c-3.879-7.573-10.448-13.926-18.478-17.683
						c-7.847-3.692-16.764-5.367-25.579-4.87c-9.063,0.485-18.059,3.108-26.026,7.941c-7.948,4.813-14.822,11.953-19.173,20.709
						l-0.813,1.71l-0.33,0.722l-0.082,0.181l-0.125,0.295l-0.176,0.411c-0.466,1.097-0.904,2.207-1.313,3.33
						c-0.819,2.245-1.523,4.54-2.104,6.873c-1.162,4.664-1.834,9.475-1.98,14.319c-0.302,9.69,1.517,19.5,5.333,28.529
						c3.811,9.047,9.851,17.219,17.313,23.722c3.73,3.256,7.807,6.107,12.112,8.516c4.295,2.417,8.89,4.364,13.35,5.91
						c9.027,3.151,18.628,4.816,28.267,4.818c9.637,0.011,19.302-1.634,28.437-4.88c8.96-3.179,17.36-7.995,24.736-14.053
						c7.385-6.056,13.737-13.353,18.841-21.413c1.274-2.019,2.495-4.069,3.639-6.16c0.572-1.046,1.132-2.099,1.669-3.163
						c0.539-1.069,1.049-2.111,1.586-3.278c1.92-4.144,3.678-8.529,5.115-12.97c2.896-8.9,4.625-18.321,4.628-27.857
						c0.006-9.536-1.525-19.075-4.272-28.193c-2.746-9.128-6.695-17.839-11.5-26.004c-9.601-16.373-23.882-29.95-40.525-39.078
						c-4.152-2.286-8.447-4.372-12.801-6.176c-4.272-1.783-8.638-3.378-13.089-4.74c-8.895-2.726-18.149-4.5-27.499-4.985
						c-18.721-0.982-37.489,2.602-54.749,9.461c-8.646,3.425-16.762,8.022-24.252,13.395c-7.499,5.374-14.376,11.516-20.749,18.139
						c-6.363,6.611-12.376,13.681-17.593,21.372c-2.604,3.843-5.003,7.835-7.131,11.962c-1.063,2.063-2.06,4.159-2.979,6.284
						c-0.456,1.048-0.962,2.286-1.308,3.177c-0.441,1.138-0.818,2.139-1.197,3.226c-3.443,9.751-5.555,19.861-6.653,29.993
						c-1.101,10.143-1.201,20.305-0.667,30.438c1.066,20.304,6.343,40.063,14.969,58.111c4.305,9.017,9.285,17.78,15.088,25.974
						c5.796,8.188,12.421,15.799,19.823,22.402c14.766,13.183,32.06,22.73,50.32,29.037c2.929,0.989,4.185-1.447,1.134-2.643
						c-15.636-6.234-30.328-14.995-43.053-26.159c-12.707-11.129-23.91-24.164-32.25-39.043
						c-8.332-14.848-14.262-31.112-17.186-47.98c-2.933-16.85-3.2-34.247-0.252-51.217c1.463-8.48,3.963-16.783,7.12-24.778
						c3.133-8.008,7.095-15.762,11.583-23.085c4.484-7.34,9.379-14.461,15.046-21.042c5.652-6.576,12.088-12.596,19.357-17.499
						c7.269-4.902,15.281-8.657,23.53-11.495c8.261-2.84,16.752-4.781,25.284-6.207c17.067-2.875,34.752-2.061,51.469,2.503
						c4.179,1.137,8.311,2.452,12.373,3.961c4.085,1.507,8.109,3.279,11.992,5.306c7.77,4.054,15.027,9.188,21.322,15.325
						c12.589,12.229,22.062,27.779,26.627,44.753c2.289,8.463,3.602,17.221,3.719,26.023c0.127,8.796-0.965,17.634-3.342,26.086
						c-1.195,4.228-2.697,8.33-4.514,12.327c-1.835,4.023-4.02,7.852-6.498,11.474c-4.963,7.242-11.098,13.577-17.973,18.895
						c-6.874,5.322-14.56,9.627-22.76,12.566c-8.191,2.943-16.902,4.506-25.572,4.423c-8.678-0.073-17.184-2.019-25.008-5.224
						c-7.868-3.156-15.036-7.784-21.178-13.452c-6.171-5.656-11.132-12.571-14.491-20.165c-3.365-7.59-5.122-15.858-5.075-24.081
						c0.034-8.226,1.794-16.373,5.118-23.827c3.284-7.354,8.545-13.798,15.014-18.433c7.414-5.348,16.353-8.497,25.385-8.857
						c4.513-0.187,9.036,0.317,13.36,1.494c2.161,0.587,4.278,1.337,6.313,2.249c1.981,0.893,3.896,1.978,5.661,3.23
						c7.082,4.98,11.972,12.658,13.595,20.832c0.831,4.08,0.872,8.265,0.146,12.261c-0.361,1.998-0.904,3.951-1.628,5.828
						c-0.36,0.936-0.769,1.863-1.208,2.751c-0.141,0.304-0.235,0.459-0.335,0.643l-0.337,0.6c-0.237,0.41-0.486,0.812-0.745,1.205
						c-3.943,6.044-10.479,9.865-17.133,10.619c-6.559,0.813-13.65-1.463-17.271-5.493c-1.947-2.055-3.333-4.621-3.989-7.344
						c-0.664-2.725-0.594-5.564,0.2-8.249c0.103-0.335,0.208-0.671,0.334-1.002l0.045-0.124l0.012-0.031l0.002-0.008
						c-0.089,0.222-0.021,0.054-0.04,0.101l0.01-0.025l0.04-0.099l0.144-0.355l0.136-0.312c0.25-0.539,0.534-1.057,0.866-1.542
						c0.658-0.975,1.486-1.842,2.45-2.563c1.929-1.446,4.403-2.249,6.884-2.165c1.972,0.076,3.366-0.381,3.788-1.381
						c0.191-0.486,0.087-1.104-0.458-1.698C322.063,312.78,321.061,312.214,319.605,312.053z"/>
				</g>
				<g>
					<path d="M310.409,314.052c-2.828,1.503-5.248,3.933-6.767,6.808c-1.628,3.156-2.492,6.661-2.437,10.306
						c0.052,3.628,1.043,7.334,2.952,10.606c1.897,3.276,4.729,6.095,8.163,7.982c3.444,1.867,7.405,3.006,11.399,3.329
						c4.01,0.322,8.109-0.19,11.967-1.496c7.74-2.571,14.401-8.484,17.871-16.063c3.501-7.563,4.193-16.44,2.071-24.563
						c-2.085-8.149-6.865-15.506-13.292-20.854c-3.207-2.677-6.862-4.835-10.771-6.372c-3.896-1.555-8.008-2.604-12.196-3.109
						c-8.379-1.014-17.069,0.235-24.892,3.622c-7.795,3.353-14.8,8.682-20.024,15.505c-5.278,6.811-8.512,15.059-9.994,23.503
						c-1.469,8.491-0.883,17.281,1.434,25.493c2.31,8.229,6.308,15.887,11.507,22.565c5.191,6.683,11.596,12.488,19.007,16.783
						c3.702,2.16,7.65,3.892,11.688,5.272c4.049,1.385,8.235,2.398,12.482,2.981c8.503,1.174,17.188,0.526,25.417-1.502
						c8.247-2.026,16.046-5.395,23.285-9.625c7.242-4.229,13.99-9.403,19.759-15.623c5.762-6.203,10.512-13.474,13.629-21.406
						c3.114-7.911,4.937-16.28,5.614-24.688c0.679-8.415,0.224-16.858-1.106-25.136c-1.334-8.342-3.619-16.55-6.954-24.353
						c-3.333-7.795-7.728-15.178-13.155-21.723c-5.424-6.544-11.831-12.24-18.851-16.957c-7.024-4.723-14.653-8.46-22.588-11.3
						c-7.92-2.879-16.085-5.168-24.448-6.565c-8.355-1.395-16.91-1.88-25.374-1.171c-16.943,1.407-33.431,6.765-48.13,15.064
						c-14.761,8.316-27.095,20.277-36.833,33.817c-4.844,6.725-9.042,13.913-12.417,21.464c-3.35,7.552-5.977,15.456-7.831,23.474
						c-3.713,16.122-4.317,32.747-2.342,48.926c1.956,16.191,6.246,32.271,13.513,46.797c3.625,7.254,8.154,13.905,13.154,20.069
						c5.007,6.172,10.476,11.867,16.164,17.389c5.672,5.512,11.572,10.948,17.946,15.862c6.359,4.916,13.2,9.293,20.44,12.608
						c3.915,1.785,7.153,1.962,8.195,1.183c1.053-0.794-0.066-2.425-4.489-4.774c-8.291-4.449-15.918-9.838-22.95-15.798
						c-7.036-5.969-13.489-12.496-19.587-19.409c-12.207-13.82-21.547-30.324-27.367-48.025
						c-5.787-17.519-8.153-36.287-6.097-54.854c1.021-9.261,2.686-18.483,5.304-27.507c0.654-2.255,1.368-4.495,2.143-6.717
						l0.604-1.688l0.592-1.575c0.421-1.076,0.849-2.149,1.309-3.209c1.819-4.249,3.956-8.366,6.415-12.28
						c4.185-6.655,9.426-12.596,15.204-17.83c5.783-5.248,12.088-9.804,18.603-13.971c13.006-8.338,27.745-14.299,43.165-16.358
						c7.69-1.03,15.483-1.405,23.255-0.917c7.768,0.485,15.513,1.839,22.96,4.196c7.524,2.379,14.482,5.419,20.927,9.465
						c6.44,4.021,12.316,8.922,17.417,14.534c5.107,5.609,9.255,12.049,12.449,18.875c3.193,6.834,5.446,14.047,6.895,21.39
						c2.857,14.354,1.607,29.342-3.226,43.076c-1.224,3.499-2.543,6.67-4.164,9.798c-1.61,3.111-3.465,6.094-5.558,8.905
						c-4.18,5.622-9.34,10.554-15.229,14.418c-5.88,3.861-12.329,6.916-19.146,8.851c-6.808,1.937-13.981,2.736-21.061,2.14
						c-3.539-0.293-7.044-0.938-10.462-1.885c-1.709-0.479-3.397-1.024-5.058-1.65c-1.655-0.619-3.337-1.327-4.789-2.04
						c-6.079-2.954-11.425-7.123-15.862-12.096c-4.443-4.968-7.905-10.85-10.045-17.2c-2.145-6.345-2.951-13.146-2.256-19.797
						c0.35-3.364,1.139-6.673,2.3-9.839c0.29-0.792,0.604-1.575,0.939-2.349l0.256-0.579l0.004-0.009
						c0.014-0.035-0.109,0.272-0.055,0.137l0.01-0.022l0.021-0.045l0.041-0.091l0.082-0.18l0.164-0.361l0.165-0.36
						c0.058-0.128,0.083-0.159,0.125-0.244l0.226-0.433c0.711-1.363,1.537-2.718,2.424-3.979c3.583-5.068,8.421-9.027,13.83-11.779
						c5.4-2.765,11.483-4.204,17.512-3.993c5.942,0.179,12.317,2.099,16.441,5.185c4.343,3.152,7.725,7.672,9.424,12.84
						c1.719,5.157,1.664,10.829-0.295,15.915l-0.189,0.477l-0.022,0.06l-0.006,0.016l-0.003,0.007
						c0.028-0.07-0.068,0.17,0.063-0.157l-0.019,0.046l-0.077,0.184l-0.154,0.366c-0.063,0.157-0.076,0.173-0.096,0.211
						l-0.057,0.118l-0.178,0.363c-0.261,0.521-0.546,1.025-0.855,1.512c-0.618,0.973-1.333,1.873-2.133,2.691
						c-1.6,1.636-3.543,2.951-5.67,3.827c-2.125,0.876-4.413,1.326-6.675,1.302c-1.133-0.01-2.26-0.133-3.371-0.367
						c-0.556-0.117-1.108-0.263-1.656-0.436c-0.273-0.085-0.547-0.179-0.818-0.281l-0.102-0.037l-0.052-0.019l-0.013-0.004
						l-0.006-0.003c-0.039-0.015,0.317,0.128,0.161,0.064l-0.046-0.019l-0.369-0.147l-0.254-0.105
						c-1.65-0.717-3.081-1.826-4.197-3.257c-1.119-1.428-1.886-3.179-2.188-4.991c-0.291-1.837-0.169-3.64,0.505-5.556
						c0.094-0.232-0.014,0,0.047-0.149l0.091-0.233c0.064-0.153,0.133-0.303,0.206-0.45c0.151-0.292,0.318-0.575,0.515-0.842
						c0.386-0.537,0.873-1.023,1.439-1.436c1.513-1.085,2.91-1.74,4.089-2.434c1.17-0.679,2.162-1.379,2.45-2.356
						c0.284-0.942-0.178-2.271-2.033-3.279c-0.921-0.486-2.192-0.86-3.767-0.862C314.17,312.656,312.292,313.035,310.409,314.052z"
						/>
				</g>
			</g>
		</g>
	</g>
</g>
</svg>
