<?xml version="1.0" encoding="utf-8"?>
<!-- Generator: Adobe Illustrator 15.0.0, SVG Export Plug-In . SVG Version: 6.00 Build 0)  -->
<!DOCTYPE svg PUBLIC "-//W3C//DTD SVG 1.1//EN" "http://www.w3.org/Graphics/SVG/1.1/DTD/svg11.dtd">
<svg version="1.1" id="Layer_1" xmlns="http://www.w3.org/2000/svg" xmlns:xlink="http://www.w3.org/1999/xlink" x="0px" y="0px"
	 width="595.28px" height="595.28px" viewBox="0 0 595.28 595.28" enable-background="new 0 0 595.28 595.28" xml:space="preserve">
<g>
	<g>
		<circle fill="#FFFFFF" cx="169.012" cy="421.801" r="106.299"/>
		<g>
			<g>
				<g>
					<path d="M149.042,524.534c9.369,1.72,18.927,1.643,28.3,0.957c9.421-0.688,18.692-2.894,27.603-5.966
						c4.46-1.536,8.958-3.039,13.383-4.855c4.419-1.813,8.766-3.936,12.769-6.617c4.001-2.68,8.033-5.354,11.915-8.313
						c3.877-2.954,7.599-6.2,10.838-9.918c6.491-7.439,11.629-16.006,15.927-24.941c2.151-4.477,3.946-9.139,5.41-13.907
						c0.369-1.191,0.715-2.391,1.043-3.596c0.329-1.188,0.647-2.472,0.927-3.607c0.59-2.473,1.101-4.891,1.551-7.366
						c0.903-4.936,1.021-10.014,0.796-15.039c-0.23-5.034-0.805-10.014-1.271-14.986c-0.468-4.971-0.718-10.001-1.331-15.072
						c-0.609-5.061-1.599-10.156-3.467-14.973c-3.748-9.663-9.83-18.233-16.037-26.428c-7.059-9.333-15.747-17.537-25.569-24.13
						c-4.899-3.294-10.225-5.933-15.694-8.106c-5.476-2.18-11.09-3.904-16.725-5.473c-11.246-3.131-22.97-4.958-34.741-4.553
						c-11.732,0.391-23.605,1.869-34.833,5.74c-11.064,3.822-20.982,10.213-30.19,17.15c-4.627,3.479-9.178,7.093-13.447,11.069
						c-4.265,3.972-8.241,8.312-11.606,13.106c-6.712,9.553-12.551,19.942-15.974,31.203c-0.851,2.802-1.478,5.666-1.933,8.548
						l-0.313,2.188c-0.107,0.782-0.173,1.445-0.237,2.107c-0.161,1.528-0.267,2.919-0.352,4.387
						c-0.335,5.802-0.214,11.565-0.116,17.296c0.091,5.156,0.007,10.351,0.32,15.573c0.309,5.211,1.011,10.449,2.596,15.412
						c1.585,4.963,4.035,9.582,6.755,13.932c2.724,4.359,5.717,8.452,8.519,12.621c2.8,4.169,5.422,8.487,8.361,12.645
						c2.933,4.147,6.189,8.127,10.044,11.4c7.732,6.566,16.749,11.108,25.652,15.236c8.982,4.166,18.682,5.988,28.108,7.634
						c2.876,0.48,3.184-1.604,0.375-2.124c-5.129-0.991-10.137-2.662-14.935-4.718c-4.807-2.058-9.418-4.498-13.936-7.072
						c-4.517-2.574-9.088-5.127-13.472-8.068c-4.376-2.935-8.56-6.264-12.095-10.211c-3.537-3.946-6.393-8.449-8.847-13.089
						c-2.458-4.647-4.521-9.429-6.604-14.156c-4.165-9.442-7.354-19.404-8.408-29.668c-1.057-10.27,0.168-20.535,2.226-30.414
						c2.061-9.938,5.968-19.312,10.779-27.995c4.798-8.677,10.267-17.152,17.442-24.07c7.129-6.88,14.881-13.293,23.726-17.867
						c4.468-2.313,9.229-4.021,14.046-5.352c4.824-1.334,9.7-2.302,14.568-3.205c9.738-1.806,19.741-1.976,29.587-0.971
						c9.877,1.003,19.622,3.57,28.904,7.188c9.273,3.608,18.607,7.884,26.917,14.016c8.333,6.15,15.182,14.147,20.819,22.884
						c2.842,4.396,5.631,8.867,8.032,13.595c2.399,4.719,4.408,9.695,5.617,14.896c2.417,10.402,2.872,21.21,1.771,31.787
						c-1.098,10.563-4.294,20.785-8.52,30.408c-3.785,8.622-8.612,16.764-14.518,24.028c-5.906,7.282-12.87,13.623-20.408,19.092
						c-7.557,5.482-15.928,9.738-24.593,13.115c-8.65,3.368-17.673,6.116-27.048,7.214c-9.349,1.099-18.86,0.553-28.272-0.706
						C148.24,523.309,148.099,524.36,149.042,524.534z"/>
				</g>
			</g>
		</g>
	</g>
	<g>
		<circle fill="#FFFFFF" cx="426.269" cy="403.318" r="106.299"/>
		<g>
			<g>
				<g>
					<path d="M528.644,381.585c-2.076-9.297-5.879-18.065-10.171-26.427c-4.312-8.405-9.963-16.078-16.271-23.081
						c-3.156-3.507-6.296-7.062-9.696-10.425c-3.394-3.36-7.045-6.533-11.078-9.171c-4.029-2.638-8.065-5.304-12.305-7.723
						c-4.233-2.416-8.676-4.574-13.362-6.104c-9.384-3.071-19.277-4.455-29.181-4.923c-4.962-0.232-9.954-0.063-14.916,0.451
						c-1.241,0.125-2.48,0.275-3.717,0.443c-1.223,0.162-2.529,0.369-3.684,0.555c-2.507,0.422-4.933,0.896-7.388,1.448
						c-4.896,1.096-9.618,2.97-14.156,5.14c-4.544,2.178-8.903,4.651-13.299,7.022c-4.394,2.371-8.927,4.566-13.356,7.11
						c-4.421,2.537-8.726,5.438-12.43,9.038c-7.433,7.224-12.948,16.17-18.067,25.084c-5.836,10.143-9.996,21.345-12.229,32.962
						c-1.12,5.796-1.469,11.729-1.334,17.613c0.132,5.893,0.736,11.734,1.492,17.534c1.51,11.575,4.406,23.082,9.375,33.761
						c4.941,10.647,10.939,21.001,18.888,29.826c7.839,8.693,17.595,15.327,27.577,21.096c5.01,2.9,10.114,5.679,15.441,8.057
						c5.322,2.375,10.87,4.341,16.599,5.566c11.416,2.449,23.26,3.768,34.963,2.521c2.912-0.312,5.793-0.852,8.624-1.56l2.137-0.566
						c0.762-0.206,1.398-0.405,2.033-0.604c1.469-0.449,2.791-0.894,4.176-1.389c5.472-1.957,10.731-4.319,15.968-6.647
						c4.712-2.098,9.526-4.049,14.212-6.375c4.677-2.319,9.225-5.012,13.175-8.408c3.95-3.398,7.245-7.457,10.188-11.659
						c2.95-4.21,5.549-8.563,8.293-12.771c2.744-4.205,5.695-8.306,8.375-12.635c2.673-4.319,5.064-8.871,6.573-13.698
						c3.025-9.684,3.687-19.758,4.01-29.565c0.327-9.896-1.782-19.537-3.948-28.857c-0.682-2.835-2.72-2.305-2.103,0.483
						c1.09,5.109,1.508,10.372,1.489,15.592c-0.018,5.229-0.464,10.427-1.069,15.592c-0.605,5.164-1.171,10.368-2.167,15.553
						c-0.992,5.174-2.424,10.325-4.677,15.122c-2.252,4.797-5.282,9.185-8.595,13.256c-3.319,4.078-6.915,7.843-10.454,11.607
						c-7.066,7.521-14.992,14.347-24.029,19.326c-9.041,4.982-18.97,7.864-28.867,9.827c-9.955,1.983-20.109,2.047-29.982,1.009
						c-9.862-1.028-19.8-2.754-28.97-6.657c-9.118-3.877-18.05-8.509-25.714-14.865c-3.875-3.21-7.307-6.926-10.412-10.842
						c-3.112-3.92-5.906-8.031-8.64-12.159c-5.466-8.261-9.527-17.402-12.446-26.859c-2.934-9.484-4.377-19.458-4.671-29.417
						c-0.299-9.945-0.007-20.208,2.393-30.252c2.408-10.073,7.096-19.502,12.937-28.104c2.938-4.332,5.965-8.646,9.38-12.702
						c3.407-4.051,7.203-7.844,11.52-10.987c8.633-6.287,18.405-10.926,28.572-14.044c10.152-3.113,20.812-4.163,31.321-4.031
						c9.415,0.117,18.795,1.382,27.789,3.981c9.01,2.594,17.567,6.528,25.545,11.332c7.998,4.816,15.186,10.861,21.678,17.52
						c6.479,6.647,12.531,13.882,17.203,22.083c4.662,8.178,7.874,17.147,10.391,26.304
						C527.828,382.802,528.852,382.521,528.644,381.585z"/>
				</g>
			</g>
		</g>
	</g>
	<g>
		<circle fill="#FFFFFF" cx="275.31" cy="173.479" r="106.299"/>
		<g>
			<g>
				<g>
					<path d="M367.013,123.046c-4.678-8.297-10.855-15.59-17.384-22.352c-6.56-6.798-14.189-12.507-22.255-17.384
						c-4.035-2.443-8.069-4.937-12.298-7.172c-4.222-2.234-8.635-4.214-13.259-5.572c-4.62-1.358-9.255-2.743-14.013-3.831
						c-4.751-1.086-9.628-1.868-14.557-1.976c-9.871-0.224-19.741,1.314-29.356,3.733c-4.816,1.214-9.546,2.82-14.147,4.749
						c-1.152,0.479-2.294,0.981-3.43,1.5c-1.124,0.509-2.313,1.085-3.365,1.598c-2.277,1.13-4.462,2.286-6.652,3.524
						c-4.369,2.466-8.347,5.626-12.063,9.017c-3.72,3.4-7.177,7.03-10.698,10.571c-3.519,3.542-7.223,6.955-10.727,10.672
						c-3.498,3.708-6.778,7.73-9.282,12.249c-5.023,9.066-7.713,19.225-10.034,29.24c-2.65,11.397-3.39,23.323-2.166,35.09
						c0.605,5.872,1.989,11.652,3.82,17.246c1.832,5.601,4.102,11.019,6.504,16.352c4.794,10.643,10.897,20.818,18.745,29.602
						c7.812,8.762,16.549,16.937,26.711,23.083c10.02,6.053,21.279,9.579,32.502,12.211c5.636,1.327,11.325,2.509,17.113,3.243
						c5.781,0.733,11.661,1.009,17.499,0.524c11.637-0.959,23.355-3.125,34.196-7.706c2.698-1.141,5.299-2.493,7.805-3.989
						l1.881-1.161c0.67-0.418,1.222-0.792,1.771-1.167c1.276-0.855,2.414-1.664,3.595-2.538c4.672-3.457,9.022-7.24,13.361-10.984
						c3.902-3.372,7.946-6.633,11.758-10.216c3.806-3.574,7.38-7.467,10.178-11.862c2.798-4.396,4.777-9.234,6.377-14.108
						c1.605-4.884,2.832-9.804,4.242-14.625c1.409-4.82,3.048-9.599,4.359-14.518c1.309-4.908,2.28-9.958,2.327-15.015
						c0.094-10.144-2.189-19.979-4.719-29.46c-2.55-9.567-7.36-18.185-12.131-26.479c-1.473-2.517-3.271-1.42-1.872,1.071
						c2.521,4.575,4.444,9.491,5.938,14.494c1.497,5.01,2.574,10.114,3.489,15.233c0.914,5.118,1.88,10.263,2.427,15.514
						c0.548,5.24,0.669,10.586-0.101,15.829c-0.767,5.243-2.397,10.32-4.39,15.175c-1.997,4.865-4.35,9.51-6.647,14.137
						c-4.587,9.245-10.198,18.072-17.407,25.454c-7.212,7.386-15.882,13.018-24.787,17.762c-8.954,4.779-18.656,7.779-28.407,9.643
						c-9.737,1.87-19.75,3.095-29.657,2.012c-9.85-1.072-19.739-2.921-28.916-6.787c-4.638-1.951-8.998-4.515-13.104-7.364
						c-4.113-2.851-7.979-5.978-11.79-9.139c-7.622-6.325-14.156-13.9-19.687-22.107c-5.553-8.229-9.821-17.358-12.984-26.806
						c-3.165-9.434-5.856-19.341-6.466-29.65c-0.61-10.339,1.148-20.721,4.25-30.645c1.558-4.997,3.207-10.002,5.301-14.873
						c2.089-4.864,4.625-9.594,7.847-13.852c6.444-8.517,14.455-15.785,23.285-21.712c8.817-5.918,18.716-10.008,28.814-12.924
						c9.047-2.612,18.391-4.117,27.752-4.231c9.375-0.125,18.706,1.165,27.732,3.454c9.049,2.295,17.679,6.001,25.82,10.495
						c8.125,4.488,16.013,9.661,22.857,16.159c6.83,6.478,12.5,14.134,17.56,22.17C366.585,124.447,367.483,123.883,367.013,123.046
						z"/>
				</g>
			</g>
		</g>
	</g>
</g>
</svg>
