<?xml version="1.0" encoding="utf-8"?>
<!-- Generator: Adobe Illustrator 15.0.0, SVG Export Plug-In . SVG Version: 6.00 Build 0)  -->
<!DOCTYPE svg PUBLIC "-//W3C//DTD SVG 1.1//EN" "http://www.w3.org/Graphics/SVG/1.1/DTD/svg11.dtd">
<svg version="1.1" id="Layer_1" xmlns="http://www.w3.org/2000/svg" xmlns:xlink="http://www.w3.org/1999/xlink" x="0px" y="0px"
	 width="595.28px" height="595.28px" viewBox="0 0 595.28 595.28" enable-background="new 0 0 595.28 595.28" xml:space="preserve">
<g>
	<g>
		<g>
			<path d="M486.385,149.728c-5.651,3.286-11.382,6.356-17.11,9.429c-5.729,3.076-11.471,6.112-17.222,9.13
				c-11.499,6.009-23.112,11.701-35.042,16.546c-6.315,2.552-12.497,5.529-18.693,8.433c-6.199,2.896-12.413,5.722-18.89,7.718
				c-6.475,1.998-13.285,2.902-20.21,3.5c-6.919,0.615-13.947,0.938-20.761,2.03c-12.774,2.036-25.198,5.349-38.187,6.693
				c-12.99,1.33-25.581,3.864-38.201,6.445c-6.729,1.379-13.77,1.819-20.718,2.522c-6.955,0.685-13.8,1.68-20.232,3.912
				c-12.858,4.468-25.719,8.897-38.532,13.474c-12.449,4.451-24.094,11.255-36.242,16.498c-6.069,2.646-11.966,5.773-17.843,8.953
				c-5.877,3.18-11.743,6.389-17.705,9.317l-6.581,3.198l-29.112,14.149l28.666,9.183l30.947,9.913
				c12.653,4.023,25.235,8.223,37.521,13.124c12.287,4.898,24.649,9.632,36.5,15.572c5.929,2.959,11.67,6.359,17.313,9.995
				c5.647,3.626,11.195,7.492,16.868,11.066c5.685,3.541,11.556,6.646,17.522,9.525c5.956,2.904,11.989,5.622,17.782,8.912
				c5.792,3.284,11.227,7.417,16.674,11.519c5.452,4.093,10.933,8.116,16.93,10.92c10.744,5.026,22.232,8.262,33.435,12.097
				c11.236,3.813,22.04,8.77,33.563,11.838c11.535,3.057,23.688,4.498,35.294,7.375c11.603,2.874,22.935,6.53,34.702,9.037
				c5.871,1.268,11.757,2.481,17.661,3.659c5.896,1.2,11.784,2.425,17.731,3.549c2.347,0.384,2.651-0.306,0.525-1.046
				c-6.185-2.061-12.334-4.302-18.502-6.52c-6.167-2.221-12.346-4.437-18.447-6.78c-6.084-2.353-12.292-4.423-18.549-6.385
				c-6.255-1.969-12.549-3.851-18.703-6.072c-6.149-2.215-12.079-4.964-17.971-7.802c-5.892-2.84-11.745-5.768-17.803-8.193
				c-12.136-4.85-24.451-9.207-36.152-14.983c-11.993-5.906-24.289-11.161-36.303-17.035c-6.007-2.937-11.819-6.313-17.673-9.591
				c-5.85-3.285-11.748-6.457-17.83-9.213c-12.172-5.502-24.552-10.526-36.757-15.934c-12.207-5.406-24.286-10.964-36.458-16.416
				c-12.108-5.457-24.738-10.034-36.696-15.815c-5.972-2.902-11.69-6.264-17.314-9.851c-5.634-3.564-11.149-7.412-16.901-10.84
				c-3.426-2.059-6.888-4.054-10.354-6.051l-0.341,17.832c9.153-2.168,18.256-4.527,27.511-6.357
				c13.196-2.596,26.479-5.011,39.481-8.178c12.816-3.156,25.347-7.213,37.832-11.254c12.495-4.031,24.358-9.736,36.671-14.247
				c12.305-4.522,25.223-7.388,37.55-11.848c12.315-4.469,24.073-10.432,36.654-14.186c13.796-4.134,27.521-8.682,40.968-13.978
				c13.45-5.276,26.426-11.806,38.978-19.364c6.62-3.996,12.97-8.58,19.354-13.051c6.377-4.492,12.797-8.847,19.393-12.83
				c13.164-7.968,26.649-15.493,40.008-23.262C487.548,149.025,487.538,149.055,486.385,149.728z"/>
		</g>
	</g>
</g>
</svg>
