<?xml version="1.0" encoding="utf-8"?>
<!-- Generator: Adobe Illustrator 15.0.0, SVG Export Plug-In . SVG Version: 6.00 Build 0)  -->
<!DOCTYPE svg PUBLIC "-//W3C//DTD SVG 1.1//EN" "http://www.w3.org/Graphics/SVG/1.1/DTD/svg11.dtd">
<svg version="1.1" id="Layer_1" xmlns="http://www.w3.org/2000/svg" xmlns:xlink="http://www.w3.org/1999/xlink" x="0px" y="0px"
	 width="595.28px" height="595.28px" viewBox="0 0 595.28 595.28" enable-background="new 0 0 595.28 595.28" xml:space="preserve">
<g>
	<g>
		<g>
			<path d="M149.728,108.895c3.286,5.652,6.356,11.382,9.429,17.111c3.076,5.728,6.112,11.47,9.13,17.222
				c6.009,11.499,11.701,23.112,16.546,35.042c2.552,6.316,5.529,12.497,8.433,18.693c2.896,6.2,5.722,12.413,7.718,18.89
				c1.998,6.475,2.902,13.285,3.5,20.21c0.615,6.919,0.938,13.947,2.03,20.76c2.036,12.775,5.349,25.198,6.693,38.187
				c1.33,12.99,3.864,25.581,6.445,38.201c1.379,6.729,1.819,13.77,2.522,20.718c0.685,6.955,1.68,13.8,3.912,20.232
				c4.468,12.858,8.897,25.719,13.474,38.532c4.451,12.448,11.255,24.094,16.498,36.241c2.646,6.069,5.773,11.966,8.953,17.844
				c3.18,5.877,6.389,11.743,9.317,17.705l3.198,6.58l14.149,29.111l9.183-28.665l9.913-30.947
				c4.023-12.653,8.223-25.235,13.124-37.521c4.898-12.286,9.632-24.648,15.572-36.499c2.959-5.929,6.359-11.67,9.995-17.313
				c3.626-5.647,7.492-11.195,11.066-16.868c3.541-5.685,6.646-11.556,9.525-17.521c2.904-5.956,5.622-11.99,8.912-17.782
				c3.284-5.792,7.417-11.227,11.519-16.675c4.093-5.452,8.116-10.933,10.92-16.93c5.026-10.744,8.262-22.232,12.097-33.434
				c3.813-11.236,8.77-22.041,11.838-33.563c3.057-11.536,4.498-23.688,7.375-35.293c2.874-11.603,6.53-22.935,9.037-34.703
				c1.268-5.871,2.481-11.756,3.659-17.661c1.2-5.896,2.425-11.785,3.549-17.732c0.384-2.346-0.306-2.651-1.046-0.525
				c-2.061,6.185-4.302,12.334-6.52,18.502c-2.221,6.167-4.437,12.345-6.78,18.447c-2.353,6.084-4.423,12.292-6.385,18.55
				c-1.969,6.254-3.851,12.548-6.072,18.703c-2.215,6.149-4.964,12.08-7.802,17.971c-2.84,5.891-5.768,11.745-8.193,17.803
				c-4.85,12.135-9.207,24.451-14.983,36.152c-5.906,11.993-11.161,24.289-17.035,36.302c-2.937,6.008-6.313,11.82-9.591,17.673
				c-3.285,5.851-6.457,11.747-9.213,17.83c-5.502,12.172-10.526,24.553-15.934,36.757c-5.406,12.207-10.964,24.286-16.416,36.458
				c-5.457,12.107-10.034,24.737-15.815,36.695c-2.902,5.973-6.264,11.69-9.851,17.314c-3.564,5.634-7.412,11.148-10.84,16.901
				c-2.059,3.426-4.054,6.888-6.051,10.354l17.832,0.341c-2.168-9.152-4.527-18.256-6.357-27.512
				c-2.596-13.195-5.011-26.479-8.178-39.481c-3.156-12.815-7.213-25.347-11.254-37.831c-4.031-12.495-9.736-24.358-14.247-36.672
				c-4.522-12.305-7.388-25.223-11.848-37.55c-4.469-12.315-10.432-24.074-14.186-36.654c-4.134-13.796-8.682-27.521-13.978-40.968
				c-5.276-13.45-11.806-26.425-19.364-38.977c-3.996-6.621-8.58-12.971-13.051-19.355c-4.492-6.377-8.847-12.797-12.83-19.392
				c-7.968-13.164-15.493-26.65-23.262-40.008C149.025,107.733,149.055,107.742,149.728,108.895z"/>
		</g>
	</g>
</g>
</svg>
