<?xml version="1.0" encoding="utf-8"?>
<!-- Generator: Adobe Illustrator 15.0.0, SVG Export Plug-In . SVG Version: 6.00 Build 0)  -->
<!DOCTYPE svg PUBLIC "-//W3C//DTD SVG 1.1//EN" "http://www.w3.org/Graphics/SVG/1.1/DTD/svg11.dtd">
<svg version="1.1" id="Layer_1" xmlns="http://www.w3.org/2000/svg" xmlns:xlink="http://www.w3.org/1999/xlink" x="0px" y="0px"
	 width="595.28px" height="595.28px" viewBox="0 0 595.28 595.28" enable-background="new 0 0 595.28 595.28" xml:space="preserve">
<g>
	<g>
		<g>
			<g>
				<path d="M507.887,327.141c-2.28,4.411-8.178,4.378-17.008,2.512c-2.199-0.454-4.659-1.048-7.194-1.636
					c-2.482-0.565-5.293-0.882-8.361-1.105c-3.069-0.239-6.395-0.366-9.928-0.909c-3.563-0.537-7.152-1.683-10.867-2.789
					c-3.738-1.111-7.521-2.136-11.603-2.293c-4.197-0.246-8.587-0.325-13.147-0.229c-2.279,0.046-4.604,0.144-6.966,0.279
					c-2.283,0.13-4.613,0.458-6.989,0.916c-4.757,0.895-9.671,2.288-14.973,3.073c-5.311,0.783-10.806,0.828-16.184,1.492
					c-2.676,0.351-5.374,0.797-7.817,1.677c-2.497,0.898-4.963,2.213-7.484,3.63c-2.526,1.409-5.116,2.912-7.92,4.104
					c-2.89,1.228-5.706,1.827-8.495,2.722l-16.994,5.376c-10.355,3.303-20.787,6.902-31.481,9.735
					c-5.353,1.472-10.719,2.89-16.088,4.217c-5.547,1.247-11.084,1.792-16.354,2.543c-10.619,1.708-21.109,2.967-31.246,3.665
					c-4.639,0.686-9.366,2.26-14.394,3.346c-2.507,0.547-5.096,0.955-7.746,1.047c-2.451,0.024-4.87,0.016-7.253-0.028
					c-4.706-0.104-9.267-0.342-13.653-0.684c-2.248-0.188-4.45-0.411-6.604-0.657c-2.321-0.364-4.501-0.961-6.547-1.632
					c-8.208-2.848-14.228-5.915-19.718-6.027c-5.728-0.321-11.674,0.215-16.666-0.738c-5.12-0.884-8.722-3.02-10.836-4.336
					c-4.572-2.916-8.172-6.202-11.526-8.522c-0.835-0.6-1.655-1.123-2.463-1.602l-2.702-1.662c-1.788-1.159-3.508-2.311-5.159-3.444
					c-6.601-4.57-11.753-9.564-16.038-13.434c-8.407-8.148-11.605-14.991-9.732-18.247c2.087-3.215,8.781-2.319,18.839,1.064
					c5.12,1.496,10.649,4.413,17.108,7.405c1.6,0.78,3.252,1.573,4.962,2.354l2.638,1.245c1.001,0.462,1.98,0.982,2.92,1.566
					c3.787,2.298,7.194,5.364,10.712,7.702c1.713,1.114,4.032,2.625,7.4,3.318c3.445,0.82,8.259,0.479,14.361,0.994
					c3.066,0.278,6.472,1.257,9.621,2.669c3.207,1.377,6.416,3.099,9.676,4.461c3.309,1.476,6.336,2.061,10.407,2.596
					c3.88,0.563,7.936,1.048,12.152,1.42c2.101,0.186,4.242,0.346,6.419,0.477c1.955,0.096,4-0.062,6.125-0.373
					c4.263-0.605,8.801-1.918,13.861-2.439c9.863-0.324,19.38-0.306,30.027-1.453c5.281-0.402,10.574-0.542,15.666-1.235
					c5.175-0.884,10.394-1.855,15.64-2.892c10.585-2.002,21.159-4.747,31.75-7.293l17.374-4.521l4.297-1.153l2.141-0.578
					c0.664-0.21,1.304-0.382,1.948-0.641c2.578-0.94,5.094-2.333,7.676-3.78c2.578-1.449,5.22-2.982,8.066-4.167
					c2.867-1.245,5.887-1.884,8.741-2.402c5.793-1.022,11.438-1.363,16.631-2.376c5.169-1.014,10.243-2.766,15.456-4.165
					c2.606-0.699,5.242-1.314,7.918-1.706c2.586-0.364,5.146-0.678,7.678-0.938c5.043-0.515,9.968-0.823,14.737-0.927
					c4.89-0.219,9.808,0.623,14.052,1.571c4.31,0.952,8.193,1.946,11.849,2.444c3.688,0.518,7.387,0.742,10.952,1.203
					c3.562,0.45,6.987,1.134,10.061,2.283c2.988,1.143,5.482,2.313,7.759,3.533c4.502,2.44,7.701,4.99,9.484,7.424
					C508.639,322.633,509.006,324.956,507.887,327.141z"/>
			</g>
		</g>
	</g>
	<g>
		<g>
			<g>
				<path d="M507.887,267.139c-2.28,4.412-8.178,4.378-17.008,2.512c-2.199-0.454-4.659-1.047-7.194-1.636
					c-2.482-0.565-5.293-0.881-8.361-1.105c-3.069-0.239-6.395-0.366-9.928-0.909c-3.563-0.537-7.152-1.683-10.867-2.79
					c-3.738-1.111-7.521-2.135-11.603-2.292c-4.197-0.247-8.587-0.326-13.147-0.229c-2.279,0.046-4.604,0.144-6.966,0.28
					c-2.283,0.13-4.613,0.458-6.989,0.916c-4.757,0.895-9.671,2.289-14.974,3.074c-5.31,0.783-10.805,0.828-16.183,1.492
					c-2.676,0.351-5.374,0.797-7.817,1.677c-2.497,0.898-4.963,2.213-7.484,3.63c-2.526,1.409-5.116,2.912-7.92,4.104
					c-2.89,1.228-5.707,1.828-8.495,2.722l-16.994,5.376c-10.355,3.303-20.787,6.902-31.481,9.736
					c-5.353,1.472-10.719,2.89-16.088,4.217c-5.547,1.247-11.084,1.791-16.354,2.542c-10.619,1.709-21.109,2.967-31.246,3.666
					c-4.639,0.685-9.366,2.259-14.394,3.346c-2.507,0.547-5.096,0.955-7.745,1.046c-2.451,0.025-4.87,0.017-7.253-0.027
					c-4.706-0.104-9.267-0.343-13.654-0.685c-2.248-0.188-4.45-0.41-6.604-0.657c-2.321-0.363-4.501-0.96-6.547-1.632
					c-8.208-2.847-14.228-5.915-19.718-6.026c-5.728-0.322-11.675,0.214-16.666-0.739c-5.119-0.884-8.722-3.02-10.836-4.336
					c-4.572-2.917-8.171-6.202-11.525-8.522c-0.835-0.6-1.655-1.123-2.463-1.602l-2.702-1.662c-1.788-1.16-3.508-2.311-5.159-3.445
					c-6.601-4.57-11.753-9.564-16.038-13.434c-8.407-8.148-11.605-14.992-9.732-18.247c2.087-3.215,8.781-2.32,18.839,1.064
					c5.12,1.497,10.649,4.413,17.108,7.406c1.6,0.78,3.252,1.573,4.962,2.354l2.638,1.246c1.001,0.461,1.98,0.982,2.92,1.566
					c3.787,2.298,7.194,5.364,10.712,7.702c1.713,1.114,4.032,2.625,7.4,3.318c3.445,0.82,8.259,0.479,14.361,0.994
					c3.066,0.278,6.472,1.257,9.621,2.67c3.207,1.376,6.416,3.098,9.676,4.461c3.309,1.475,6.336,2.061,10.407,2.595
					c3.88,0.563,7.936,1.048,12.152,1.42c2.101,0.186,4.242,0.346,6.419,0.476c1.955,0.095,4-0.061,6.125-0.373
					c4.263-0.605,8.801-1.918,13.861-2.439c9.863-0.324,19.38-0.305,30.027-1.453c5.281-0.402,10.574-0.542,15.666-1.236
					c5.174-0.884,10.394-1.855,15.64-2.891c10.585-2.002,21.159-4.747,31.75-7.293l17.374-4.521l4.296-1.154l2.142-0.578
					c0.664-0.21,1.304-0.382,1.948-0.641c2.578-0.94,5.094-2.333,7.676-3.78c2.578-1.45,5.22-2.983,8.066-4.167
					c2.867-1.245,5.887-1.884,8.741-2.402c5.792-1.022,11.438-1.363,16.631-2.375c5.169-1.014,10.243-2.766,15.456-4.166
					c2.606-0.699,5.242-1.315,7.918-1.706c2.585-0.365,5.146-0.678,7.678-0.938c5.043-0.515,9.968-0.823,14.737-0.927
					c4.89-0.219,9.808,0.623,14.051,1.571c4.311,0.952,8.194,1.946,11.85,2.444c3.688,0.518,7.387,0.742,10.952,1.204
					c3.562,0.45,6.987,1.133,10.061,2.282c2.988,1.143,5.482,2.313,7.759,3.534c4.502,2.44,7.701,4.99,9.484,7.423
					C508.639,262.632,509.006,264.955,507.887,267.139z"/>
			</g>
		</g>
	</g>
</g>
</svg>
