<?xml version="1.0" encoding="utf-8"?>
<!-- Generator: Adobe Illustrator 15.0.0, SVG Export Plug-In . SVG Version: 6.00 Build 0)  -->
<!DOCTYPE svg PUBLIC "-//W3C//DTD SVG 1.1//EN" "http://www.w3.org/Graphics/SVG/1.1/DTD/svg11.dtd">
<svg version="1.1" id="Layer_1" xmlns="http://www.w3.org/2000/svg" xmlns:xlink="http://www.w3.org/1999/xlink" x="0px" y="0px"
	 width="595.28px" height="595.28px" viewBox="0 0 595.28 595.28" enable-background="new 0 0 595.28 595.28" xml:space="preserve">
<g>
	<g>
		<g>
			<path d="M108.896,445.552c5.652-3.286,11.382-6.356,17.111-9.43c5.728-3.075,11.47-6.112,17.221-9.13
				c11.499-6.009,23.112-11.7,35.042-16.546c6.315-2.552,12.497-5.529,18.693-8.433c6.2-2.896,12.413-5.723,18.89-7.719
				c6.475-1.997,13.285-2.901,20.21-3.5c6.918-0.615,13.947-0.938,20.76-2.03c12.775-2.036,25.198-5.349,38.187-6.693
				c12.99-1.329,25.58-3.864,38.201-6.445c6.729-1.379,13.77-1.818,20.717-2.522c6.955-0.685,13.8-1.679,20.233-3.912
				c12.857-4.468,25.719-8.896,38.531-13.474c12.448-4.45,24.094-11.255,36.241-16.498c6.069-2.646,11.966-5.772,17.844-8.952
				c5.877-3.18,11.742-6.389,17.705-9.316l6.58-3.199l29.111-14.149l-28.666-9.182l-30.946-9.913
				c-12.653-4.024-25.235-8.223-37.521-13.124c-12.286-4.899-24.649-9.632-36.5-15.572c-5.928-2.959-11.669-6.36-17.313-9.996
				c-5.647-3.626-11.195-7.492-16.868-11.066c-5.686-3.541-11.556-6.646-17.522-9.525c-5.955-2.904-11.989-5.623-17.781-8.912
				c-5.793-3.285-11.227-7.417-16.675-11.519c-5.452-4.092-10.933-8.116-16.93-10.919c-10.744-5.027-22.232-8.261-33.434-12.097
				c-11.236-3.814-22.041-8.769-33.563-11.838c-11.536-3.056-23.688-4.497-35.293-7.375c-11.603-2.874-22.935-6.53-34.702-9.037
				c-5.871-1.268-11.756-2.481-17.661-3.66c-5.896-1.2-11.785-2.424-17.732-3.548c-2.346-0.384-2.651,0.306-0.525,1.045
				c6.185,2.061,12.333,4.303,18.502,6.52c6.167,2.221,12.345,4.437,18.447,6.78c6.084,2.352,12.292,4.422,18.549,6.384
				c6.254,1.969,12.549,3.851,18.703,6.072c6.149,2.215,12.08,4.964,17.971,7.803c5.891,2.84,11.745,5.767,17.803,8.193
				c12.135,4.849,24.451,9.207,36.152,14.983c11.993,5.906,24.289,11.161,36.302,17.035c6.008,2.937,11.82,6.313,17.673,9.591
				c5.85,3.286,11.747,6.458,17.83,9.213c12.172,5.501,24.552,10.527,36.756,15.934c12.207,5.406,24.287,10.963,36.458,16.416
				c12.108,5.457,24.738,10.034,36.696,15.815c5.972,2.902,11.69,6.263,17.313,9.851c5.634,3.563,11.149,7.411,16.901,10.84
				c3.426,2.059,6.889,4.054,10.354,6.051l0.341-17.831c-9.152,2.168-18.256,4.527-27.512,6.357
				c-13.195,2.596-26.479,5.011-39.481,8.178c-12.815,3.155-25.347,7.213-37.831,11.254c-12.495,4.03-24.358,9.735-36.672,14.246
				c-12.304,4.522-25.223,7.388-37.55,11.849c-12.315,4.469-24.073,10.432-36.654,14.186c-13.796,4.135-27.521,8.683-40.968,13.978
				c-13.45,5.276-26.425,11.807-38.977,19.364c-6.621,3.995-12.97,8.58-19.355,13.051c-6.376,4.492-12.797,8.848-19.392,12.83
				c-13.164,7.968-26.65,15.493-40.008,23.262C107.733,446.254,107.743,446.225,108.896,445.552z"/>
		</g>
	</g>
</g>
</svg>
