<?xml version="1.0" encoding="utf-8"?>
<!-- Generator: Adobe Illustrator 15.0.0, SVG Export Plug-In . SVG Version: 6.00 Build 0)  -->
<!DOCTYPE svg PUBLIC "-//W3C//DTD SVG 1.1//EN" "http://www.w3.org/Graphics/SVG/1.1/DTD/svg11.dtd">
<svg version="1.1" id="Layer_1" xmlns="http://www.w3.org/2000/svg" xmlns:xlink="http://www.w3.org/1999/xlink" x="0px" y="0px"
	 width="595.28px" height="595.28px" viewBox="0 0 595.28 595.28" enable-background="new 0 0 595.28 595.28" xml:space="preserve">
<g>
	<g>
		<g>
			<path d="M445.553,486.385c-3.286-5.651-6.356-11.382-9.43-17.11c-3.075-5.729-6.112-11.471-9.13-17.222
				c-6.009-11.499-11.701-23.112-16.546-35.042c-2.552-6.315-5.529-12.497-8.434-18.693c-2.896-6.199-5.722-12.413-7.718-18.89
				c-1.997-6.475-2.902-13.285-3.501-20.21c-0.615-6.919-0.938-13.947-2.03-20.76c-2.036-12.775-5.349-25.198-6.692-38.188
				c-1.33-12.99-3.864-25.581-6.445-38.201c-1.38-6.729-1.819-13.77-2.522-20.718c-0.685-6.955-1.68-13.8-3.912-20.232
				c-4.469-12.858-8.897-25.719-13.475-38.532c-4.45-12.449-11.255-24.094-16.498-36.242c-2.646-6.069-5.772-11.966-8.952-17.843
				c-3.18-5.877-6.389-11.743-9.316-17.705l-3.199-6.581l-14.149-29.112l-9.182,28.666l-9.913,30.947
				c-4.024,12.653-8.223,25.235-13.124,37.521c-4.899,12.287-9.632,24.649-15.572,36.5c-2.959,5.929-6.36,11.67-9.996,17.313
				c-3.626,5.647-7.492,11.195-11.066,16.868c-3.541,5.685-6.646,11.556-9.525,17.522c-2.904,5.956-5.623,11.989-8.912,17.782
				c-3.285,5.792-7.417,11.227-11.519,16.674c-4.092,5.452-8.116,10.933-10.919,16.93c-5.027,10.744-8.262,22.232-12.097,33.435
				c-3.814,11.236-8.77,22.04-11.838,33.563c-3.056,11.535-4.498,23.688-7.375,35.294c-2.874,11.603-6.53,22.935-9.037,34.702
				c-1.268,5.871-2.481,11.757-3.66,17.661c-1.2,5.896-2.424,11.784-3.548,17.731c-0.384,2.347,0.306,2.651,1.045,0.525
				c2.061-6.185,4.303-12.334,6.521-18.502c2.221-6.167,4.436-12.346,6.78-18.447c2.352-6.084,4.422-12.292,6.384-18.549
				c1.969-6.255,3.851-12.549,6.072-18.703c2.215-6.149,4.964-12.08,7.803-17.972c2.84-5.891,5.767-11.744,8.192-17.803
				c4.85-12.135,9.208-24.45,14.984-36.151c5.906-11.993,11.161-24.289,17.035-36.303c2.937-6.007,6.313-11.819,9.591-17.673
				c3.286-5.85,6.458-11.747,9.213-17.83c5.501-12.172,10.526-24.552,15.933-36.757c5.406-12.207,10.963-24.287,16.417-36.458
				c5.456-12.108,10.034-24.738,15.815-36.696c2.901-5.972,6.263-11.69,9.85-17.314c3.564-5.634,7.412-11.149,10.84-16.901
				c2.059-3.426,4.054-6.888,6.051-10.354l-17.831-0.341c2.169,9.153,4.527,18.256,6.357,27.512
				c2.596,13.195,5.011,26.479,8.178,39.481c3.156,12.816,7.213,25.347,11.254,37.832c4.03,12.495,9.736,24.358,14.247,36.671
				c4.521,12.305,7.388,25.223,11.848,37.55c4.47,12.315,10.432,24.073,14.187,36.654c4.134,13.796,8.683,27.521,13.978,40.969
				c5.276,13.449,11.807,26.425,19.364,38.977c3.995,6.62,8.58,12.97,13.051,19.354c4.492,6.377,8.848,12.797,12.83,19.393
				c7.968,13.164,15.493,26.649,23.262,40.008C446.255,487.548,446.226,487.538,445.553,486.385z"/>
		</g>
	</g>
</g>
</svg>
