<?xml version="1.0" encoding="utf-8"?>
<!-- Generator: Adobe Illustrator 15.0.0, SVG Export Plug-In . SVG Version: 6.00 Build 0)  -->
<!DOCTYPE svg PUBLIC "-//W3C//DTD SVG 1.1//EN" "http://www.w3.org/Graphics/SVG/1.1/DTD/svg11.dtd">
<svg version="1.1" id="Layer_1" xmlns="http://www.w3.org/2000/svg" xmlns:xlink="http://www.w3.org/1999/xlink" x="0px" y="0px"
	 width="595.28px" height="595.28px" viewBox="0 0 595.28 595.28" enable-background="new 0 0 595.28 595.28" xml:space="preserve">
<g>
	<g>
		<path fill="#FFFFFF" d="M217.022,92.282c0,0,74.783,167.857,0,410.716"/>
		<g>
			<g>
				<path d="M218.748,100.054c1.332,6.837,2.234,13.763,2.985,20.667c0.757,6.906,1.248,13.843,1.687,20.735
					c0.212,3.448,0.875,6.786,1.589,10.115c0.723,3.326,1.481,6.649,1.703,10.071c0.205,3.423,0.091,6.897-0.082,10.367
					c-0.191,3.474-0.397,6.935-0.352,10.347c0.069,3.406,0.4,6.766,0.713,10.129c0.339,3.357,0.625,6.723,0.599,10.121
					c-0.073,6.563-0.175,13.104-0.418,19.634c-0.229,6.536-2.536,13.184-2.935,19.646c-0.167,3.232,0.161,6.431,0.5,9.636
					c0.37,3.202,0.734,6.411,0.553,9.637c-0.317,6.449-0.424,12.87-0.666,19.297c-0.142,3.215-0.934,6.428-1.683,9.626
					c-0.75,3.201-1.552,6.385-1.581,9.583c-0.044,3.253,0.078,6.51,0.203,9.771c0.165,3.264,0.343,6.532,0.358,9.798
					c0.086,6.527,1.448,13.146,1.59,19.734c0.047,3.289-0.566,6.536-1.152,9.778c-0.607,3.24-1.204,6.475-1.114,9.776l0.169,9.919
					l0.082,9.948c0.011,3.32,0.188,6.669,0.362,10.028c0.151,3.354,0.267,6.716,0.181,10.055c-0.109,3.336,0.264,6.768,0.517,10.195
					c0.238,3.424,0.43,6.857,0.039,10.182c-0.725,6.647-1.793,13.25-2.523,19.933c-0.774,6.675-1.757,13.302-2.197,20.1
					c-0.458,6.804-0.657,13.688-0.806,20.643c-0.079,3.483-0.283,6.951-0.334,10.473c-0.019,1.763-0.033,3.529-0.012,5.308
					c0.059,1.789,0.08,3.568,0.182,5.373c0.231,3.117-0.037,3.048,0.328,0.057l1.069-10.342c0.369-3.438,0.758-6.861,1.249-10.246
					c0.934-6.765,2.732-13.241,4.318-19.821c0.771-3.287,1.307-6.657,1.801-10.032c0.518-3.37,0.992-6.744,1.881-10
					c0.877-3.26,2.205-6.397,3.586-9.537c1.38-3.139,2.825-6.276,3.79-9.54c1.927-6.538,4.002-13.076,5.525-19.72
					c1.547-6.635,0.785-13.642,1.94-20.316c1.184-6.681,2.23-13.384,3.18-20.108c0.935-6.718,3.631-13.284,4.435-20.063
					c0.793-6.77,1.833-13.532,2.519-20.332c0.685-6.81-1.019-13.715-0.384-20.507c0.618-6.691,2.666-13.389,3.266-20.14
					c0.623-6.733,3.915-13.52,4.387-20.343c0.447-6.831-3.735-13.496-3.387-20.28c0.339-6.79,3.844-13.82,3.748-20.686
					c-0.096-6.859-2.597-13.509-3.013-20.324c-0.461-7.063-1.1-14.116-2.15-21.112c-1.044-6.997-1.275-14.13-3.254-20.973
					c-1.899-6.854-3.442-13.789-6.42-20.367c-1.463-3.293-3.433-6.451-5.415-9.579c-1.985-3.129-3.984-6.232-5.791-9.369
					c-3.624-6.253-7.661-12.279-11.953-18.135c-1.683-2.233-3.073-3.834-3.938-4.918c-0.867-1.083-1.208-1.656-1.203-1.663
					c0.002-0.006,0.297,0.584,0.604,1.879C217.944,95.451,218.265,97.443,218.748,100.054z"/>
			</g>
		</g>
	</g>
	<g>
		<path fill="#FFFFFF" d="M92.282,246.095c0,0,167.857-74.783,410.716,0"/>
		<g>
			<g>
				<path d="M100.054,244.37c6.837-1.332,13.763-2.234,20.667-2.985c6.906-0.757,13.843-1.248,20.735-1.687
					c3.448-0.212,6.786-0.875,10.115-1.589c3.326-0.723,6.649-1.481,10.071-1.703c3.423-0.205,6.897-0.091,10.367,0.082
					c3.474,0.191,6.935,0.397,10.347,0.352c3.406-0.069,6.766-0.4,10.129-0.713c3.357-0.339,6.723-0.625,10.121-0.599
					c6.563,0.073,13.104,0.175,19.634,0.418c6.536,0.229,13.184,2.536,19.646,2.935c3.232,0.167,6.431-0.161,9.636-0.5
					c3.202-0.37,6.411-0.734,9.637-0.553c6.449,0.317,12.87,0.424,19.297,0.666c3.215,0.142,6.428,0.934,9.626,1.683
					c3.201,0.75,6.385,1.552,9.583,1.581c3.253,0.044,6.51-0.078,9.771-0.203c3.264-0.165,6.532-0.343,9.798-0.359
					c6.527-0.085,13.146-1.447,19.734-1.59c3.289-0.048,6.536,0.566,9.778,1.152c3.24,0.607,6.475,1.204,9.776,1.114l9.919-0.169
					l9.948-0.082c3.32-0.011,6.669-0.188,10.028-0.362c3.354-0.151,6.716-0.267,10.055-0.181c3.336,0.109,6.768-0.264,10.195-0.517
					c3.424-0.238,6.857-0.43,10.182-0.039c6.647,0.725,13.25,1.793,19.933,2.523c6.675,0.774,13.302,1.757,20.1,2.197
					c6.804,0.458,13.688,0.657,20.643,0.806c3.483,0.079,6.951,0.283,10.473,0.334c1.763,0.019,3.529,0.033,5.308,0.012
					c1.789-0.059,3.568-0.08,5.373-0.182c3.117-0.231,3.048,0.037,0.057-0.328l-10.342-1.069c-3.438-0.369-6.861-0.758-10.246-1.249
					c-6.765-0.934-13.241-2.732-19.821-4.318c-3.287-0.771-6.657-1.307-10.032-1.801c-3.37-0.518-6.744-0.992-10-1.881
					c-3.26-0.877-6.397-2.205-9.537-3.586c-3.139-1.38-6.276-2.825-9.54-3.79c-6.538-1.927-13.076-4.002-19.72-5.525
					c-6.635-1.547-13.642-0.785-20.316-1.94c-6.681-1.184-13.384-2.23-20.108-3.18c-6.718-0.935-13.284-3.631-20.063-4.435
					c-6.77-0.793-13.532-1.833-20.332-2.519c-6.81-0.685-13.715,1.019-20.507,0.384c-6.691-0.618-13.389-2.666-20.14-3.266
					c-6.733-0.623-13.52-3.915-20.343-4.387c-6.831-0.447-13.496,3.735-20.28,3.387c-6.79-0.339-13.82-3.844-20.686-3.748
					c-6.859,0.096-13.509,2.597-20.324,3.013c-7.063,0.461-14.116,1.1-21.112,2.15c-6.997,1.044-14.13,1.275-20.973,3.254
					c-6.854,1.899-13.789,3.442-20.367,6.42c-3.293,1.463-6.451,3.433-9.579,5.415c-3.129,1.985-6.232,3.984-9.369,5.791
					c-6.253,3.624-12.279,7.661-18.135,11.953c-2.233,1.683-3.834,3.073-4.918,3.938c-1.083,0.867-1.656,1.208-1.663,1.203
					c-0.006-0.002,0.584-0.297,1.879-0.604C95.451,245.173,97.443,244.853,100.054,244.37z"/>
			</g>
		</g>
	</g>
</g>
</svg>
