<?xml version="1.0" encoding="utf-8"?>
<!-- Generator: Adobe Illustrator 15.0.0, SVG Export Plug-In . SVG Version: 6.00 Build 0)  -->
<!DOCTYPE svg PUBLIC "-//W3C//DTD SVG 1.1//EN" "http://www.w3.org/Graphics/SVG/1.1/DTD/svg11.dtd">
<svg version="1.1" id="Layer_1" xmlns="http://www.w3.org/2000/svg" xmlns:xlink="http://www.w3.org/1999/xlink" x="0px" y="0px"
	 width="595.28px" height="595.28px" viewBox="0 0 595.28 595.28" enable-background="new 0 0 595.28 595.28" xml:space="preserve">
<g>
	<g>
		<circle fill="#FFFFFF" cx="297.64" cy="297.639" r="170.079"/>
		<g>
			<g>
				<g>
					<path d="M464.977,296.427c-0.277-15.229-3.464-30.176-7.499-44.645c-4.053-14.547-10.453-28.37-18.075-41.367
						c-3.812-6.507-7.563-13.099-11.787-19.48c-4.215-6.374-8.896-12.541-14.364-17.978c-5.462-5.435-10.911-10.937-16.764-16.119
						c-5.843-5.175-12.101-10.019-18.956-13.937c-13.726-7.856-28.805-13.207-44.19-17.151c-7.71-1.972-15.6-3.322-23.553-4.12
						c-1.988-0.204-3.981-0.37-5.977-0.506c-1.971-0.142-4.092-0.238-5.959-0.321c-4.074-0.148-8.033-0.19-12.066-0.12
						c-8.04,0.132-16.056,1.57-23.875,3.531c-7.832,1.972-15.466,4.467-23.133,6.762c-7.664,2.297-15.507,4.239-23.306,6.766
						c-7.783,2.519-15.508,5.651-22.498,10.108c-6.984,4.454-13.409,9.792-19.402,15.533c-6.002,5.745-11.581,11.882-17.071,18.078
						c-12.457,14.048-22.615,30.314-29.875,47.858c-3.631,8.751-6.075,17.973-7.741,27.271c-1.672,9.308-2.584,18.688-3.263,28.047
						c-1.354,18.676-0.531,37.698,3.842,56.085c2.179,9.186,4.762,18.296,8.024,27.202c3.259,8.9,7.196,17.599,12.012,25.799
						c4.741,8.076,10.459,15.548,16.688,22.488c6.233,6.949,12.976,13.369,19.912,19.536c6.942,6.174,14.061,12.201,21.663,17.671
						c7.594,5.463,15.681,10.356,24.297,14.127c8.607,3.765,17.416,7.121,26.466,9.768c9.044,2.646,18.33,4.575,27.712,5.473
						c4.682,0.445,9.388,0.512,14.069,0.296c1.184-0.062,2.308-0.122,3.544-0.215c0.59-0.047,1.25-0.087,1.781-0.143l1.607-0.167
						l0.201-0.021l0.101-0.011l0.107-0.002l0.014-0.001l0.027-0.003l0.054-0.006l0.436-0.049l0.87-0.097l1.739-0.208
						c1.157-0.143,2.313-0.303,3.466-0.471c9.232-1.353,18.254-3.412,27.229-5.397c8.078-1.789,16.276-3.284,24.397-5.414
						c8.104-2.12,16.131-4.87,23.428-8.953c7.296-4.084,13.757-9.447,19.702-15.145c5.96-5.708,11.406-11.752,17.055-17.488
						c5.646-5.734,11.61-11.209,17.223-17.133c5.599-5.911,10.833-12.281,14.737-19.388c3.902-7.102,6.926-14.611,9.397-22.212
						c2.475-7.609,4.421-15.3,6.235-22.975c1.818-7.685,2.672-15.537,2.986-23.327c0.32-7.797,0.131-15.532-0.084-23.211
						c-0.063-2.308-1.011-3.462-1.891-3.427c-0.895,0.005-1.722,1.283-1.702,3.507c0.079,8.349-0.965,16.723-2.68,24.888
						c-1.715,8.179-4.093,16.168-6.694,24.059c-2.602,7.889-5.123,15.867-8.318,23.681c-3.186,7.798-7.056,15.425-12.128,22.214
						c-5.069,6.789-11.252,12.668-17.771,17.953c-6.531,5.295-13.393,10.005-20.142,14.754
						c-13.479,9.49-28.062,17.645-43.805,22.518c-7.854,2.431-15.939,3.974-24.034,4.879c-8.102,0.908-16.213,1.183-24.285,1.124
						c-16.201-0.113-32.085-3.321-47.168-8.128c-7.558-2.404-15.038-5.045-22.305-8.237c-7.261-3.187-14.306-6.93-20.816-11.441
						c-6.511-4.511-12.858-9.255-18.849-14.445c-5.988-5.185-11.609-10.827-16.562-17.004c-5.021-6.258-9.17-13.176-12.745-20.297
						c-3.583-7.13-6.608-14.452-9.553-21.77c-5.887-14.642-9.292-30.209-10.841-45.902c-1.562-15.742-0.637-31.773,2.049-47.425
						c1.345-7.84,2.91-15.71,5.017-23.535c2.104-7.817,4.752-15.59,8.197-23.055c6.929-15.019,17.272-28.283,29.147-39.893
						c5.974-5.85,12.071-11.661,18.7-16.944c6.616-5.278,13.765-10.028,21.533-13.568c15.537-7.081,32.337-11.192,49.259-12.8
						c16.9-1.606,33.924,0.219,50.325,3.812c14.695,3.218,28.967,8.208,42.202,15.168c13.264,6.956,25.381,15.869,36.321,25.941
						c10.969,10.099,20.264,21.867,28.296,34.358c8.012,12.469,15.21,25.706,19.916,40.035c4.698,14.288,6.851,29.356,7.896,44.498
						C463.239,298.073,465.004,297.962,464.977,296.427z"/>
				</g>
			</g>
		</g>
	</g>
	<g>
		<g>
			<g>
				<path d="M526.385,297.265c-2.147,4.479-8.472,4.429-18.167,2.515c-2.415-0.465-5.124-1.072-7.919-1.673
					c-2.738-0.577-5.824-0.903-9.199-1.138c-3.377-0.247-7.039-0.386-10.95-0.938c-3.945-0.547-7.937-1.701-12.048-2.813
					c-4.14-1.116-8.309-2.141-12.795-2.299c-4.614-0.247-9.431-0.325-14.429-0.226c-2.498,0.046-5.042,0.144-7.627,0.282
					c-2.497,0.131-5.048,0.459-7.651,0.92c-5.21,0.897-10.602,2.297-16.387,3.085c-5.794,0.789-11.747,0.831-17.583,1.497
					c-2.905,0.35-5.835,0.799-8.508,1.681c-2.73,0.901-5.446,2.224-8.225,3.646c-2.784,1.416-5.64,2.926-8.71,4.124
					c-3.166,1.232-6.222,1.834-9.26,2.73l-18.489,5.391c-11.257,3.31-22.59,6.913-34.154,9.739
					c-5.791,1.468-11.59,2.881-17.385,4.201c-5.982,1.24-11.924,1.772-17.588,2.515c-11.419,1.69-22.677,2.931-33.545,3.617
					c-4.982,0.68-10.071,2.251-15.462,3.335c-2.689,0.545-5.461,0.955-8.295,1.045c-2.621,0.025-5.208,0.018-7.756-0.026
					c-5.032-0.103-9.908-0.334-14.601-0.668c-2.404-0.184-4.761-0.406-7.066-0.646c-2.485-0.357-4.823-0.948-7.021-1.614
					c-8.817-2.826-15.346-5.876-21.229-5.967c-6.144-0.302-12.482,0.263-17.845-0.667c-5.498-0.86-9.428-2.985-11.743-4.298
					c-5.005-2.908-9.008-6.197-12.708-8.522c-0.925-0.595-1.823-1.128-2.713-1.601l-2.972-1.666c-1.972-1.16-3.869-2.32-5.697-3.455
					c-7.299-4.593-13.104-9.63-17.919-13.548c-9.48-8.247-13.377-15.229-11.611-18.542c1.977-3.286,9.166-2.365,20.177,1.083
					c5.59,1.527,11.731,4.487,18.883,7.522c1.774,0.789,3.608,1.59,5.501,2.383l2.926,1.258c1.11,0.468,2.2,0.991,3.249,1.582
					c4.229,2.323,8.083,5.405,12.005,7.759c1.911,1.118,4.491,2.639,8.176,3.328c3.771,0.822,8.99,0.475,15.661,0.984
					c3.352,0.28,7.098,1.253,10.563,2.667c3.529,1.373,7.058,3.091,10.625,4.451c3.622,1.469,6.917,2.05,11.347,2.581
					c4.221,0.558,8.628,1.035,13.204,1.405c2.28,0.185,4.602,0.342,6.962,0.471c2.12,0.093,4.338-0.065,6.646-0.379
					c4.628-0.608,9.571-1.925,15.063-2.448c10.689-0.329,20.964-0.308,32.471-1.453c5.703-0.4,11.401-0.535,16.9-1.227
					c5.597-0.883,11.242-1.853,16.917-2.889c11.448-2,22.91-4.747,34.384-7.294l18.843-4.525l4.663-1.155l2.323-0.579
					c0.723-0.21,1.417-0.383,2.121-0.642c2.81-0.943,5.573-2.34,8.409-3.792c2.832-1.454,5.735-2.991,8.842-4.177
					c3.132-1.248,6.401-1.883,9.489-2.4c6.267-1.017,12.354-1.351,17.983-2.358c5.604-1.011,11.126-2.758,16.779-4.155
					c2.828-0.697,5.683-1.31,8.576-1.699c2.796-0.361,5.563-0.673,8.298-0.933c5.447-0.511,10.764-0.818,15.91-0.922
					c5.274-0.219,10.583,0.619,15.179,1.565c4.665,0.949,8.882,1.938,12.837,2.433c3.991,0.516,7.985,0.73,11.835,1.188
					c3.847,0.443,7.551,1.123,10.899,2.271c3.258,1.143,5.986,2.318,8.488,3.542c4.948,2.452,8.517,5.026,10.573,7.488
					C526.895,292.69,527.438,295.048,526.385,297.265z"/>
			</g>
		</g>
	</g>
</g>
</svg>
