<?xml version="1.0" encoding="utf-8"?>
<!-- Generator: Adobe Illustrator 15.0.0, SVG Export Plug-In . SVG Version: 6.00 Build 0)  -->
<!DOCTYPE svg PUBLIC "-//W3C//DTD SVG 1.1//EN" "http://www.w3.org/Graphics/SVG/1.1/DTD/svg11.dtd">
<svg version="1.1" id="Layer_1" xmlns="http://www.w3.org/2000/svg" xmlns:xlink="http://www.w3.org/1999/xlink" x="0px" y="0px"
	 width="595.28px" height="595.28px" viewBox="0 0 595.28 595.28" enable-background="new 0 0 595.28 595.28" xml:space="preserve">
<g>
	<g>
		<circle fill="#FFFFFF" cx="297.641" cy="262.64" r="141.733"/>
		<g>
			<g>
				<g>
					<path d="M298.368,401.633c12.658-0.235,25.037-3.029,37.044-6.333c12.082-3.321,23.536-8.646,34.359-14.897
						c5.42-3.126,10.971-6.12,16.369-9.519c5.391-3.39,10.63-7.18,15.203-11.698c4.569-4.512,9.274-8.953,13.73-13.75
						c4.449-4.788,8.638-9.942,11.978-15.65c6.698-11.433,11.207-24.056,14.659-36.922c1.727-6.449,2.914-13.061,3.639-19.731
						c0.186-1.668,0.339-3.339,0.468-5.014c0.133-1.649,0.229-3.45,0.313-4.996c0.155-3.431,0.224-6.749,0.203-10.141
						c-0.034-6.76-1.286-13.497-2.976-20.056c-1.699-6.571-3.835-12.963-5.69-19.424c-1.856-6.458-3.277-13.132-5.209-19.802
						c-1.923-6.653-4.38-13.291-8.09-19.235c-3.706-5.94-8.225-11.369-13.08-16.427c-4.86-5.066-10.049-9.769-15.245-14.452
						c-11.781-10.629-25.492-19.307-40.311-25.513c-7.393-3.104-15.214-5.127-23.087-6.485c-7.884-1.363-15.814-2.077-23.717-2.669
						c-15.764-1.181-31.844-0.627-47.405,3.03c-7.77,1.822-15.492,3.937-23.056,6.626c-7.559,2.687-14.959,5.948-21.924,9.992
						c-6.86,3.981-13.173,8.848-19.027,14.145c-5.862,5.301-11.266,11.03-16.499,16.88c-5.239,5.856-10.413,11.818-15.121,18.207
						c-4.702,6.379-8.928,13.194-12.129,20.495c-3.197,7.292-6.085,14.742-8.37,22.405c-2.284,7.656-3.958,15.526-4.708,23.484
						c-0.373,3.97-0.393,7.964-0.157,11.932c0.065,1.005,0.131,1.951,0.225,3.009c0.046,0.501,0.088,1.071,0.143,1.513l0.166,1.34
						l0.021,0.167l0.01,0.084l0.001,0.104l0.001,0.012l0.003,0.023l0.006,0.046l0.047,0.369l0.095,0.737l0.201,1.471
						c0.138,0.979,0.291,1.957,0.451,2.932c1.287,7.808,3.174,15.409,4.878,22.98c1.537,6.813,2.692,13.755,4.393,20.649
						c1.693,6.879,3.931,13.708,7.427,19.858c3.497,6.15,8.2,11.516,13.169,16.414c4.979,4.913,10.223,9.361,15.088,14.063
						c4.863,4.699,9.393,9.765,14.315,14.548c4.909,4.77,10.219,9.244,16.231,12.472c6.007,3.226,12.382,5.648,18.813,7.601
						c6.438,1.955,12.924,3.459,19.362,4.917c6.447,1.462,13.044,2.042,19.565,2.172c6.528,0.136,12.981-0.153,19.372-0.38
						c1.919-0.068,2.887-1.01,2.859-1.892c0.003-0.894-1.074-1.725-2.908-1.701c-6.917,0.094-13.858-0.827-20.607-2.311
						c-6.764-1.483-13.355-3.522-19.883-5.681c-6.526-2.158-13.176-4.132-19.71-6.682c-6.52-2.541-12.917-5.669-18.538-9.91
						c-5.621-4.238-10.397-9.502-14.653-15.024c-4.267-5.535-8.023-11.322-11.905-16.931c-7.754-11.198-14.519-23.234-18.419-36.282
						c-1.945-6.508-3.105-13.208-3.735-19.899c-0.631-6.697-0.738-13.383-0.618-20.025c0.237-13.338,3.141-26.343,7.212-38.658
						c2.037-6.173,4.205-12.294,6.822-18.247c2.613-5.946,5.682-11.72,9.427-17.021c3.744-5.3,7.63-10.493,11.88-15.401
						c4.245-4.905,8.865-9.515,13.951-13.54c5.153-4.081,10.892-7.373,16.775-10.187c5.891-2.821,11.916-5.179,17.892-7.561
						c11.963-4.762,24.665-7.461,37.464-8.757c12.847-1.307,25.928-0.567,38.75,1.491c6.425,1.031,12.905,2.173,19.383,3.754
						c6.472,1.579,12.938,3.598,19.156,6.318c12.513,5.475,23.507,13.986,33.17,23.732c4.871,4.904,9.788,9.86,14.271,15.287
						c4.478,5.414,8.517,11.301,11.446,17.754c5.86,12.909,9.159,26.887,10.402,40.927c1.244,14.031-0.51,28.125-3.587,41.662
						c-2.757,12.134-6.928,23.912-12.744,34.815c-5.813,10.927-13.257,20.87-21.597,29.875c-8.366,9.03-18.132,16.626-28.43,23.262
						c-10.278,6.618-21.136,12.725-32.974,16.688c-11.804,3.954-24.273,5.709-36.819,6.714
						C297.006,399.892,297.093,401.656,298.368,401.633z"/>
				</g>
			</g>
		</g>
	</g>
	<g>
		<g>
			<g>
				<path d="M149.207,109.09c5.701,11.63,11.144,23.347,16.63,35.056c5.438,11.713,10.707,23.484,15.446,35.454
					c2.505,6.333,5.272,12.593,8.006,18.853c2.722,6.265,5.409,12.531,7.554,18.951c2.149,6.418,3.581,13.031,4.814,19.718
					c1.241,6.684,2.286,13.442,3.83,20.085c2.885,12.457,6.612,24.725,8.974,37.333c2.344,12.61,5.42,24.998,8.462,37.445
					c3.23,13.281,3.78,27.406,8.147,40.309c4.352,12.901,8.703,25.792,13.29,38.601c4.438,12.453,10.648,24.321,15.261,36.705
					c4.661,12.374,10.531,24.33,15.175,36.708l2.521,6.834l11.036,29.91l12.71-29.456c4.276-9.91,8.721-19.743,12.797-29.739
					c4.993-12.247,9.609-24.654,14.505-36.942c4.887-12.291,8.896-24.957,13.757-37.26c4.872-12.296,11.179-23.98,15.935-36.329
					c4.727-12.356,8.009-25.332,12.841-37.648c4.846-12.307,11.233-23.956,15.917-36.337c4.222-11.082,8.086-22.305,12.154-33.41
					c4.081-11.125,8.613-22.105,12.578-33.253c3.975-11.151,7.576-22.398,11.663-33.497c4.088-11.094,8.474-22.121,12.565-33.225
					c4.102-11.085,8.21-22.137,12.419-33.21c0.816-2.165,0.241-2.422-0.627-0.35l-14.914,36.273
					c-4.991,12.048-9.576,24.29-14.423,36.428c-4.842,12.127-10.321,24.003-15.281,36.073c-4.954,12.091-9.705,24.243-14.909,36.184
					c-5.349,12.227-10.444,24.589-15.759,36.836c-5.309,12.253-11.458,24.106-16.873,36.313c-5.41,12.21-10.528,24.552-16.05,36.708
					c-5.522,12.158-11.544,24.043-17.354,36.064c-5.799,11.965-9.973,24.764-15.906,36.658
					c-5.923,11.894-14.395,22.475-20.54,34.278c-1.827,3.523-3.567,7.092-5.283,10.676l18.148,0.347
					c-2.849-8.898-5.896-17.743-8.422-26.738c-3.604-12.817-6.998-25.734-10.686-38.541c-3.654-12.63-7.824-25.118-12.17-37.488
					c-4.337-12.381-9.98-24.268-14.766-36.478c-4.789-12.204-8.454-24.823-13.182-37.05c-4.745-12.212-10.408-24.083-14.533-36.524
					c-4.548-13.641-9.367-27.265-14.658-40.713c-5.279-13.449-11.342-26.599-18.033-39.476c-3.531-6.795-7.417-13.406-11.235-20.035
					c-1.899-3.318-3.817-6.627-5.659-9.969c-1.838-3.342-3.637-6.703-5.388-10.091c-3.472-6.774-6.914-13.598-10.32-20.451
					l-10.178-20.593C148.597,107.893,148.62,107.905,149.207,109.09z"/>
			</g>
		</g>
	</g>
</g>
</svg>
