<?xml version="1.0" encoding="utf-8"?>
<!-- Generator: Adobe Illustrator 15.0.0, SVG Export Plug-In . SVG Version: 6.00 Build 0)  -->
<!DOCTYPE svg PUBLIC "-//W3C//DTD SVG 1.1//EN" "http://www.w3.org/Graphics/SVG/1.1/DTD/svg11.dtd">
<svg version="1.1" id="Layer_1" xmlns="http://www.w3.org/2000/svg" xmlns:xlink="http://www.w3.org/1999/xlink" x="0px" y="0px"
	 width="595.28px" height="595.28px" viewBox="0 0 595.28 595.28" enable-background="new 0 0 595.28 595.28" xml:space="preserve">
<g>
	<polyline fill="#FFFFFF" points="141.601,112.58 453.68,482.7 141.601,482.7 368.594,127.327 	"/>
	<g>
		<g>
			<path d="M361.551,134.706c-11.053,14.388-21.998,29.289-33.056,44.032c-2.737,3.649-5.525,7.26-8.354,10.843
				c-2.81,3.595-5.655,7.167-8.521,10.731c-5.731,7.13-11.486,14.271-17,21.648c-5.484,7.34-10.545,15.032-15.508,22.794
				c-4.974,7.755-9.847,15.583-15.169,23.059c-10.624,14.975-21.947,29.426-32.443,44.401
				c-10.543,15.097-22.049,29.391-32.428,44.366c-11.745,16.979-23.424,34.01-34.671,51.331
				c-11.229,17.312-20.396,36.1-31.27,53.657c-2.331,3.756-4.742,7.455-7.195,11.126l-18.684,27.956l34.348,0.636
				c16.198,0.3,32.361,1.228,48.589,0.851c10.325-0.239,20.651-0.448,30.977-0.773c10.326-0.324,20.651-0.751,30.975-1.272
				c20.646-1.063,41.302-2.678,61.942-4.226c19.84-1.505,39.762-3.183,59.711-4.266c19.855-1.073,39.724-1.495,59.66-1.716
				c6.734-0.057,13.478-0.113,20.225-0.091l15.26,0.05l-9.837-11.716c-8.467-10.084-16.756-20.341-24.763-30.823
				c-6.04-7.92-11.898-16-17.634-24.187c-2.868-4.093-5.703-8.215-8.519-12.354l-8.463-12.401
				c-5.649-8.26-11.366-16.47-17.171-24.604l-17.516-24.302c-11.672-16.212-24.101-31.761-36.92-46.961
				c-6.414-7.62-13.082-14.987-19.86-22.25l-20.314-21.799c-13.532-14.624-26.952-29.37-40.908-43.508
				c-13.958-14.207-27.883-28.584-42.113-42.389c-7.128-6.926-14.357-13.547-21.498-20.215
				c-7.152-6.659-14.202-13.378-21.198-20.312c-8.688-8.591-14.414-13.964-17.524-16.879c-3.135-2.895-3.693-3.297-2.672-1.419
				c0.959,1.735,3.136,5.331,6.648,10.984c3.534,5.635,8.38,13.347,15.344,22.752c11.467,15.469,23.695,30.005,35.915,44.807
				c12.257,14.819,23.992,30.453,36.48,45.053c12.536,14.601,24.974,29.33,37.686,43.771c12.722,14.456,26.552,27.638,39.416,41.974
				c12.837,14.363,24.719,29.837,37.719,44.079c12.96,14.264,25.833,28.602,38.653,43.011c6.409,7.196,12.944,14.228,19.4,21.33
				c6.461,7.099,12.854,14.261,19.125,21.593c8.416,9.842,16.745,19.813,25.104,29.756l0.159-0.344l-18.984,0.014
				c-19.266,0.089-38.619-0.265-57.932-0.254l-57.858,0.11c-19.356,0.024-38.659,0.988-58.016,1.224
				c-19.353,0.185-38.672,1.218-58.025,1.455l-58.06,0.942l-3.204,0.024l-6.042,0.046l3.255-5.133
				c9.797-15.447,20.938-30.099,30.665-45.586c10.288-16.397,19.084-33.698,29.448-50.042c10.37-16.338,22.122-32.012,32.528-48.574
				c10.327-16.442,19.754-33.489,30.311-49.897c10.535-16.385,21.768-32.375,32.419-48.651
				c10.72-16.333,21.679-32.409,32.466-48.524l32.468-48.463c4.677-7.041,7.772-12.235,8.622-13.776
				C368.582,125.861,366.892,127.787,361.551,134.706z"/>
		</g>
		<g>
			<path d="M165.291,149.541c10.741,15.334,21.759,30.484,32.805,45.595c11.046,15.089,21.676,30.447,32.945,45.374
				c11.252,14.924,23.644,29.035,35.246,43.684c5.793,7.325,11.675,14.581,17.596,21.805c5.916,7.229,11.889,14.41,17.926,21.535
				c12.031,14.279,23.163,29.173,36.086,42.705c12.886,13.567,26.26,26.738,39.459,40.037
				c13.216,13.297,26.408,26.621,39.113,40.341c11.02,11.891,21.563,24.124,31.938,36.531l5.275-11.349l-7.475-0.039
				c-18.691-0.118-37.489,0.091-56.167-0.79c-18.676-0.911-37.354-2.177-56.014-3.71c-20.348-1.655-40.64-4.183-60.985-5.831
				c-20.357-1.621-40.693-3.229-61.038-4.072l-61.057-2.251l-9.343-0.378l20.202,36.875c9.865-14.16,20.072-28.104,29.572-42.485
				c11.251-16.969,21.613-34.488,32.225-51.848c10.627-17.368,21.133-34.813,31.223-52.499
				c10.096-17.703,19.085-35.995,28.899-53.849c9.791-17.888,19.264-35.907,28.782-53.939c9.529-18.039,19.202-36.024,28.407-54.238
				c6.91-13.883,3.077-13.333-4.834,0.167c-9.173,15.977-18.266,31.99-27.598,47.869c-9.319,15.883-19.213,31.385-28.79,47.107
				c-9.585,15.713-18.014,32.198-27.7,47.852c-9.692,15.642-20.426,30.572-30.379,46.051c-9.933,15.483-20.417,30.582-30.572,45.925
				c-10.146,15.348-18.802,31.784-29.147,47.005c-4.255,6.267-8.568,12.489-12.888,18.707l-7.402-13.513
				c10.815,0.437,21.628,0.887,32.45,1.191c18.393,0.545,36.682,2.084,55.072,2.588c18.39,0.494,36.867,0.297,55.253,0.941
				c18.386,0.617,36.786,1.164,55.169,1.661c18.401,0.471,36.942,0.457,55.372,0.796c18.402,0.327,36.751,0.715,55.176,0.857
				l3.586,0.025l-0.554,1.19l-33.188-39.624c-11.795-14.13-23.237-28.454-34.842-42.761c-11.644-14.261-22.627-28.952-34.064-43.396
				c-11.442-14.438-23.629-28.394-35.195-42.725c-11.558-14.358-21.752-29.628-33.493-43.823
				c-11.768-14.189-25.533-26.958-37.362-41.079c-11.86-14.128-23.224-28.56-35.355-42.43
				c-12.095-13.938-23.844-28.131-36.312-41.718c-7.256-7.917-13.614-14.059-18.12-18.38c-4.527-4.304-7.216-6.775-7.802-6.789
				c-0.592-0.014,0.848,2.577,3.872,7.582c1.522,2.494,3.431,5.599,5.771,9.207C159.364,140.849,162.095,144.993,165.291,149.541z"
				/>
		</g>
	</g>
</g>
</svg>
