<?xml version="1.0" encoding="utf-8"?>
<!-- Generator: Adobe Illustrator 15.0.0, SVG Export Plug-In . SVG Version: 6.00 Build 0)  -->
<!DOCTYPE svg PUBLIC "-//W3C//DTD SVG 1.1//EN" "http://www.w3.org/Graphics/SVG/1.1/DTD/svg11.dtd">
<svg version="1.1" id="Layer_1" xmlns="http://www.w3.org/2000/svg" xmlns:xlink="http://www.w3.org/1999/xlink" x="0px" y="0px"
	 width="595.28px" height="595.28px" viewBox="0 0 595.28 595.28" enable-background="new 0 0 595.28 595.28" xml:space="preserve">
<g>
	<g>
		<g>
			<path d="M151.001,132.852c0.292,0.073,0.929,2.616,2.12,7.309l4.961,20.192l3.38,14.23c0.58,2.467,1.25,5.05,1.971,7.755
				c0.703,2.707,1.48,5.533,2.328,8.481c1.694,5.9,3.599,12.301,5.352,19.28c1.777,7.035,3.013,14.318,4.135,21.653
				c1.11,7.397,2.104,14.683,3.894,22.27c1.792,7.82,3.67,15.882,5.727,24.125c1.002,4.126,2.093,8.289,3.175,12.5
				c1.061,4.067,2.348,8.175,3.786,12.339c2.867,8.33,6.387,16.814,9.256,25.82c2.864,9.021,4.784,18.221,7.51,27.055
				c1.379,4.393,2.938,8.769,4.954,12.654c2.077,3.961,4.716,7.769,7.503,11.561c2.816,3.784,5.73,7.587,8.474,11.604
				c2.779,4.166,4.894,8.201,7.399,12.037c5,7.674,10.57,14.844,16.729,21.053c5.57,5.605,11.686,10.308,18.129,13.713
				c6.443,3.422,13.185,5.534,20.102,6.231c6.947,0.672,14.098-0.216,21.159-2.504c7.274-2.228,14.534-5.421,21.104-9.703
				c6.603-4.372,12.801-9.642,18.521-15.388c5.728-5.75,10.971-11.988,15.824-18.407c4.252-6.122,7.73-13.108,11.313-20.334
				c1.787-3.613,3.618-7.305,5.585-11.013c1.864-3.404,3.641-6.807,5.339-10.196c3.361-6.688,6.407-13.314,9.182-19.796
				c1.428-3.318,2.792-6.598,4.084-9.834c1.455-3.474,2.911-6.754,4.307-9.872c5.664-12.485,9.663-22.531,11.592-31.354
				c2.11-9.247,3.53-18.547,5.271-26.67c1.74-8.311,3.51-14.733,4.544-18.61c2.285-8.366,4.268-15.657,5.662-22.224
				c0.356-1.645,0.668-3.232,0.955-4.782l0.953-5.235c0.635-3.511,1.22-6.935,1.759-10.264c2.174-13.312,3.799-25.052,4.808-34.811
				c2.122-19.503,2.647-30.908,3.112-30.763c0.222,0.065,0.413,3.009,0.597,8.436c0.19,5.425,0.31,13.326,0.278,23.307
				c0.002,4.996-0.092,10.497-0.298,16.457c-0.217,5.959-0.579,12.374-1.045,19.204c-0.246,3.413-0.521,6.928-0.833,10.536
				l-0.52,5.589c-0.203,2.113-0.44,4.221-0.715,6.286c-1.084,8.309-2.688,16.18-4.246,23.664c-0.745,3.649-1.811,8.502-2.786,14.93
				c-1.076,6.604-1.866,15.402-3.916,27.009c-1.046,5.823-2.722,12.43-4.75,18.418c-2.023,6.104-4.422,12.052-6.809,17.892
				c-2.49,5.915-4.428,11.235-7.137,18.328c-2.629,6.736-5.546,13.653-8.813,20.681c-1.629,3.501-3.345,7.028-5.154,10.569
				c-1.615,3.188-3.221,6.583-4.897,10.151c-3.374,7.124-6.95,15.021-12.085,22.957c-5.183,7.493-10.825,14.373-17.086,20.859
				c-6.27,6.475-13.165,12.571-21.094,18.167c-7.922,5.394-16.525,9.378-25.188,12.185c-8.824,3.055-18.273,4.518-27.589,3.905
				c-9.375-0.623-18.531-3.212-26.876-7.338c-8.362-4.117-15.933-9.698-22.612-16.126c-7.475-7.013-13.963-14.994-19.66-23.409
				c-1.443-2.087-2.835-4.21-4.191-6.356l-2.007-3.227c-0.652-1-1.232-1.978-1.921-2.949c-2.625-3.903-5.688-7.719-8.783-11.73
				c-3.097-4.001-6.256-8.188-8.97-12.812c-2.802-4.653-4.784-9.668-6.478-14.434c-3.396-9.678-5.6-19.233-8.448-28.04
				c-2.838-8.769-6.453-17.404-9.569-26.284c-1.558-4.442-3.006-8.933-4.195-13.507c-1.137-4.42-2.203-8.8-3.203-13.131
				c-1.988-8.627-3.718-17.058-5.231-25.234c-1.647-8.355-2.34-16.949-2.899-24.5c-0.562-7.656-1.095-14.665-1.936-21.101
				c-0.841-6.499-1.875-12.874-2.663-19.07c-0.802-6.193-1.371-12.214-1.645-17.919c-0.26-5.564-0.401-10.346-0.516-14.831
				c-0.212-8.884-0.26-15.833-0.296-20.54C150.755,135.241,150.707,132.776,151.001,132.852z"/>
		</g>
	</g>
	<g>
		<circle fill="#FFFFFF" cx="297.641" cy="344.963" r="56.692"/>
		<g>
			<g>
				<g>
					<path d="M243.141,345.357c0.17,4.981,1.702,9.735,2.942,14.398c1.259,4.715,3.442,9.107,5.756,13.387
						c1.157,2.145,2.074,4.483,3.168,6.82c1.096,2.322,2.369,4.644,4.112,6.544c1.73,1.904,3.3,4.044,5.05,6.131
						c1.745,2.08,3.685,4.089,5.976,5.575c4.598,2.975,9.809,4.832,15.08,6.535c2.649,0.847,5.389,1.446,8.165,1.837
						c0.685,0.102,1.393,0.192,2.131,0.268l1.994,0.21l2.175,0.154c0.706,0.045,1.414,0.086,2.124,0.114
						c2.849,0.138,5.671-0.543,8.387-1.379c2.725-0.859,5.346-1.872,8.088-2.521c2.747-0.633,5.735-0.776,8.804-1.16
						c3.051-0.388,6.174-1.035,8.818-2.545c2.643-1.503,4.969-3.506,7.115-5.65c2.157-2.145,4.132-4.432,6.242-6.61
						c4.78-4.951,8.679-10.86,11.457-17.297c1.391-3.213,2.118-6.683,2.547-10.138c0.423-3.466,0.556-6.915,0.811-10.326
						c0.51-6.794,0.517-13.771-1.067-20.544c-1.563-6.711-3.228-13.66-6.707-19.85c-1.709-3.028-3.929-5.741-6.337-8.217
						c-2.408-2.486-4.993-4.746-7.534-7.03c-2.539-2.292-5.029-4.683-7.734-6.896c-2.704-2.198-5.631-4.209-8.861-5.591
						c-6.409-2.751-13.128-5.348-20.203-5.875c-0.877-0.073-1.76-0.067-2.639-0.038c-0.894,0.051-1.721,0.125-2.706,0.255
						l-0.711,0.099l-0.347,0.054l-0.269,0.063l-1.074,0.265l-0.067,0.018l-0.033,0.008c-0.068,0,0.147,0.002-0.154,0l-0.005,0.001
						l-0.01,0.002l-0.02,0.005l-0.161,0.038l-0.322,0.077l-0.641,0.157c-0.427,0.103-0.852,0.218-1.275,0.338
						c-3.391,0.938-6.621,2.148-9.856,2.994c-2.913,0.755-5.943,1.048-9,1.585c-3.039,0.544-6.102,1.339-8.705,3.004
						c-2.61,1.652-4.681,4.133-6.48,6.674c-1.808,2.555-3.343,5.173-5.182,7.35c-1.834,2.177-4.07,3.935-6.206,5.899
						c-2.135,1.945-4.16,4.104-5.356,6.741c-1.192,2.636-1.892,5.48-2.38,8.295c-0.484,2.822-0.775,5.605-1.186,8.293
						c-0.426,2.69-0.296,5.462-0.001,8.14c0.302,2.684,0.764,5.286,1.006,7.813c0.156,1.556,2.961,1.546,2.874-0.013
						c-0.145-2.626,0.307-5.35,0.993-7.917c0.687-2.589,1.605-5.076,2.405-7.586c0.807-2.506,1.25-5.182,1.963-7.866
						c0.709-2.669,1.685-5.349,3.388-7.53c1.693-2.188,4.042-3.829,6.442-5.209c2.41-1.391,4.876-2.515,7.057-3.92
						c4.353-2.795,8.854-5.49,13.877-6.741c5.034-1.25,10.254-0.776,15.124-0.407c0.307,0.018,0.614,0.048,0.92,0.083l0.458,0.051
						l0.229,0.026l0.029,0.003l0.014,0.001l0.007,0.001c0.024,0-0.203-0.001-0.104,0l0.004,0l0.067,0.008l0.134,0.017l1.072,0.139
						c0.358,0.048,0.573,0.11,0.865,0.165c1.117,0.229,2.364,0.518,3.508,0.858c2.327,0.667,4.562,1.507,6.741,2.367
						c2.18,0.858,4.369,1.615,6.518,2.523c2.142,0.91,4.235,1.984,6.078,3.417c3.647,2.845,7.547,5.514,10.356,9.268
						c1.415,1.888,2.362,4.107,3.126,6.319c0.763,2.223,1.357,4.43,2.163,6.518c1.629,4.186,2.448,8.6,3.049,13.042
						c0.606,4.481,0.461,9.051,0.144,13.659c-0.312,4.587-0.161,9.759-1.562,14.783c-1.397,5.029-4.48,9.333-7.965,13.225
						c-1.755,1.966-3.41,4.143-5.323,6.155c-1.9,2.014-4.066,3.852-6.581,5.016c-5.038,2.316-10.56,3.407-16.02,3.752
						c-2.739,0.178-5.438-0.031-8.18-0.456c-2.62-0.418-5.283-1.05-7.841-1.73c-4.601-1.209-9.059-2.842-13.148-5.149
						c-4.099-2.306-7.749-5.261-11.127-8.418c-3.397-3.175-6.128-6.942-8.701-10.758c-2.564-3.803-5.333-7.692-7.079-12.16
						c-1.735-4.456-2.424-9.222-3.214-14.061C244.532,344.825,243.121,344.856,243.141,345.357z"/>
				</g>
			</g>
		</g>
	</g>
</g>
</svg>
