<?xml version="1.0" encoding="utf-8"?>
<!-- Generator: Adobe Illustrator 15.0.0, SVG Export Plug-In . SVG Version: 6.00 Build 0)  -->
<!DOCTYPE svg PUBLIC "-//W3C//DTD SVG 1.1//EN" "http://www.w3.org/Graphics/SVG/1.1/DTD/svg11.dtd">
<svg version="1.1" id="Layer_1" xmlns="http://www.w3.org/2000/svg" xmlns:xlink="http://www.w3.org/1999/xlink" x="0px" y="0px"
	 width="595.28px" height="595.28px" viewBox="0 0 595.28 595.28" enable-background="new 0 0 595.28 595.28" xml:space="preserve">
<g>
	<g>
		<g>
			<g>
				<path d="M507.887,349.935c-2.28,4.411-8.178,4.378-17.008,2.512c-2.199-0.454-4.659-1.047-7.194-1.636
					c-2.482-0.565-5.293-0.882-8.361-1.105c-3.069-0.239-6.395-0.366-9.928-0.908c-3.563-0.538-7.152-1.684-10.867-2.79
					c-3.738-1.111-7.521-2.136-11.603-2.292c-4.197-0.247-8.587-0.326-13.147-0.229c-2.279,0.045-4.604,0.143-6.966,0.279
					c-2.283,0.13-4.613,0.457-6.989,0.916c-4.757,0.895-9.671,2.288-14.974,3.073c-5.31,0.782-10.805,0.827-16.183,1.491
					c-2.676,0.351-5.374,0.797-7.817,1.677c-2.497,0.898-4.963,2.214-7.484,3.631c-2.526,1.408-5.116,2.911-7.92,4.104
					c-2.89,1.228-5.707,1.828-8.495,2.722l-16.994,5.376c-10.355,3.303-20.787,6.902-31.481,9.735
					c-5.353,1.473-10.719,2.89-16.088,4.217c-5.547,1.248-11.084,1.792-16.354,2.543c-10.619,1.708-21.109,2.967-31.246,3.665
					c-4.639,0.686-9.366,2.26-14.394,3.347c-2.506,0.547-5.096,0.955-7.745,1.046c-2.451,0.024-4.87,0.016-7.253-0.028
					c-4.706-0.104-9.267-0.342-13.654-0.684c-2.248-0.188-4.45-0.411-6.604-0.657c-2.321-0.363-4.501-0.96-6.547-1.632
					c-8.208-2.848-14.228-5.915-19.718-6.027c-5.728-0.321-11.674,0.215-16.666-0.738c-5.12-0.884-8.722-3.02-10.837-4.336
					c-4.572-2.916-8.171-6.202-11.525-8.522c-0.835-0.6-1.655-1.123-2.463-1.602l-2.702-1.662c-1.788-1.159-3.508-2.311-5.159-3.444
					c-6.601-4.57-11.753-9.564-16.038-13.434c-8.407-8.148-11.605-14.991-9.732-18.247c2.087-3.215,8.781-2.319,18.839,1.064
					c5.12,1.496,10.649,4.413,17.108,7.405c1.6,0.78,3.252,1.573,4.962,2.354l2.638,1.245c1.001,0.462,1.98,0.982,2.92,1.566
					c3.787,2.298,7.194,5.364,10.712,7.702c1.713,1.114,4.032,2.625,7.4,3.318c3.445,0.82,8.259,0.479,14.361,0.994
					c3.066,0.278,6.472,1.257,9.621,2.669c3.207,1.377,6.416,3.099,9.676,4.462c3.309,1.475,6.336,2.06,10.407,2.595
					c3.88,0.563,7.936,1.048,12.152,1.42c2.101,0.186,4.242,0.346,6.419,0.477c1.955,0.096,4-0.061,6.125-0.373
					c4.263-0.605,8.801-1.918,13.861-2.439c9.863-0.324,19.38-0.306,30.027-1.453c5.281-0.401,10.574-0.541,15.666-1.235
					c5.175-0.884,10.394-1.855,15.64-2.891c10.585-2.003,21.159-4.747,31.75-7.293l17.374-4.521l4.296-1.154l2.142-0.578
					c0.664-0.21,1.304-0.382,1.948-0.641c2.578-0.94,5.094-2.333,7.676-3.779c2.578-1.45,5.22-2.983,8.066-4.168
					c2.867-1.244,5.887-1.883,8.741-2.402c5.792-1.022,11.438-1.362,16.631-2.375c5.169-1.015,10.243-2.767,15.456-4.166
					c2.606-0.699,5.242-1.314,7.918-1.705c2.586-0.365,5.146-0.678,7.678-0.939c5.043-0.515,9.968-0.822,14.737-0.927
					c4.89-0.219,9.808,0.623,14.051,1.572c4.311,0.951,8.194,1.945,11.85,2.443c3.688,0.519,7.387,0.742,10.952,1.203
					c3.562,0.45,6.987,1.134,10.061,2.283c2.988,1.143,5.482,2.313,7.759,3.533c4.502,2.44,7.701,4.99,9.484,7.424
					C508.639,345.427,509.006,347.75,507.887,349.935z"/>
			</g>
		</g>
	</g>
	<g>
		<circle fill="#FFFFFF" cx="212.494" cy="276.167" r="56.692"/>
		<g>
			<g>
				<g>
					<path d="M266.993,275.772c-0.17-4.981-1.702-9.735-2.942-14.398c-1.259-4.715-3.442-9.107-5.756-13.386
						c-1.157-2.146-2.074-4.484-3.168-6.82c-1.096-2.323-2.369-4.644-4.112-6.544c-1.73-1.904-3.3-4.044-5.05-6.131
						c-1.745-2.08-3.685-4.089-5.976-5.576c-4.598-2.974-9.809-4.831-15.08-6.535c-2.649-0.846-5.389-1.445-8.165-1.836
						c-0.685-0.101-1.393-0.192-2.131-0.268l-1.994-0.209l-2.175-0.154c-0.707-0.045-1.415-0.086-2.125-0.114
						c-2.848-0.138-5.67,0.543-8.387,1.379c-2.724,0.859-5.345,1.872-8.088,2.521c-2.747,0.633-5.734,0.776-8.804,1.16
						c-3.05,0.389-6.174,1.036-8.818,2.545c-2.643,1.503-4.969,3.506-7.115,5.65c-2.158,2.145-4.132,4.431-6.242,6.61
						c-4.781,4.952-8.68,10.861-11.457,17.297c-1.391,3.213-2.119,6.683-2.547,10.138c-0.423,3.466-0.556,6.915-0.811,10.326
						c-0.51,6.794-0.517,13.772,1.067,20.544c1.562,6.711,3.228,13.661,6.707,19.85c1.709,3.028,3.929,5.741,6.337,8.217
						c2.408,2.486,4.993,4.745,7.533,7.03c2.54,2.291,5.029,4.683,7.734,6.896c2.705,2.198,5.631,4.209,8.862,5.591
						c6.41,2.751,13.128,5.348,20.203,5.875c0.877,0.074,1.759,0.067,2.639,0.038c0.893-0.051,1.72-0.124,2.706-0.255l0.71-0.099
						l0.347-0.054l0.269-0.063l1.074-0.265l0.067-0.018l0.033-0.009c0.068,0-0.147-0.001,0.155,0l0.005-0.001l0.01-0.002
						l0.021-0.005l0.161-0.038l0.322-0.077l0.641-0.158c0.427-0.103,0.852-0.218,1.275-0.338c3.391-0.938,6.621-2.147,9.856-2.994
						c2.913-0.756,5.943-1.048,9-1.586c3.039-0.544,6.102-1.339,8.705-3.003c2.61-1.652,4.681-4.134,6.48-6.674
						c1.808-2.556,3.343-5.174,5.182-7.35c1.834-2.178,4.07-3.936,6.206-5.899c2.135-1.945,4.16-4.104,5.356-6.741
						c1.192-2.636,1.892-5.48,2.38-8.295c0.484-2.822,0.775-5.606,1.186-8.293c0.426-2.69,0.296-5.462,0.001-8.14
						c-0.302-2.684-0.764-5.287-1.006-7.813c-0.156-1.556-2.961-1.545-2.874,0.013c0.145,2.625-0.307,5.349-0.993,7.916
						c-0.687,2.589-1.605,5.077-2.405,7.587c-0.807,2.505-1.25,5.181-1.963,7.866c-0.709,2.669-1.685,5.349-3.388,7.53
						c-1.693,2.188-4.042,3.829-6.442,5.209c-2.41,1.39-4.876,2.515-7.057,3.92c-4.353,2.795-8.854,5.489-13.877,6.741
						c-5.034,1.249-10.254,0.776-15.124,0.406c-0.307-0.018-0.614-0.048-0.92-0.083l-0.458-0.051l-0.229-0.025l-0.029-0.004
						l-0.014-0.001l-0.007-0.001c-0.024-0.001,0.203,0.001,0.104,0l-0.004-0.001l-0.067-0.008l-0.134-0.017l-1.072-0.14
						c-0.358-0.048-0.574-0.11-0.866-0.164c-1.116-0.229-2.364-0.518-3.507-0.858c-2.328-0.667-4.562-1.507-6.741-2.367
						c-2.181-0.858-4.37-1.615-6.518-2.523c-2.141-0.91-4.235-1.984-6.078-3.417c-3.648-2.845-7.547-5.514-10.357-9.268
						c-1.414-1.888-2.361-4.107-3.125-6.319c-0.762-2.223-1.357-4.43-2.163-6.518c-1.628-4.186-2.448-8.6-3.049-13.042
						c-0.606-4.481-0.46-9.05-0.143-13.659c0.311-4.587,0.161-9.759,1.561-14.783c1.398-5.029,4.48-9.333,7.965-13.225
						c1.755-1.965,3.41-4.142,5.324-6.155c1.9-2.014,4.066-3.852,6.581-5.016c5.038-2.316,10.56-3.407,16.019-3.752
						c2.739-0.177,5.438,0.032,8.18,0.457c2.62,0.417,5.283,1.05,7.841,1.73c4.601,1.209,9.059,2.842,13.148,5.15
						c4.099,2.306,7.749,5.261,11.128,8.417c3.396,3.175,6.127,6.942,8.7,10.758c2.564,3.803,5.333,7.692,7.079,12.16
						c1.735,4.456,2.424,9.222,3.214,14.061C265.602,276.305,267.014,276.274,266.993,275.772z"/>
				</g>
			</g>
		</g>
	</g>
</g>
</svg>
