<?xml version="1.0" encoding="utf-8"?>
<!-- Generator: Adobe Illustrator 15.0.0, SVG Export Plug-In . SVG Version: 6.00 Build 0)  -->
<!DOCTYPE svg PUBLIC "-//W3C//DTD SVG 1.1//EN" "http://www.w3.org/Graphics/SVG/1.1/DTD/svg11.dtd">
<svg version="1.1" id="Layer_1" xmlns="http://www.w3.org/2000/svg" xmlns:xlink="http://www.w3.org/1999/xlink" x="0px" y="0px"
	 width="595.28px" height="595.28px" viewBox="0 0 595.28 595.28" enable-background="new 0 0 595.28 595.28" xml:space="preserve">
<g>
	<g>
		<circle fill="#FFFFFF" cx="297.639" cy="332.641" r="141.733"/>
		<g>
			<g>
				<g>
					<path d="M296.911,193.647c-12.658,0.236-25.038,3.03-37.044,6.334c-12.082,3.321-23.536,8.646-34.359,14.897
						c-5.419,3.126-10.971,6.121-16.369,9.519c-5.39,3.39-10.629,7.18-15.203,11.697c-4.57,4.512-9.275,8.954-13.73,13.751
						c-4.449,4.788-8.637,9.941-11.977,15.65c-6.698,11.432-11.208,24.056-14.659,36.921c-1.727,6.449-2.914,13.062-3.639,19.731
						c-0.185,1.668-0.338,3.34-0.467,5.015c-0.133,1.649-0.229,3.449-0.313,4.995c-0.156,3.432-0.224,6.749-0.204,10.142
						c0.034,6.76,1.286,13.497,2.976,20.055c1.699,6.572,3.834,12.964,5.69,19.424c1.857,6.459,3.277,13.132,5.208,19.802
						c1.923,6.654,4.38,13.291,8.09,19.236c3.706,5.939,8.225,11.368,13.081,16.426c4.86,5.066,10.049,9.77,15.245,14.453
						c11.781,10.629,25.492,19.307,40.311,25.513c7.392,3.104,15.214,5.128,23.087,6.485c7.884,1.363,15.814,2.077,23.716,2.669
						c15.765,1.181,31.844,0.628,47.405-3.03c7.77-1.821,15.491-3.937,23.056-6.626c7.559-2.687,14.959-5.948,21.924-9.992
						c6.859-3.981,13.173-8.848,19.026-14.145c5.862-5.301,11.267-11.029,16.499-16.881c5.239-5.856,10.412-11.817,15.121-18.206
						c4.702-6.38,8.927-13.194,12.129-20.495c3.196-7.292,6.084-14.742,8.369-22.405c2.283-7.656,3.957-15.525,4.708-23.483
						c0.372-3.97,0.393-7.964,0.157-11.932c-0.065-1.005-0.131-1.951-0.225-3.01c-0.047-0.501-0.089-1.071-0.144-1.513l-0.166-1.34
						l-0.021-0.168l-0.011-0.084l-0.001-0.104l-0.001-0.012l-0.003-0.022l-0.006-0.047l-0.047-0.368l-0.095-0.737l-0.201-1.471
						c-0.139-0.98-0.292-1.957-0.451-2.933c-1.287-7.808-3.175-15.409-4.879-22.979c-1.536-6.813-2.691-13.755-4.393-20.65
						c-1.693-6.878-3.932-13.708-7.428-19.858c-3.496-6.15-8.2-11.516-13.169-16.414c-4.979-4.913-10.223-9.362-15.088-14.063
						c-4.864-4.699-9.394-9.764-14.315-14.547c-4.909-4.77-10.22-9.245-16.231-12.472c-6.007-3.225-12.382-5.648-18.813-7.6
						c-6.438-1.955-12.924-3.459-19.361-4.917c-6.447-1.462-13.045-2.042-19.565-2.172c-6.528-0.135-12.981,0.153-19.372,0.38
						c-1.919,0.068-2.887,1.01-2.859,1.892c-0.003,0.894,1.074,1.725,2.908,1.702c6.916-0.095,13.857,0.826,20.606,2.31
						c6.764,1.484,13.355,3.523,19.883,5.681c6.526,2.158,13.177,4.132,19.711,6.682c6.52,2.541,12.917,5.669,18.537,9.91
						c5.621,4.238,10.397,9.501,14.653,15.023c4.268,5.536,8.023,11.323,11.905,16.932c7.754,11.197,14.519,23.234,18.419,36.282
						c1.945,6.507,3.105,13.209,3.735,19.899c0.632,6.697,0.737,13.383,0.618,20.025c-0.237,13.338-3.141,26.343-7.213,38.657
						c-2.037,6.174-4.204,12.294-6.822,18.247c-2.612,5.945-5.682,11.72-9.427,17.021c-3.744,5.299-7.63,10.492-11.88,15.4
						c-4.246,4.905-8.866,9.516-13.951,13.541c-5.153,4.08-10.893,7.372-16.775,10.187c-5.892,2.821-11.916,5.18-17.893,7.562
						c-11.963,4.762-24.665,7.461-37.463,8.756c-12.848,1.307-25.929,0.567-38.75-1.49c-6.425-1.031-12.905-2.174-19.383-3.755
						c-6.471-1.578-12.938-3.598-19.156-6.318c-12.513-5.475-23.506-13.986-33.17-23.731c-4.871-4.904-9.788-9.86-14.271-15.287
						c-4.477-5.414-8.517-11.301-11.446-17.754c-5.86-12.909-9.158-26.888-10.402-40.927c-1.243-14.031,0.51-28.125,3.587-41.662
						c2.756-12.134,6.927-23.912,12.744-34.815c5.812-10.927,13.256-20.87,21.596-29.875c8.366-9.03,18.132-16.626,28.43-23.262
						c10.278-6.618,21.135-12.725,32.973-16.688c11.804-3.955,24.274-5.709,36.82-6.714
						C298.272,195.389,298.186,193.625,296.911,193.647z"/>
				</g>
			</g>
		</g>
	</g>
	<g>
		<g>
			<g>
				<path d="M446.072,486.19c-5.701-11.63-11.144-23.348-16.63-35.056c-5.438-11.713-10.707-23.484-15.445-35.455
					c-2.505-6.333-5.272-12.593-8.007-18.853c-2.722-6.265-5.408-12.53-7.554-18.951c-2.149-6.418-3.581-13.03-4.814-19.718
					c-1.241-6.685-2.285-13.442-3.829-20.086c-2.886-12.457-6.613-24.725-8.975-37.332c-2.344-12.61-5.42-24.998-8.462-37.446
					c-3.231-13.281-3.78-27.406-8.148-40.308c-4.351-12.901-8.702-25.792-13.289-38.601c-4.438-12.453-10.648-24.322-15.262-36.705
					c-4.66-12.374-10.53-24.33-15.175-36.708l-2.521-6.834l-11.036-29.91l-12.71,29.457c-4.276,9.91-8.721,19.743-12.797,29.738
					c-4.993,12.248-9.608,24.655-14.504,36.942c-4.887,12.292-8.896,24.958-13.757,37.26c-4.871,12.296-11.178,23.981-15.935,36.329
					c-4.726,12.357-8.008,25.332-12.84,37.649c-4.846,12.306-11.233,23.956-15.917,36.336c-4.222,11.082-8.087,22.306-12.154,33.411
					c-4.081,11.124-8.613,22.105-12.579,33.253c-3.974,11.15-7.576,22.397-11.663,33.496c-4.088,11.095-8.474,22.121-12.565,33.225
					c-4.102,11.086-8.21,22.138-12.418,33.21c-0.817,2.166-0.242,2.423,0.626,0.351l14.915-36.273
					c4.991-12.048,9.575-24.29,14.422-36.429c4.842-12.126,10.321-24.002,15.282-36.072c4.954-12.092,9.705-24.243,14.908-36.184
					c5.349-12.227,10.444-24.589,15.759-36.837c5.308-12.252,11.458-24.107,16.873-36.313c5.41-12.21,10.528-24.551,16.05-36.708
					c5.522-12.159,11.544-24.043,17.354-36.065c5.799-11.964,9.973-24.763,15.907-36.657c5.922-11.895,14.395-22.475,20.54-34.279
					c1.826-3.523,3.566-7.092,5.282-10.675l-18.148-0.347c2.848,8.897,5.897,17.743,8.422,26.737
					c3.604,12.818,6.997,25.735,10.686,38.542c3.653,12.63,7.824,25.118,12.17,37.488c4.338,12.38,9.98,24.267,14.767,36.477
					c4.788,12.205,8.454,24.823,13.182,37.05c4.745,12.211,10.408,24.082,14.532,36.524c4.549,13.642,9.367,27.265,14.659,40.713
					c5.278,13.449,11.342,26.6,18.032,39.476c3.53,6.795,7.417,13.406,11.234,20.036c1.9,3.317,3.818,6.627,5.66,9.969
					c1.838,3.343,3.637,6.703,5.387,10.091c3.473,6.773,6.914,13.599,10.32,20.45l10.179,20.594
					C446.682,487.388,446.659,487.375,446.072,486.19z"/>
			</g>
		</g>
	</g>
</g>
</svg>
