<?xml version="1.0" encoding="utf-8"?>
<!-- Generator: Adobe Illustrator 15.0.0, SVG Export Plug-In . SVG Version: 6.00 Build 0)  -->
<!DOCTYPE svg PUBLIC "-//W3C//DTD SVG 1.1//EN" "http://www.w3.org/Graphics/SVG/1.1/DTD/svg11.dtd">
<svg version="1.1" id="Layer_1" xmlns="http://www.w3.org/2000/svg" xmlns:xlink="http://www.w3.org/1999/xlink" x="0px" y="0px"
	 width="595.28px" height="595.28px" viewBox="0 0 595.28 595.28" enable-background="new 0 0 595.28 595.28" xml:space="preserve">
<g>
	<g>
		<g>
			<path d="M444.279,462.429c-0.292-0.073-0.93-2.616-2.12-7.309l-4.96-20.192l-3.381-14.23c-0.579-2.467-1.25-5.05-1.971-7.755
				c-0.703-2.706-1.48-5.533-2.328-8.481c-1.693-5.9-3.599-12.302-5.351-19.279c-1.778-7.035-3.014-14.318-4.135-21.653
				c-1.11-7.397-2.104-14.683-3.895-22.271c-1.791-7.819-3.671-15.882-5.727-24.125c-1.002-4.127-2.093-8.289-3.176-12.501
				c-1.061-4.066-2.347-8.175-3.786-12.339c-2.866-8.33-6.386-16.814-9.256-25.82c-2.863-9.02-4.784-18.22-7.51-27.054
				c-1.379-4.394-2.938-8.769-4.954-12.655c-2.076-3.96-4.716-7.769-7.503-11.56c-2.816-3.785-5.73-7.587-8.475-11.605
				c-2.779-4.166-4.894-8.202-7.398-12.038c-5-7.673-10.57-14.843-16.73-21.052c-5.57-5.605-11.685-10.308-18.129-13.712
				c-6.442-3.423-13.184-5.535-20.101-6.232c-6.947-0.672-14.098,0.216-21.159,2.504c-7.274,2.227-14.534,5.421-21.104,9.704
				c-6.602,4.371-12.8,9.642-18.521,15.387c-5.728,5.75-10.971,11.988-15.825,18.408c-4.251,6.121-7.73,13.108-11.313,20.334
				c-1.786,3.613-3.618,7.304-5.584,11.012c-1.864,3.404-3.641,6.807-5.338,10.196c-3.362,6.688-6.408,13.315-9.183,19.796
				c-1.427,3.319-2.792,6.598-4.084,9.834c-1.455,3.473-2.911,6.754-4.307,9.872c-5.664,12.485-9.663,22.531-11.592,31.354
				c-2.11,9.247-3.529,18.547-5.27,26.67c-1.74,8.312-3.51,14.733-4.544,18.609c-2.284,8.366-4.268,15.657-5.661,22.225
				c-0.356,1.645-0.669,3.231-0.956,4.782l-0.953,5.234c-0.635,3.511-1.22,6.936-1.758,10.265
				c-2.174,13.312-3.799,25.051-4.808,34.811c-2.122,19.503-2.647,30.908-3.112,30.763c-0.222-0.065-0.413-3.009-0.597-8.436
				c-0.19-5.426-0.31-13.326-0.278-23.308c-0.002-4.996,0.091-10.497,0.298-16.457c0.216-5.959,0.579-12.373,1.045-19.203
				c0.247-3.413,0.521-6.928,0.833-10.536l0.52-5.589c0.204-2.113,0.441-4.221,0.716-6.286c1.083-8.309,2.688-16.18,4.246-23.663
				c0.745-3.65,1.81-8.503,2.786-14.931c1.077-6.604,1.866-15.402,3.916-27.009c1.046-5.823,2.722-12.429,4.75-18.418
				c2.023-6.104,4.422-12.051,6.808-17.891c2.49-5.916,4.428-11.236,7.137-18.329c2.629-6.736,5.546-13.653,8.813-20.68
				c1.628-3.501,3.344-7.028,5.154-10.57c1.615-3.188,3.221-6.582,4.897-10.151c3.375-7.125,6.95-15.02,12.085-22.957
				c5.183-7.493,10.826-14.373,17.086-20.86c6.27-6.474,13.165-12.571,21.093-18.167c7.922-5.394,16.525-9.378,25.188-12.185
				c8.824-3.055,18.273-4.517,27.589-3.905c9.375,0.623,18.531,3.212,26.877,7.338c8.361,4.117,15.933,9.698,22.611,16.126
				c7.476,7.013,13.963,14.994,19.659,23.409c1.443,2.086,2.836,4.21,4.191,6.356l2.007,3.227c0.652,1,1.232,1.978,1.921,2.949
				c2.626,3.904,5.688,7.719,8.783,11.731c3.097,4,6.256,8.189,8.97,12.812c2.803,4.653,4.783,9.668,6.478,14.433
				c3.396,9.678,5.6,19.233,8.448,28.041c2.837,8.769,6.452,17.404,9.568,26.284c1.558,4.442,3.007,8.933,4.195,13.507
				c1.137,4.42,2.203,8.801,3.202,13.131c1.989,8.627,3.718,17.058,5.232,25.234c1.646,8.355,2.34,16.948,2.898,24.501
				c0.563,7.656,1.096,14.664,1.937,21.101c0.84,6.498,1.875,12.874,2.663,19.07c0.802,6.193,1.37,12.214,1.645,17.919
				c0.261,5.564,0.401,10.346,0.517,14.831c0.211,8.883,0.26,15.832,0.296,20.539C444.525,460.04,444.573,462.504,444.279,462.429z"
				/>
		</g>
	</g>
	<g>
		<circle fill="#FFFFFF" cx="297.64" cy="250.317" r="56.692"/>
		<g>
			<g>
				<g>
					<path d="M352.14,249.922c-0.171-4.981-1.703-9.735-2.942-14.398c-1.26-4.715-3.442-9.107-5.756-13.386
						c-1.157-2.146-2.075-4.484-3.169-6.82c-1.096-2.323-2.368-4.644-4.112-6.544c-1.729-1.904-3.3-4.044-5.05-6.131
						c-1.745-2.08-3.685-4.089-5.976-5.576c-4.599-2.974-9.809-4.831-15.08-6.535c-2.649-0.846-5.389-1.445-8.164-1.836
						c-0.686-0.101-1.394-0.192-2.131-0.268l-1.995-0.209l-2.175-0.154c-0.707-0.045-1.415-0.086-2.125-0.114
						c-2.848-0.138-5.67,0.543-8.387,1.379c-2.724,0.859-5.345,1.872-8.088,2.521c-2.747,0.633-5.734,0.776-8.804,1.16
						c-3.05,0.389-6.174,1.036-8.818,2.545c-2.643,1.503-4.969,3.506-7.115,5.65c-2.157,2.145-4.132,4.431-6.242,6.61
						c-4.781,4.952-8.68,10.861-11.458,17.297c-1.39,3.213-2.118,6.683-2.546,10.138c-0.423,3.466-0.556,6.914-0.811,10.325
						c-0.51,6.794-0.517,13.772,1.067,20.544c1.562,6.711,3.228,13.66,6.707,19.85c1.709,3.028,3.929,5.741,6.337,8.217
						c2.408,2.485,4.993,4.745,7.534,7.03c2.54,2.291,5.029,4.683,7.734,6.896c2.705,2.198,5.631,4.209,8.862,5.591
						c6.41,2.751,13.128,5.348,20.203,5.875c0.877,0.074,1.759,0.067,2.639,0.038c0.893-0.051,1.72-0.124,2.706-0.255l0.71-0.099
						l0.347-0.054l0.269-0.063l1.074-0.265l0.067-0.018l0.033-0.009c0.068,0-0.147-0.001,0.154,0l0.005-0.001l0.01-0.002l0.02-0.005
						l0.161-0.038l0.322-0.077l0.641-0.158c0.427-0.103,0.852-0.218,1.275-0.338c3.391-0.938,6.621-2.147,9.856-2.994
						c2.913-0.756,5.943-1.048,9-1.586c3.038-0.544,6.102-1.339,8.705-3.003c2.609-1.652,4.681-4.134,6.479-6.674
						c1.809-2.556,3.344-5.173,5.182-7.35c1.835-2.178,4.07-3.935,6.206-5.899c2.135-1.945,4.16-4.104,5.355-6.741
						c1.192-2.636,1.893-5.481,2.381-8.295c0.483-2.822,0.774-5.606,1.186-8.293c0.426-2.69,0.295-5.462,0.001-8.14
						c-0.303-2.684-0.764-5.287-1.007-7.813c-0.156-1.556-2.961-1.545-2.873,0.013c0.145,2.625-0.307,5.349-0.993,7.916
						c-0.687,2.589-1.604,5.077-2.405,7.587c-0.807,2.505-1.25,5.181-1.962,7.865c-0.71,2.67-1.686,5.35-3.389,7.531
						c-1.692,2.188-4.042,3.829-6.441,5.209c-2.41,1.39-4.876,2.514-7.057,3.92c-4.354,2.795-8.854,5.49-13.878,6.741
						c-5.033,1.25-10.254,0.777-15.124,0.407c-0.306-0.018-0.613-0.048-0.919-0.083l-0.458-0.051l-0.229-0.026l-0.029-0.003
						l-0.014-0.001l-0.007-0.001c-0.024,0,0.203,0.001,0.104,0l-0.004,0l-0.067-0.008l-0.134-0.017l-1.072-0.139
						c-0.358-0.048-0.574-0.11-0.866-0.165c-1.116-0.229-2.364-0.518-3.507-0.858c-2.328-0.667-4.562-1.507-6.741-2.368
						c-2.181-0.858-4.37-1.615-6.518-2.523c-2.141-0.91-4.235-1.984-6.078-3.417c-3.648-2.845-7.547-5.514-10.357-9.268
						c-1.415-1.888-2.362-4.107-3.126-6.319c-0.762-2.223-1.357-4.431-2.163-6.518c-1.628-4.186-2.448-8.6-3.049-13.042
						c-0.606-4.481-0.46-9.05-0.143-13.659c0.311-4.587,0.161-9.759,1.561-14.783c1.398-5.029,4.48-9.333,7.965-13.225
						c1.755-1.965,3.41-4.142,5.324-6.155c1.9-2.014,4.066-3.852,6.581-5.016c5.038-2.316,10.56-3.407,16.019-3.752
						c2.739-0.177,5.438,0.032,8.18,0.457c2.62,0.417,5.283,1.05,7.842,1.73c4.601,1.209,9.059,2.842,13.147,5.15
						c4.1,2.306,7.75,5.261,11.128,8.417c3.397,3.175,6.128,6.942,8.701,10.758c2.563,3.803,5.333,7.692,7.078,12.16
						c1.735,4.456,2.425,9.222,3.214,14.061C350.748,250.455,352.159,250.424,352.14,249.922z"/>
				</g>
			</g>
		</g>
	</g>
</g>
</svg>
