<?xml version="1.0" encoding="utf-8"?>
<!-- Generator: Adobe Illustrator 15.0.0, SVG Export Plug-In . SVG Version: 6.00 Build 0)  -->
<!DOCTYPE svg PUBLIC "-//W3C//DTD SVG 1.1//EN" "http://www.w3.org/Graphics/SVG/1.1/DTD/svg11.dtd">
<svg version="1.1" id="Layer_1" xmlns="http://www.w3.org/2000/svg" xmlns:xlink="http://www.w3.org/1999/xlink" x="0px" y="0px"
	 width="595.28px" height="595.28px" viewBox="0 0 595.28 595.28" enable-background="new 0 0 595.28 595.28" xml:space="preserve">
<g>
	<g>
		<path fill="#FFFFFF" d="M384.259,92.282c0,0-74.783,167.857,0,410.716"/>
		<g>
			<g>
				<path d="M380.298,99.212c-2.753,6.372-5.348,12.829-7.78,19.347c-2.421,6.523-4.741,13.105-6.886,19.744
					c-2.179,6.635-3.419,13.56-5.221,20.294c-1.822,6.73-4.009,13.383-5.646,20.19c-1.639,6.804-2.714,13.732-4.117,20.593
					c-1.371,6.623-2.63,13.277-3.826,19.95c-1.168,6.671-3.069,13.268-4.091,19.999c-1.038,6.73-0.963,13.561-1.693,20.319
					c-0.739,6.764-1.223,13.542-1.663,20.334c-0.44,6.789-2.003,13.589-2.211,20.42c-0.179,6.941-0.003,13.878,0.014,20.824
					c-0.001,6.949,0.821,13.84,1.152,20.77c0.339,6.924-0.876,14.044-0.161,20.968c0.736,6.916,1.715,13.803,2.945,20.646
					c1.22,6.849,3.259,13.551,4.83,20.313c1.606,6.77,4.718,13.271,6.244,20.022c1.543,6.738,3.005,13.504,4.878,20.164
					c1.854,6.662,3.68,13.312,6.12,19.805c2.436,6.502,5.269,12.86,8.339,19.123c1.526,3.142,2.964,6.311,4.576,9.417
					c1.587,3.114,3.354,6.164,5.287,9.135c1.747,2.521,2.213,2.388,0.938-0.33c-3.011-6.217-5.902-12.53-8.319-18.974
					c-2.433-6.427-3.908-13.087-5.493-19.746c-1.57-6.646-4.09-13.186-5.247-19.939c-1.153-6.757-0.553-13.753-1.267-20.547
					c-0.745-6.81-1.241-13.647-2.015-20.419c-0.761-6.756-3.079-13.314-3.772-20.093c-0.685-6.774-1.312-13.546-1.854-20.327
					c-0.533-6.786,0.147-13.654-0.264-20.423c-0.396-6.773-0.522-13.558-0.711-20.333c-0.202-6.771-1.424-13.549-1.3-20.339
					c0.119-6.685,1.019-13.34,1.375-19.992c0.374-6.662,2.06-13.199,2.591-19.812c0.523-6.609-0.732-13.459,0.074-20.069
					c0.802-6.607,3.004-12.958,3.882-19.513c0.869-6.556,0.977-13.292,2.056-19.826c1.106-6.762,2.298-13.497,3.523-20.221
					c1.244-6.731,2.938-13.31,4.208-20.022c1.309-6.716,2.947-13.335,4.297-20.05c1.351-6.713,2.257-13.606,3.883-20.295
					c1.586-6.679,3.228-13.33,5.183-19.938c1.454-5.088,1.881-7.746,1.412-7.966C384.1,92.195,382.444,94.375,380.298,99.212z"/>
			</g>
		</g>
	</g>
	<g>
		<g>
			<g>
				<path d="M110.209,146.221c6.419,1.237,12.756,2.689,19.094,4.137c6.338,1.446,12.663,2.931,18.98,4.436
					c12.616,3.027,25.11,6.369,37.287,10.556c6.437,2.228,13.052,4.045,19.631,5.928c6.576,1.891,13.117,3.844,19.311,6.596
					c6.193,2.75,11.921,6.543,17.534,10.643c5.62,4.083,11.129,8.458,16.982,12.112c10.967,6.86,22.508,12.527,33.183,20.05
					c10.665,7.534,21.82,13.898,33.029,20.246c5.979,3.382,11.574,7.678,17.273,11.713c5.692,4.055,11.506,7.803,17.821,10.347
					c12.628,5.082,25.233,10.195,37.898,15.166c12.308,4.826,25.558,7.35,38.158,11.381c6.313,1.994,12.813,3.512,19.333,4.978
					c6.52,1.465,13.05,2.902,19.468,4.612l7.063,1.914l-0.446-23.332l-28.771,15.105c-11.743,6.196-23.561,12.22-35.671,17.538
					c-12.11,5.321-24.154,10.814-36.7,15.095c-6.268,2.149-12.719,3.856-19.269,5.329c-6.545,1.482-13.192,2.725-19.719,4.262
					c-6.511,1.568-12.842,3.575-19.079,5.808c-6.247,2.208-12.417,4.603-18.824,6.424c-6.404,1.825-13.161,2.8-19.906,3.806
					c-6.741,1.016-13.454,2.1-19.658,4.408c-11.119,4.133-21.482,10.053-32.073,15.347c-10.6,5.334-21.709,9.56-31.979,15.62
					c-10.269,6.078-19.82,13.729-30.011,19.983c-10.187,6.254-20.741,11.767-30.782,18.396c-5.021,3.295-10.015,6.639-14.996,10.021
					c-4.99,3.36-9.994,6.699-14.966,10.149c-1.919,1.403-1.642,2.104,0.377,1.108c5.806-2.963,11.717-5.773,17.625-8.615
					c5.909-2.838,11.821-5.688,17.771-8.393c5.944-2.687,11.773-5.66,17.561-8.743c5.79-3.077,11.546-6.244,17.446-9.072
					c5.892-2.829,12.011-5.128,18.167-7.337c6.156-2.207,12.348-4.326,18.326-6.942c11.968-5.249,23.713-10.971,36.037-15.259
					c12.621-4.406,24.991-9.484,37.604-13.928c6.308-2.222,12.791-3.996,19.233-5.87c6.444-1.865,12.842-3.844,19.072-6.246
					c12.459-4.817,24.724-10.117,37.138-15.023c12.415-4.909,24.849-9.621,37.272-14.472c12.382-4.804,24.503-10.595,37.012-15.063
					c6.257-2.222,12.663-3.939,19.165-5.432c6.491-1.516,13.103-2.748,19.581-4.443c3.87-0.998,7.721-2.066,11.575-3.136
					l21.964-6.093l-22.305-11.738c-8.324-4.38-16.735-8.584-24.914-13.288c-11.652-6.715-23.252-13.624-35.134-19.782
					c-11.734-6.043-23.846-11.22-35.911-16.378c-12.067-5.173-24.759-8.669-37.004-13.36c-12.246-4.678-23.866-11.007-36.09-15.746
					c-12.22-4.725-25-7.957-36.95-13.395c-13.116-5.95-26.45-11.542-40.065-16.387c-13.605-4.862-27.677-8.466-42.104-11.018
					c-7.616-1.339-15.415-2.056-23.165-2.882c-7.758-0.805-15.46-1.741-23.048-3.074c-15.159-2.645-30.269-5.835-45.443-8.758
					C108.872,145.986,108.898,145.97,110.209,146.221z"/>
			</g>
		</g>
	</g>
</g>
</svg>
