<?xml version="1.0" encoding="utf-8"?>
<!-- Generator: Adobe Illustrator 15.0.0, SVG Export Plug-In . SVG Version: 6.00 Build 0)  -->
<!DOCTYPE svg PUBLIC "-//W3C//DTD SVG 1.1//EN" "http://www.w3.org/Graphics/SVG/1.1/DTD/svg11.dtd">
<svg version="1.1" id="Layer_1" xmlns="http://www.w3.org/2000/svg" xmlns:xlink="http://www.w3.org/1999/xlink" x="0px" y="0px"
	 width="595.28px" height="595.28px" viewBox="0 0 595.28 595.28" enable-background="new 0 0 595.28 595.28" xml:space="preserve">
<g>
	<g>
		<path fill="#FFFFFF" d="M211.021,92.282c0,0,74.783,167.857,0,410.716"/>
		<g>
			<g>
				<path d="M212.918,99.99c2.106,6.552,3.893,13.215,5.524,19.898c1.642,6.684,3.058,13.429,4.365,20.179
					c1.274,6.754,3.228,13.403,4.333,20.192c1.083,6.791,1.536,13.663,2.299,20.481c0.761,6.815,1.851,13.597,2.363,20.436
					c0.479,6.602,0.854,13.208,1.072,19.816c0.245,6.608-0.456,13.25-0.488,19.839c-0.043,6.589,0.814,13.146,0.662,19.733
					c-0.165,6.584-0.275,13.148-0.547,19.715c-0.268,6.573-1.868,13.109-2.303,19.641c-0.417,6.648-0.677,13.297-1.302,19.927
					c-0.644,6.623-0.662,13.271-1.37,19.89c-0.7,6.623-3.162,13.093-3.878,19.678c-0.697,6.596-1.345,13.195-1.933,19.815
					c-0.598,6.615-0.564,13.329-1.188,19.978c-0.59,6.648,0.128,13.59-0.919,20.223c-1.025,6.617-2.316,13.198-3.379,19.829
					c-1.079,6.628-2.36,13.201-3.204,19.909c-0.851,6.718-1.48,13.494-2.035,20.335c-0.291,3.425-0.717,6.828-1.015,10.273
					c-0.321,3.439-0.501,6.926-0.549,10.451c0.042,3.053,0.501,3.208,0.962,0.25c0.96-6.82,1.899-13.641,3.116-20.343
					c1.196-6.692,3.169-13.127,4.871-19.684c1.71-6.542,2.342-13.432,4.112-19.952c1.775-6.517,5.081-12.638,6.934-19.188
					c1.825-6.563,3.718-13.137,5.143-19.797c1.435-6.651,1.133-13.591,2.257-20.276c1.132-6.692,2.132-13.404,3.021-20.139
					c0.899-6.727,2.818-13.364,3.447-20.146c0.643-6.774,1.358-13.548,1.812-20.344c0.44-6.802-0.345-13.666,0.017-20.457
					c0.344-6.689,1.281-13.373,1.464-20.086c0.205-6.706,1.521-13.396,1.478-20.132c-0.054-6.738-2.105-13.474-2.295-20.181
					c-0.19-6.71,0.824-13.448,0.291-20.168c-0.543-6.717-2.088-13.393-2.861-20.075c-0.809-6.921-1.771-13.819-2.94-20.685
					c-1.154-6.874-2.085-13.747-3.714-20.537c-1.597-6.799-3.113-13.606-5.214-20.285c-2.098-6.681-4.941-13.172-7.385-19.724
					c-2.479-6.529-5.192-12.934-8.107-19.294c-2.293-4.861-4.036-7.044-4.508-6.838C210.854,92.355,211.356,94.988,212.918,99.99z"
					/>
			</g>
		</g>
	</g>
	<g>
		<g>
			<g>
				<path d="M486.385,149.728c-5.651,3.286-11.382,6.356-17.11,9.429c-5.729,3.076-11.471,6.112-17.222,9.13
					c-11.499,6.009-23.112,11.701-35.042,16.546c-6.315,2.552-12.497,5.529-18.693,8.433c-6.199,2.896-12.413,5.722-18.89,7.718
					c-6.475,1.997-13.285,2.902-20.211,3.5c-6.918,0.615-13.946,0.938-20.76,2.03c-12.774,2.036-25.198,5.349-38.187,6.693
					c-12.99,1.33-25.581,3.864-38.201,6.445c-6.729,1.379-13.77,1.818-20.718,2.522c-6.955,0.684-13.8,1.679-20.233,3.912
					c-12.857,4.468-25.719,8.897-38.531,13.474c-12.449,4.45-24.094,11.255-36.242,16.498c-6.069,2.646-11.966,5.773-17.844,8.952
					c-5.877,3.18-11.743,6.389-17.705,9.317l-6.58,3.198l-29.112,14.149l28.666,9.182l30.947,9.913
					c12.653,4.024,25.235,8.224,37.521,13.125c12.287,4.898,24.649,9.632,36.5,15.571c5.928,2.96,11.669,6.36,17.313,9.996
					c5.647,3.626,11.195,7.492,16.868,11.066c5.685,3.54,11.556,6.646,17.522,9.524c5.956,2.904,11.99,5.623,17.782,8.913
					c5.792,3.284,11.227,7.417,16.674,11.519c5.452,4.092,10.933,8.116,16.93,10.92c10.744,5.026,22.232,8.262,33.435,12.097
					c11.236,3.813,22.04,8.769,33.563,11.838c11.535,3.056,23.688,4.498,35.294,7.375c11.603,2.874,22.935,6.53,34.702,9.037
					c5.871,1.268,11.757,2.481,17.661,3.659c5.896,1.2,11.784,2.425,17.731,3.549c2.347,0.384,2.651-0.306,0.525-1.046
					c-6.185-2.061-12.334-4.303-18.502-6.52c-6.167-2.222-12.346-4.437-18.447-6.78c-6.084-2.353-12.292-4.423-18.549-6.385
					c-6.255-1.969-12.549-3.851-18.703-6.072c-6.149-2.215-12.079-4.964-17.971-7.802c-5.892-2.841-11.745-5.768-17.803-8.193
					c-12.136-4.85-24.451-9.207-36.152-14.983c-11.993-5.906-24.289-11.161-36.303-17.035c-6.007-2.937-11.819-6.313-17.673-9.591
					c-5.85-3.285-11.748-6.458-17.83-9.213c-12.172-5.502-24.552-10.526-36.756-15.934c-12.207-5.406-24.287-10.964-36.458-16.417
					c-12.108-5.456-24.738-10.033-36.696-15.815c-5.972-2.901-11.69-6.263-17.314-9.85c-5.633-3.564-11.148-7.412-16.901-10.84
					c-3.426-2.059-6.889-4.054-10.354-6.051l-0.341,17.832c9.152-2.168,18.256-4.527,27.511-6.357
					c13.196-2.596,26.479-5.011,39.481-8.178c12.816-3.156,25.347-7.213,37.832-11.254c12.496-4.031,24.359-9.736,36.672-14.247
					c12.305-4.521,25.223-7.388,37.55-11.848c12.315-4.469,24.073-10.432,36.654-14.186c13.796-4.135,27.521-8.683,40.968-13.978
					c13.45-5.276,26.426-11.807,38.978-19.365c6.62-3.995,12.97-8.58,19.354-13.051c6.377-4.492,12.797-8.847,19.393-12.83
					c13.164-7.968,26.649-15.493,40.008-23.262C487.548,149.025,487.538,149.055,486.385,149.728z"/>
			</g>
		</g>
	</g>
</g>
</svg>
