<?xml version="1.0" encoding="utf-8"?>
<!-- Generator: Adobe Illustrator 15.0.0, SVG Export Plug-In . SVG Version: 6.00 Build 0)  -->
<!DOCTYPE svg PUBLIC "-//W3C//DTD SVG 1.1//EN" "http://www.w3.org/Graphics/SVG/1.1/DTD/svg11.dtd">
<svg version="1.1" id="Layer_1" xmlns="http://www.w3.org/2000/svg" xmlns:xlink="http://www.w3.org/1999/xlink" x="0px" y="0px"
	 width="595.28px" height="595.28px" viewBox="0 0 595.28 595.28" enable-background="new 0 0 595.28 595.28" xml:space="preserve">
<g>
	<g>
		<g>
			<g>
				<path d="M507.887,243.396c-2.28,4.412-8.178,4.378-17.008,2.512c-2.199-0.454-4.659-1.047-7.194-1.636
					c-2.482-0.565-5.293-0.881-8.361-1.106c-3.069-0.239-6.395-0.366-9.928-0.908c-3.563-0.537-7.152-1.683-10.867-2.79
					c-3.738-1.111-7.521-2.135-11.603-2.292c-4.197-0.247-8.587-0.326-13.147-0.229c-2.279,0.045-4.604,0.144-6.966,0.279
					c-2.283,0.13-4.613,0.458-6.989,0.916c-4.757,0.895-9.671,2.289-14.974,3.073c-5.31,0.783-10.805,0.828-16.183,1.492
					c-2.676,0.351-5.374,0.797-7.817,1.677c-2.497,0.899-4.963,2.213-7.484,3.63c-2.526,1.409-5.116,2.912-7.92,4.104
					c-2.89,1.228-5.706,1.828-8.495,2.722l-16.994,5.376c-10.355,3.303-20.787,6.902-31.481,9.736
					c-5.353,1.472-10.719,2.889-16.088,4.217c-5.547,1.247-11.084,1.792-16.354,2.542c-10.619,1.708-21.109,2.966-31.246,3.665
					c-4.639,0.685-9.366,2.259-14.394,3.346c-2.506,0.547-5.096,0.955-7.745,1.046c-2.451,0.025-4.87,0.016-7.253-0.028
					c-4.706-0.104-9.267-0.342-13.653-0.684c-2.248-0.188-4.45-0.411-6.604-0.657c-2.321-0.363-4.501-0.96-6.547-1.632
					c-8.208-2.847-14.228-5.915-19.718-6.027c-5.728-0.321-11.674,0.214-16.666-0.738c-5.12-0.884-8.722-3.02-10.836-4.336
					c-4.572-2.917-8.172-6.202-11.526-8.522c-0.835-0.6-1.655-1.123-2.463-1.601l-2.702-1.662c-1.788-1.16-3.508-2.311-5.159-3.445
					c-6.601-4.57-11.753-9.564-16.038-13.434c-8.407-8.148-11.605-14.991-9.732-18.246c2.087-3.215,8.781-2.32,18.839,1.064
					c5.12,1.497,10.649,4.413,17.108,7.405c1.6,0.78,3.252,1.574,4.962,2.354l2.638,1.246c1.001,0.461,1.98,0.982,2.92,1.565
					c3.787,2.298,7.194,5.365,10.712,7.703c1.713,1.114,4.032,2.625,7.4,3.318c3.445,0.821,8.259,0.479,14.361,0.994
					c3.066,0.278,6.472,1.257,9.621,2.67c3.207,1.376,6.416,3.098,9.676,4.461c3.309,1.475,6.336,2.061,10.407,2.595
					c3.88,0.563,7.936,1.047,12.152,1.42c2.101,0.185,4.242,0.345,6.419,0.476c1.955,0.095,4-0.061,6.125-0.373
					c4.263-0.605,8.801-1.918,13.861-2.439c9.863-0.324,19.38-0.306,30.027-1.453c5.281-0.402,10.574-0.542,15.666-1.235
					c5.175-0.884,10.394-1.855,15.64-2.891c10.585-2.002,21.159-4.747,31.75-7.293l17.374-4.521l4.296-1.154l2.142-0.578
					c0.664-0.209,1.304-0.382,1.948-0.641c2.578-0.94,5.094-2.333,7.676-3.78c2.578-1.45,5.22-2.983,8.066-4.167
					c2.867-1.245,5.887-1.883,8.741-2.402c5.792-1.022,11.438-1.363,16.631-2.375c5.169-1.015,10.243-2.766,15.456-4.166
					c2.606-0.699,5.242-1.314,7.918-1.706c2.586-0.365,5.146-0.678,7.678-0.939c5.043-0.514,9.968-0.823,14.737-0.926
					c4.89-0.219,9.808,0.623,14.051,1.571c4.311,0.952,8.194,1.946,11.85,2.444c3.688,0.518,7.387,0.742,10.952,1.204
					c3.562,0.45,6.987,1.133,10.061,2.282c2.988,1.143,5.482,2.313,7.759,3.534c4.502,2.44,7.701,4.99,9.484,7.423
					C508.639,238.888,509.006,241.211,507.887,243.396z"/>
			</g>
		</g>
	</g>
	<g>
		<circle fill="#FFFFFF" cx="423.269" cy="320.063" r="56.692"/>
		<g>
			<g>
				<g>
					<path d="M477.769,319.668c-0.171-4.981-1.703-9.735-2.942-14.398c-1.26-4.715-3.442-9.107-5.756-13.386
						c-1.157-2.145-2.075-4.484-3.169-6.82c-1.096-2.323-2.368-4.644-4.112-6.544c-1.729-1.904-3.3-4.044-5.05-6.131
						c-1.745-2.08-3.685-4.089-5.976-5.575c-4.599-2.974-9.809-4.831-15.08-6.535c-2.649-0.846-5.39-1.445-8.165-1.836
						c-0.685-0.101-1.393-0.192-2.131-0.268l-1.994-0.209l-2.175-0.154c-0.706-0.044-1.414-0.086-2.125-0.114
						c-2.848-0.138-5.67,0.543-8.387,1.379c-2.724,0.859-5.345,1.872-8.088,2.521c-2.746,0.633-5.734,0.776-8.804,1.16
						c-3.05,0.389-6.173,1.036-8.817,2.545c-2.643,1.503-4.97,3.506-7.115,5.65c-2.157,2.145-4.133,4.431-6.242,6.61
						c-4.78,4.952-8.679,10.861-11.457,17.297c-1.391,3.213-2.118,6.683-2.547,10.138c-0.423,3.466-0.556,6.914-0.811,10.325
						c-0.51,6.794-0.517,13.772,1.067,20.544c1.563,6.712,3.229,13.66,6.707,19.85c1.71,3.029,3.929,5.741,6.338,8.218
						c2.407,2.485,4.992,4.745,7.533,7.029c2.54,2.292,5.029,4.683,7.734,6.896c2.704,2.198,5.631,4.209,8.861,5.591
						c6.41,2.751,13.128,5.348,20.203,5.875c0.877,0.074,1.76,0.067,2.64,0.038c0.893-0.051,1.72-0.124,2.705-0.255l0.711-0.099
						l0.347-0.054l0.269-0.063l1.074-0.265l0.067-0.018l0.033-0.009c-0.132-0.001,0.186,0.001,0.155,0l0.005-0.001l0.01-0.002
						l0.021-0.005l0.161-0.038l0.321-0.077l0.642-0.158c0.427-0.103,0.852-0.218,1.274-0.338c3.391-0.938,6.621-2.147,9.856-2.994
						c2.913-0.756,5.943-1.048,9-1.586c3.038-0.544,6.102-1.339,8.705-3.003c2.61-1.652,4.681-4.134,6.48-6.674
						c1.808-2.556,3.343-5.174,5.182-7.35c1.834-2.179,4.069-3.936,6.205-5.899c2.135-1.945,4.16-4.104,5.356-6.741
						c1.191-2.636,1.892-5.481,2.38-8.295c0.483-2.822,0.774-5.605,1.186-8.293c0.426-2.69,0.295-5.462,0.001-8.14
						c-0.303-2.684-0.764-5.286-1.007-7.813c-0.156-1.556-2.961-1.546-2.873,0.013c0.145,2.626-0.307,5.35-0.993,7.917
						c-0.687,2.588-1.604,5.076-2.405,7.586c-0.807,2.506-1.25,5.181-1.962,7.865c-0.71,2.67-1.686,5.35-3.389,7.531
						c-1.692,2.188-4.042,3.828-6.441,5.209c-2.41,1.39-4.876,2.515-7.057,3.92c-4.354,2.795-8.854,5.489-13.877,6.74
						c-5.034,1.25-10.255,0.777-15.124,0.407c-0.308-0.018-0.614-0.048-0.92-0.083l-0.459-0.051l-0.229-0.025l-0.029-0.004
						l-0.014-0.002h-0.008c-0.024-0.001,0.203,0.001,0.104,0l-0.004-0.001l-0.067-0.008l-0.134-0.017l-1.072-0.14
						c-0.358-0.048-0.573-0.11-0.865-0.164c-1.117-0.229-2.364-0.518-3.507-0.858c-2.328-0.667-4.563-1.507-6.741-2.367
						c-2.181-0.858-4.37-1.615-6.519-2.523c-2.141-0.91-4.235-1.984-6.077-3.417c-3.648-2.845-7.548-5.514-10.357-9.268
						c-1.414-1.888-2.361-4.106-3.126-6.318c-0.763-2.224-1.356-4.431-2.163-6.519c-1.628-4.186-2.448-8.6-3.049-13.042
						c-0.606-4.481-0.461-9.05-0.144-13.659c0.311-4.587,0.161-9.758,1.562-14.783c1.397-5.029,4.479-9.333,7.965-13.225
						c1.755-1.965,3.41-4.142,5.323-6.155c1.9-2.014,4.066-3.852,6.581-5.016c5.038-2.316,10.56-3.407,16.02-3.752
						c2.739-0.177,5.438,0.032,8.18,0.457c2.62,0.417,5.283,1.05,7.842,1.73c4.601,1.209,9.059,2.842,13.147,5.149
						c4.1,2.306,7.749,5.261,11.128,8.417c3.396,3.175,6.128,6.942,8.7,10.758c2.564,3.803,5.334,7.692,7.079,12.16
						c1.735,4.456,2.425,9.222,3.214,14.061C476.377,320.2,477.788,320.169,477.769,319.668z"/>
				</g>
			</g>
		</g>
	</g>
</g>
</svg>
