<?xml version="1.0" encoding="utf-8"?>
<!-- Generator: Adobe Illustrator 15.0.0, SVG Export Plug-In . SVG Version: 6.00 Build 0)  -->
<!DOCTYPE svg PUBLIC "-//W3C//DTD SVG 1.1//EN" "http://www.w3.org/Graphics/SVG/1.1/DTD/svg11.dtd">
<svg version="1.1" id="Layer_1" xmlns="http://www.w3.org/2000/svg" xmlns:xlink="http://www.w3.org/1999/xlink" x="0px" y="0px"
	 width="595.28px" height="595.28px" viewBox="0 0 595.28 595.28" enable-background="new 0 0 595.28 595.28" xml:space="preserve">
<g>
	<g>
		<polyline fill="#FFFFFF" points="141.601,136.931 453.68,507.051 141.601,507.051 368.594,151.678 		"/>
		<g>
			<g>
				<path d="M361.551,159.056c-11.053,14.388-21.998,29.289-33.056,44.032c-2.737,3.649-5.525,7.26-8.354,10.843
					c-2.81,3.595-5.655,7.167-8.521,10.731c-5.731,7.13-11.486,14.271-17,21.648c-5.484,7.34-10.545,15.032-15.508,22.794
					c-4.974,7.755-9.847,15.583-15.169,23.059c-10.624,14.976-21.947,29.426-32.443,44.401
					c-10.543,15.097-22.049,29.391-32.428,44.366c-11.745,16.979-23.424,34.01-34.671,51.331
					c-11.229,17.312-20.396,36.1-31.27,53.657c-2.331,3.756-4.742,7.455-7.195,11.125l-18.684,27.957l34.348,0.636
					c16.198,0.3,32.361,1.228,48.589,0.851c10.325-0.239,20.651-0.448,30.977-0.773c10.326-0.324,20.651-0.75,30.975-1.272
					c20.646-1.063,41.302-2.678,61.942-4.226c19.84-1.505,39.762-3.183,59.711-4.266c19.855-1.073,39.724-1.495,59.66-1.716
					c6.734-0.057,13.478-0.113,20.225-0.091l15.26,0.05l-9.837-11.716c-8.467-10.084-16.756-20.341-24.763-30.823
					c-6.04-7.92-11.898-16-17.634-24.187c-2.868-4.093-5.703-8.215-8.519-12.354l-8.463-12.401
					c-5.649-8.26-11.366-16.47-17.171-24.604l-17.516-24.301c-11.672-16.213-24.101-31.762-36.92-46.962
					c-6.414-7.62-13.082-14.986-19.86-22.249l-20.314-21.799c-13.532-14.624-26.952-29.37-40.908-43.508
					c-13.958-14.207-27.883-28.584-42.113-42.389c-7.128-6.926-14.357-13.547-21.498-20.215
					c-7.152-6.659-14.202-13.378-21.198-20.312c-8.688-8.591-14.414-13.964-17.524-16.879c-3.135-2.895-3.693-3.297-2.672-1.419
					c0.959,1.735,3.136,5.331,6.648,10.984c3.534,5.635,8.38,13.347,15.344,22.752c11.467,15.469,23.695,30.005,35.915,44.807
					c12.257,14.819,23.992,30.453,36.48,45.053c12.536,14.601,24.974,29.33,37.686,43.771
					c12.722,14.456,26.552,27.637,39.416,41.974c12.837,14.363,24.719,29.837,37.719,44.079
					c12.96,14.264,25.833,28.602,38.653,43.011c6.409,7.196,12.944,14.228,19.4,21.33c6.461,7.099,12.854,14.261,19.125,21.593
					c8.416,9.842,16.745,19.813,25.104,29.756l0.159-0.344l-18.984,0.014c-19.266,0.089-38.619-0.265-57.932-0.254l-57.858,0.11
					c-19.356,0.024-38.659,0.988-58.016,1.224c-19.353,0.185-38.672,1.219-58.025,1.455l-58.06,0.942l-3.204,0.024l-6.042,0.046
					l3.255-5.133c9.797-15.447,20.938-30.099,30.665-45.586c10.288-16.397,19.084-33.698,29.448-50.042
					c10.37-16.338,22.122-32.012,32.528-48.574c10.327-16.442,19.754-33.489,30.311-49.897
					c10.535-16.384,21.768-32.374,32.419-48.651c10.72-16.333,21.679-32.409,32.466-48.524l32.468-48.463
					c4.677-7.041,7.772-12.235,8.622-13.776C368.582,150.211,366.892,152.138,361.551,159.056z"/>
			</g>
			<g>
				<path d="M165.291,173.892c10.741,15.334,21.759,30.484,32.805,45.595c11.046,15.089,21.676,30.447,32.945,45.374
					c11.252,14.924,23.644,29.035,35.246,43.684c5.793,7.325,11.675,14.581,17.596,21.806c5.916,7.229,11.889,14.41,17.926,21.535
					c12.031,14.279,23.163,29.173,36.086,42.705c12.886,13.567,26.26,26.738,39.459,40.037
					c13.216,13.297,26.408,26.621,39.113,40.341c11.02,11.891,21.563,24.124,31.938,36.531l5.275-11.349l-7.475-0.039
					c-18.691-0.118-37.489,0.091-56.167-0.79c-18.676-0.911-37.354-2.177-56.014-3.71c-20.348-1.655-40.64-4.183-60.985-5.831
					c-20.357-1.621-40.693-3.229-61.038-4.072l-61.057-2.251l-9.343-0.378l20.202,36.875c9.865-14.16,20.072-28.104,29.572-42.485
					c11.251-16.969,21.613-34.488,32.225-51.848c10.627-17.368,21.133-34.813,31.223-52.499
					c10.096-17.703,19.085-35.995,28.899-53.849c9.791-17.888,19.264-35.907,28.782-53.939
					c9.529-18.039,19.202-36.024,28.407-54.238c6.91-13.883,3.077-13.333-4.834,0.167c-9.173,15.977-18.266,31.99-27.598,47.869
					c-9.319,15.883-19.213,31.385-28.79,47.107c-9.585,15.713-18.014,32.198-27.7,47.852c-9.692,15.642-20.426,30.572-30.379,46.051
					c-9.933,15.483-20.417,30.582-30.572,45.924c-10.146,15.349-18.802,31.785-29.147,47.006
					c-4.255,6.267-8.568,12.489-12.888,18.707l-7.402-13.513c10.815,0.437,21.628,0.887,32.45,1.191
					c18.393,0.545,36.682,2.084,55.072,2.588c18.39,0.494,36.867,0.297,55.253,0.941c18.386,0.617,36.786,1.163,55.169,1.661
					c18.401,0.471,36.942,0.457,55.372,0.796c18.402,0.327,36.751,0.715,55.176,0.857l3.586,0.025l-0.554,1.19l-33.188-39.624
					c-11.795-14.13-23.237-28.454-34.842-42.761c-11.644-14.261-22.627-28.952-34.064-43.396
					c-11.442-14.438-23.629-28.394-35.195-42.725c-11.558-14.358-21.752-29.628-33.493-43.823
					c-11.768-14.189-25.533-26.958-37.362-41.079c-11.86-14.128-23.224-28.56-35.355-42.43
					c-12.095-13.938-23.844-28.131-36.312-41.718c-7.256-7.917-13.614-14.059-18.12-18.38c-4.527-4.304-7.216-6.775-7.802-6.789
					c-0.592-0.014,0.848,2.577,3.872,7.582c1.522,2.494,3.431,5.599,5.771,9.207C159.364,165.199,162.095,169.344,165.291,173.892z"
					/>
			</g>
		</g>
	</g>
	<g>
		<line fill="#FFFFFF" x1="267.72" y1="88.229" x2="284.339" y2="426.007"/>
		<g>
			<g>
				<path d="M276.821,426.376c-3.937,0.122-6.343-4.152-7.834-11.771c-0.373-1.89-0.683-4.052-0.961-6.291
					c-0.276-2.189-0.783-4.59-1.337-7.227c-0.544-2.637-1.159-5.514-1.371-8.673c-0.223-3.186,0.142-6.498,0.59-9.833
					c0.449-3.363,0.949-6.674,0.865-10.155l-0.055-11.129l-0.022-5.819c-0.005-1.899-0.13-3.84-0.326-5.825
					c-0.373-3.969-1-8.113-0.973-12.466c0.03-4.36,0.794-8.7,1.145-12.979c0.159-2.134,0.27-4.286,0.016-6.313
					c-0.258-2.071-0.832-4.189-1.455-6.369c-0.618-2.183-1.28-4.431-1.646-6.776c-0.375-2.417-0.266-4.651-0.381-6.911
					l-0.576-13.662c-0.349-8.273-0.904-16.551-0.997-24.78l-0.261-12.309c0.009-4.187,0.494-8.245,0.693-12.142l0.735-22.932
					c-0.181-3.403-1.148-6.896-1.826-10.529c-0.341-1.814-0.599-3.671-0.634-5.566l0.046-5.185l0.133-9.768l0.103-4.743
					c0.115-1.678,0.398-3.277,0.732-4.798c1.45-6.103,2.959-10.884,2.126-14.816c-0.712-4.136-2.315-8.189-2.706-11.826
					c-0.47-3.713,0.228-6.662,0.668-8.437c1.008-3.838,2.411-7.192,3.108-10.157c0.188-0.744,0.321-1.457,0.42-2.15l0.36-2.341
					l0.797-4.584c1.064-5.938,2.631-11.179,3.635-15.506c2.327-8.666,5.382-13.784,8.416-13.883c3.036-0.1,5.481,4.845,7.134,13.411
					c0.989,4.279,1.034,9.479,1.083,15.401l-0.057,4.574l-0.068,2.43c-0.023,0.919-0.105,1.84-0.25,2.748
					c-0.552,3.649-1.886,7.182-2.746,10.527c-0.399,1.629-0.961,3.804-0.714,6.599c0.158,2.882,1.473,6.604,2.15,11.628
					c0.322,2.524,0.094,5.458-0.592,8.203c-0.647,2.789-1.634,5.577-2.403,8.317c-0.854,2.79-1.078,5.236-1.271,8.508l-0.722,9.688
					l-0.376,5.063c-0.097,1.537-0.012,3.144,0.173,4.821c0.353,3.358,1.175,6.99,1.217,10.99
					c-0.479,7.743-1.583,15.057-2.244,23.274c-0.461,4.057-1.219,8.051-1.566,11.963l-0.653,12.12
					c-0.51,8.192-0.632,16.494-0.918,24.788l-0.173,13.689l0.007,3.399l0.011,1.695c0.028,0.531,0.032,1.038,0.103,1.565
					c0.21,2.089,0.792,4.217,1.419,6.396c0.629,2.177,1.328,4.408,1.737,6.726c0.453,2.342,0.43,4.691,0.367,6.905
					c-0.153,4.482-0.713,8.782-0.568,12.844c0.148,4.042,1.002,8.083,1.708,12.146c0.351,2.035,0.674,4.073,0.851,6.126l0.482,5.873
					l0.915,11.192c0.387,3.691,0.112,7.451-0.159,10.765c-0.271,3.357-0.479,6.438-0.239,9.26c0.234,2.851,0.806,5.636,1.263,8.337
					c0.465,2.699,0.821,5.317,0.811,7.81c-0.023,2.431-0.141,4.522-0.316,6.487C282.718,421.78,280.755,426.254,276.821,426.376z"/>
			</g>
		</g>
	</g>
</g>
</svg>
